<?xml
  version="1.0"
  encoding="UTF-8"
  standalone="no"?><!-- Generator: Gravit.io --><svg
  xmlns="http://www.w3.org/2000/svg"
  xmlns:xlink="http://www.w3.org/1999/xlink"
  style="isolation: isolate"
  viewBox="4.604 3.604 14 17"
  width="14pt"
  height="17pt"
>
  <defs><clipPath id="_clipPath_6Z8WnlYqL0DHZW6TZE3okr6gUB9ZKnb6"><rect
        width="24"
        height="24"
      /></clipPath></defs><g
    clip-path="url(#_clipPath_6Z8WnlYqL0DHZW6TZE3okr6gUB9ZKnb6)"
  ><path
      d=" M 13.051 11.691 C 13.814 11.306 14.337 10.516 14.337 9.604 C 14.337 8.314 13.29 7.267 12 7.267 C 11.116 7.267 10.345 7.76 9.949 8.485 L 9.046 7.993 C 9.617 6.948 10.726 6.239 12 6.239 C 13.857 6.239 15.365 7.747 15.365 9.604 C 15.365 10.917 14.611 12.055 13.514 12.609 L 13.514 12.609 L 13.514 12.609 L 13.051 11.691 L 13.051 11.691 L 13.051 11.691 C 13.05 11.692 13.048 11.693 13.047 11.693 L 13.047 11.693 L 13.047 11.693 L 13.047 11.693 L 7.991 14.273 L 8.46 15.188 L 13.514 12.609 L 13.514 12.609 L 13.514 12.609 L 13.051 11.691 Z "
      fill="rgb(90,120,110)"
    /><path
      d=" M 14.358 13.029 C 15.651 13.04 16.722 14.092 16.724 15.386 L 17.646 16.052 L 17.646 16.052 C 18.235 14.866 18.573 13.48 18.573 12 C 18.573 7.635 15.628 4.09 12 4.09 C 8.372 4.09 5.427 7.635 5.427 12 C 5.427 16.365 8.372 19.91 12 19.91 L 12 19.91 L 12 19.91 C 12.001 19.91 12.001 19.91 12.002 19.91 C 13.305 19.91 14.363 18.852 14.363 17.549 C 14.363 16.246 13.305 15.188 12.002 15.188 C 12.001 15.188 12.001 15.188 12 15.188 L 12 15.188 L 8.46 15.188 L 8.984 16.217 L 12 16.217 L 12 16.215 C 12.001 16.215 12.001 16.215 12.002 16.215 C 12.738 16.215 13.336 16.813 13.336 17.549 C 13.336 18.285 12.738 18.882 12.002 18.882 C 12.001 18.882 12.001 18.882 12 18.882 L 12 18.882 C 8.939 18.882 6.454 15.798 6.454 12 C 6.454 8.202 8.939 5.118 12 5.118 C 15.061 5.118 17.546 8.202 17.546 12 C 17.546 12.622 17.479 13.224 17.354 13.797 C 17.061 13.248 16.621 12.789 16.086 12.472 C 16.476 12.098 16.719 11.572 16.719 10.99 L 15.692 10.99 C 15.692 11.548 15.246 12.003 14.692 12.018 C 14.591 12.008 14.463 12.002 14.359 12.002 L 14.358 13.029 L 14.358 13.029 Z "
      fill="rgb(90,120,110)"
    /><path
      d=" M 10.964 11.586 C 11.136 11.926 11.489 12.159 11.896 12.159 C 12.473 12.159 12.941 11.691 12.941 11.114 C 12.941 10.537 12.473 10.069 11.896 10.069 C 11.5 10.069 11.154 10.29 10.978 10.616 L 10.081 10.121 C 10.433 9.48 11.114 9.045 11.896 9.045 C 13.038 9.045 13.965 9.972 13.965 11.114 C 13.965 12.256 13.038 13.183 11.896 13.183 C 11.09 13.183 10.391 12.721 10.05 12.048 L 10.964 11.586 L 10.964 11.586 Z "
      fill="rgb(90,120,110)"
    /><rect
      x="4"
      y="4"
      width="16"
      height="16"
      transform="matrix(1,0,0,1,0,0)"
      fill="none"
    /></g>
</svg>
