<?xml version="1.0" encoding="UTF-8" standalone="no"?><!-- Generator: Gravit.io --><svg xmlns="http://www.w3.org/2000/svg" xmlns:xlink="http://www.w3.org/1999/xlink" style="isolation:isolate" viewBox="0 0 43.5 24" width="43.5pt" height="24pt"><defs><clipPath id="_clipPath_ngcVzF7fZUSg3UUpmRZtsRS6L1enw0iu"><rect width="43.5" height="24"/></clipPath></defs><g clip-path="url(#_clipPath_ngcVzF7fZUSg3UUpmRZtsRS6L1enw0iu)"><path d=" M 3.111 0.019 C 4.524 0.008 6.01 0.411 6.704 1.749 L 6.704 1.749 L 7.37 2.947 C 9.765 3.391 11.068 4.899 10.697 7.339 L 10.697 7.339 L 7.104 13.061 C 5.211 13.939 4.929 16.126 5.107 17.985 L 5.107 17.985 L 6.305 19.449 Q 8.51 20.704 12.693 19.981 Q 13.358 18.784 14.024 20.247 L 14.423 20.114 L 14.822 19.449 L 15.221 19.582 L 15.621 20.247 L 16.286 19.848 L 16.419 19.449 L 17.218 19.183 L 18.149 19.848 L 18.282 20.247 L 19.347 19.449 L 20.412 20.247 L 21.21 19.183 C 21.861 19.065 22.721 19.08 22.94 19.848 L 22.94 19.848 L 23.073 20.247 L 23.739 20.114 L 24.138 19.449 L 24.537 19.582 L 24.936 20.247 L 26.533 19.183 L 27.465 19.848 L 27.598 20.247 L 28.663 19.449 L 29.195 20.247 L 29.86 20.114 L 30.26 19.449 C 31.497 21.207 34.612 20.483 36.265 19.865 C 37.138 19.538 37.882 19.061 38.377 18.251 L 38.377 18.251 L 38.644 16.92 Q 37.274 13.233 34.784 10.666 Q 32.848 9.142 32.788 5.742 Q 33.154 4.111 34.518 3.479 L 36.514 2.814 C 36.716 0.845 38.538 -0.154 40.374 0.019 L 40.374 0.019 L 42.37 0.951 C 43.539 1.777 43.594 3.387 43.435 4.677 L 43.435 4.677 L 41.971 6.673 Q 41.083 7.516 39.043 7.206 Q 37.313 6.806 36.647 5.342 Q 35.184 5.609 35.45 7.605 L 39.708 13.993 C 41.597 15.158 41.783 17.586 41.571 19.582 L 41.571 19.582 L 40.108 21.578 C 37.455 24.282 33.62 21.828 30.585 23.085 C 30.399 23.162 30.164 23.308 29.993 23.441 L 29.993 23.441 L 29.727 22.909 L 29.062 23.042 L 28.929 23.441 L 28.263 23.308 L 28.13 22.909 C 27.714 23.674 26.783 23.78 26.001 23.708 L 26.001 23.708 L 24.936 22.909 L 23.872 23.441 L 23.606 22.909 L 22.94 23.042 L 22.541 23.708 L 21.742 23.974 C 21.532 23.089 20.694 22.848 19.879 22.909 L 19.879 22.909 L 19.613 23.441 L 18.948 23.308 L 18.815 22.909 C 18.399 23.674 17.467 23.78 16.685 23.708 L 16.685 23.708 L 16.153 22.909 L 15.221 23.042 L 15.088 23.441 L 14.423 23.308 L 14.29 22.909 L 13.624 23.042 L 13.491 23.441 L 12.826 23.308 L 12.427 22.643 C 9.317 23.031 7.28 23.122 6.305 22.909 C 4.592 22.475 3.089 21.67 2.18 20.114 L 2.18 20.114 L 1.913 17.453 Q 3.319 13.668 5.906 11.065 Q 8.238 10.07 8.035 6.54 L 7.636 5.875 L 6.837 5.342 L 6.039 6.407 C 5.317 7.384 3.923 7.366 2.845 7.206 L 2.845 7.206 L 1.115 6.274 C -0.003 5.525 -0.088 4.03 0.05 2.814 L 0.05 2.814 L 0.982 1.35 L 1.464 0.798 L 2.18 0.418 L 3.111 0.019 Z " fill="rgb(2,2,2)"/></g></svg>