<svg
  xmlns="http://www.w3.org/2000/svg"
  viewBox="0 0 1200 900"
  role="img"
  aria-label="MBK Blank Keycap Set"
>
  <rect width="1200" height="900" fill="#f4f0e6" />
  <radialGradient id="g" cx="42%" cy="32%" r="72%">
    <stop offset="0" stop-color="#ffffff" stop-opacity="0.6" />
    <stop offset="1" stop-color="#f4f0e6" stop-opacity="0" />
  </radialGradient>
  <rect width="1200" height="900" fill="url(#g)" />
  <defs>
    <g id="cap">
      <rect x="0" y="14" width="120" height="106" rx="16" fill="#1c242c" />
      <rect x="0" y="0" width="120" height="112" rx="16" fill="#28313b" />
      <rect x="14" y="12" width="92" height="84" rx="12" fill="#323d49" />
    </g>
  </defs>
  <ellipse cx="600" cy="730" rx="300" ry="40" fill="#17130e" opacity="0.08" />
  <g>
    <use href="#cap" x="330" y="250" />
    <use href="#cap" x="470" y="250" />
    <use href="#cap" x="610" y="250" />
    <use href="#cap" x="750" y="250" />
    <use href="#cap" x="330" y="390" />
    <use href="#cap" x="470" y="390" />
    <use href="#cap" x="610" y="390" />
    <use href="#cap" x="750" y="390" />
    <use href="#cap" x="330" y="530" />
    <use href="#cap" x="470" y="530" />
    <use href="#cap" x="610" y="530" />
    <use href="#cap" x="750" y="530" />
  </g>
  <rect x="470" y="530" width="120" height="112" rx="16" fill="#b55732" />
  <rect x="484" y="542" width="92" height="84" rx="12" fill="#c4623a" />
</svg>
