<svg
  xmlns="http://www.w3.org/2000/svg"
  viewBox="0 0 1200 900"
  role="img"
  aria-label="Ring Planter"
>
  <rect width="1200" height="900" fill="#f4f0e6" />
  <radialGradient id="g" cx="42%" cy="34%" r="70%">
    <stop offset="0" stop-color="#ffffff" stop-opacity="0.6" />
    <stop offset="1" stop-color="#f4f0e6" stop-opacity="0" />
  </radialGradient>
  <rect width="1200" height="900" fill="url(#g)" />
  <ellipse cx="600" cy="752" rx="220" ry="34" fill="#17130e" opacity="0.10" />
  <g fill="#708468" stroke="#5c6e55" stroke-width="3">
    <path
      d="M600 470 C600 360 560 300 520 250"
      fill="none"
      stroke-width="14"
      stroke-linecap="round"
    />
    <path
      d="M600 470 C600 380 650 320 690 280"
      fill="none"
      stroke-width="14"
      stroke-linecap="round"
    />
    <path
      d="M600 470 C600 410 600 360 600 300"
      fill="none"
      stroke-width="14"
      stroke-linecap="round"
    />
    <ellipse
      cx="520"
      cy="244"
      rx="40"
      ry="26"
      transform="rotate(-28 520 244)"
    />
    <ellipse cx="690" cy="274" rx="40" ry="26" transform="rotate(26 690 274)" />
    <ellipse cx="600" cy="296" rx="38" ry="24" />
  </g>
  <path d="M470 470 L730 470 L700 700 L500 700 Z" fill="#28313b" />
  <ellipse cx="600" cy="470" rx="130" ry="30" fill="#1c242c" />
  <ellipse cx="600" cy="470" rx="104" ry="22" fill="#3a4855" />
  <ellipse cx="600" cy="718" rx="150" ry="26" fill="#b55732" />
  <ellipse cx="600" cy="712" rx="150" ry="26" fill="#c4623a" />
</svg>
