<svg xmlns="http://www.w3.org/2000/svg" xmlns:xlink="http://www.w3.org/1999/xlink" style="isolation:isolate" viewBox="0 0 886 886" width="886pt" height="886pt"><defs><clipPath id="_clipPath_BV0xTwjrpdtpWhBnZmUH3xLbZr5SxisJ"><rect width="886" height="886"/></clipPath></defs><g clip-path="url(#_clipPath_BV0xTwjrpdtpWhBnZmUH3xLbZr5SxisJ)"><rect width="886" height="886" style="fill:rgb(0,0,0)" fill-opacity="0"/><path d=" M 385.607 420.053 C 395.143 438.895 414.695 451.812 437.24 451.812 C 469.187 451.812 495.124 425.876 495.124 393.929 C 495.124 361.982 469.187 336.045 437.24 336.045 C 415.288 336.045 396.173 348.292 386.4 366.345 L 336.749 338.936 C 356.208 303.436 393.934 279.358 437.24 279.358 C 500.474 279.358 551.811 330.695 551.811 393.929 C 551.811 457.162 500.474 508.5 437.24 508.5 C 392.614 508.5 353.914 482.931 335 445.657 L 385.607 420.053 L 385.607 420.053 Z " fill="rgb(90,120,110)"/><path d=" M 573.6 500 C 645.172 500.602 704.504 558.837 704.619 630.524 L 755.635 667.356 L 755.635 667.356 C 788.246 601.713 807 524.971 807 443 C 807 201.261 643.897 5 443 5 C 242.103 5 79 201.261 79 443 C 79 684.739 242.103 881 443 881 L 443 881 L 443 880.999 C 443.039 881 443.078 881 443.117 881 C 515.28 881 573.867 822.416 573.867 750.256 C 573.867 678.097 515.28 619.513 443.117 619.513 C 443.078 619.513 443.039 619.513 443 619.514 L 443 619.513 L 246.977 619.513 L 276 676.497 L 443 676.497 L 443 676.407 C 443.039 676.406 443.078 676.406 443.117 676.406 C 483.876 676.406 516.967 709.497 516.967 750.256 C 516.967 791.015 483.876 824.106 443.117 824.106 C 443.078 824.106 443.039 824.106 443 824.105 L 443 824.1 C 273.507 824.1 135.9 653.335 135.9 443 C 135.9 232.665 273.507 61.9 443 61.9 C 612.493 61.9 750.1 232.665 750.1 443 C 750.1 477.423 746.414 510.786 739.495 542.508 C 723.25 512.102 698.877 486.683 669.289 469.156 C 690.862 448.447 704.3 419.325 704.3 387.09 L 647.425 387.09 C 647.425 417.985 622.76 443.162 592.073 443.975 C 586.453 443.422 579.408 443.127 573.65 443.099 L 573.6 500 L 573.6 500 Z " fill="rgb(90,120,110)"/><path d=" M 501.219 425.886 C 543.431 404.572 572.4 360.804 572.4 310.324 C 572.4 238.906 514.418 180.924 443 180.924 C 394.021 180.924 351.361 208.195 329.411 248.381 L 279.442 221.132 C 311.049 163.268 372.475 124 443 124 C 545.835 124 629.324 207.489 629.324 310.324 C 629.324 383.011 587.611 446.033 526.835 476.733 L 526.835 476.733 L 526.835 476.733 L 501.219 425.886 L 501.219 425.886 L 501.219 425.886 C 501.134 425.933 501.047 425.976 500.96 426.02 L 501 426 L 501 426 L 500.96 426.02 L 221 568.859 L 246.977 619.513 L 526.835 476.733 L 526.835 476.733 L 526.835 476.733 L 501.219 425.886 Z " fill="rgb(90,120,110)"/></g></svg>