<?xml version="1.0" encoding="UTF-8" standalone="no"?><!-- Generator: Gravit.io --><svg xmlns="http://www.w3.org/2000/svg" xmlns:xlink="http://www.w3.org/1999/xlink" style="isolation:isolate" viewBox="0 0 738 886" width="738pt" height="886pt"><defs><clipPath id="_clipPath_UdNPzUqkjzxGcjMNSys4QorwHfaIax8m"><rect width="738" height="886"/></clipPath></defs><g clip-path="url(#_clipPath_UdNPzUqkjzxGcjMNSys4QorwHfaIax8m)"><rect width="738" height="886" style="fill:rgb(0,0,0)" fill-opacity="0"/><path d=" M 448.494 199.411 C 425.52 180.462 396.077 169.09 364 169.09 C 290.54 169.09 230.9 228.73 230.9 302.19 C 230.9 356.61 263.631 403.446 310.47 424.057 L 585.766 563.769 L 560.023 614.513 L 285.549 475.264 C 219.78 445.375 174 379.087 174 302.19 C 174 197.326 259.136 112.19 364 112.19 C 408.992 112.19 450.353 127.862 482.895 154.065 L 448.494 199.411 L 448.494 199.411 Z " fill="rgb(90,120,110)"/><path d=" M 466.253 438.877 C 448.279 474.325 412.216 499.328 369.714 501.184 C 306.993 503.922 253.848 455.224 251.11 392.503 C 248.372 329.783 297.07 276.638 359.79 273.9 C 388.601 272.642 415.392 282.238 436.198 299.068 L 401.892 344.489 C 391.311 335.324 377.343 330.038 362.27 330.696 C 330.91 332.065 306.561 358.649 307.931 390.023 C 309.301 421.397 335.873 445.757 367.234 444.388 C 388.483 443.46 406.513 430.956 415.471 413.211 L 466.253 438.877 L 466.253 438.877 Z " fill="rgb(90,120,110)"/><path d=" M 219.927 443.975 C 189.24 443.162 164.575 417.985 164.575 387.09 L 107.7 387.09 C 107.7 419.325 121.138 448.447 142.711 469.156 C 113.123 486.683 88.75 512.102 72.505 542.508 C 65.586 510.786 61.9 477.423 61.9 443 C 61.9 232.665 199.507 61.9 369 61.9 C 538.493 61.9 676.1 232.665 676.1 443 C 676.1 653.335 538.493 824.1 369 824.1 L 369 824.105 C 368.961 824.106 368.922 824.106 368.883 824.106 C 328.124 824.106 295.033 791.015 295.033 750.256 C 295.033 709.497 328.124 676.406 368.883 676.406 C 368.922 676.406 368.961 676.406 369 676.407 L 369 676.497 L 565.023 676.497 L 565.023 619.513 L 369 619.513 L 369 619.514 C 368.961 619.513 368.922 619.513 368.883 619.513 C 296.72 619.513 238.133 678.097 238.133 750.256 C 238.133 822.416 296.72 881 368.883 881 C 368.922 881 368.961 881 369 880.999 L 369 881 L 369 881 C 569.897 881 733 684.739 733 443 C 733 201.261 569.897 5 369 5 C 168.103 5 5 201.261 5 443 C 5 524.971 23.754 601.713 56.365 667.356 L 56.365 667.356 L 107.381 630.524 C 107.496 558.46 166.039 499.99 238.129 499.99 L 238.133 443.09 C 238.131 443.09 238.132 443.09 238.133 443.09 L 238.129 443.09 C 231.988 443.09 225.915 443.386 219.927 443.975 Z " fill-rule="evenodd" fill="rgb(90,120,110)"/></g></svg>