<?xml version="1.0" encoding="UTF-8" standalone="no"?><!-- Generator: Gravit.io --><svg xmlns="http://www.w3.org/2000/svg" xmlns:xlink="http://www.w3.org/1999/xlink" style="isolation:isolate" viewBox="0 0 122.2 122.2" width="122.2pt" height="122.2pt"><defs><clipPath id="_clipPath_It5Ga2jOjBETmaj8qW9KR8GvQeFEhukw"><rect width="122.2" height="122.2"/></clipPath></defs><g clip-path="url(#_clipPath_It5Ga2jOjBETmaj8qW9KR8GvQeFEhukw)"><clipPath id="_clipPath_7YBQkmAR5Pp3FrPuNNsTYq0IbE2VhRew"><rect x="0" y="0" width="122.2" height="122.2" transform="matrix(1,0,0,1,0,0)" fill="rgb(255,255,255)"/></clipPath><g clip-path="url(#_clipPath_7YBQkmAR5Pp3FrPuNNsTYq0IbE2VhRew)"><g><circle vector-effect="non-scaling-stroke" cx="61.10000000000001" cy="61.10000000000001" r="61.10000000000001" fill="rgb(244,67,54)"/><g style="opacity:0.2;"><linearGradient id="_lgradient_0" x1="0.0046759087854983394" y1="0.09546379637579927" x2="0.8152124727467203" y2="0.7957979594909954" gradientTransform="matrix(92.282,0,0,89.721,29.918,32.446)" gradientUnits="userSpaceOnUse"><stop offset="1.7391304347826086%" stop-opacity="1" style="stop-color:rgb(0,0,0)"/><stop offset="98.26086956521739%" stop-opacity="1" style="stop-color:rgb(243,67,54)"/></linearGradient><path d=" M 31.193 42.368 L 44.798 55.265 L 29.918 92.307 L 60.529 122.167 C 97.383 121.9 122.121 92.759 122.2 61 L 90.29 32.446 L 46.074 36.853 L 31.193 42.368 Z " fill="url(#_lgradient_0)"/></g><path d=" M 29.918 92.083 L 45.088 48.259 L 62.364 44.467 L 60.087 49.931 C 59.193 52.363 60.348 52.793 63.037 51.209 C 65.286 49.92 66.752 48.8 67.421 47.838 C 70.952 43.419 70.816 40.052 66.999 37.725 C 65.65 37.17 64.535 36.898 62.786 36.882 C 57.467 36.65 51.01 37.357 43.402 38.989 L 31.182 42.36 L 32.868 38.989 C 56.275 30.533 68.831 28.42 74.584 28.033 C 77.663 27.92 80.652 28.24 83.329 28.821 C 86.943 29.601 91.145 32.086 91.69 36.868 C 91.687 37.711 91.815 39.115 91.269 40.486 C 90.472 42.653 89.659 43.93 88.491 45.428 C 87.646 46.512 86.831 47.401 86.383 47.838 C 84.166 50.001 81.742 51.712 75.006 55.423 L 92.282 94.19 L 56.043 63.008 L 48.037 85.762 L 29.918 92.083 Z " fill="rgb(255,235,59)"/></g></g></g></svg>