<?xml version="1.0" encoding="UTF-8" standalone="no"?><!-- Generator: Gravit.io --><svg xmlns="http://www.w3.org/2000/svg" xmlns:xlink="http://www.w3.org/1999/xlink" style="isolation:isolate" viewBox="0 0 738 886" width="738pt" height="886pt"><defs><clipPath id="_clipPath_HrcaRFSya9SGz8e6yRjU61qvvVBZ4uoZ"><rect width="738" height="886"/></clipPath></defs><g clip-path="url(#_clipPath_HrcaRFSya9SGz8e6yRjU61qvvVBZ4uoZ)"><rect width="738" height="886" style="fill:rgb(0,0,0)" fill-opacity="0"/><path d=" M 427.015 419.722 C 417.443 438.635 397.818 451.6 375.189 451.6 C 343.122 451.6 317.089 425.566 317.089 393.5 C 317.089 361.434 343.122 335.4 375.189 335.4 C 397.223 335.4 416.41 347.693 426.219 365.813 L 476.056 338.301 C 456.524 302.669 418.657 278.5 375.189 278.5 C 311.718 278.5 260.189 330.03 260.189 393.5 C 260.189 456.97 311.718 508.5 375.189 508.5 C 419.981 508.5 458.827 482.836 477.811 445.422 L 427.015 419.722 L 427.015 419.722 Z " fill="rgb(90,120,110)"/><path d=" M 238.4 500 C 166.828 500.602 107.496 558.837 107.381 630.524 L 56.365 667.356 L 56.365 667.356 C 23.754 601.713 5 524.971 5 443 C 5 201.261 168.103 5 369 5 C 569.897 5 733 201.261 733 443 C 733 684.739 569.897 881 369 881 L 369 881 L 369 880.999 C 368.961 881 368.922 881 368.883 881 C 296.72 881 238.133 822.416 238.133 750.256 C 238.133 678.097 296.72 619.513 368.883 619.513 C 368.922 619.513 368.961 619.513 369 619.514 L 369 619.513 L 565.023 619.513 L 565.023 676.497 L 369 676.497 L 369 676.407 C 368.961 676.406 368.922 676.406 368.883 676.406 C 328.124 676.406 295.033 709.497 295.033 750.256 C 295.033 791.015 328.124 824.106 368.883 824.106 C 368.922 824.106 368.961 824.106 369 824.105 L 369 824.1 C 538.493 824.1 676.1 653.335 676.1 443 C 676.1 232.665 538.493 61.9 369 61.9 C 199.507 61.9 61.9 232.665 61.9 443 C 61.9 477.423 65.586 510.786 72.505 542.508 C 88.75 512.102 113.123 486.683 142.711 469.156 C 121.138 448.447 107.7 419.325 107.7 387.09 L 164.575 387.09 C 164.575 417.985 189.24 443.162 219.927 443.975 C 225.547 443.422 232.592 443.127 238.35 443.099 L 238.4 500 L 238.4 500 Z " fill="rgb(90,120,110)"/><path d=" M 310.781 425.886 C 268.569 404.572 239.6 360.804 239.6 310.324 C 239.6 238.906 297.582 180.924 369 180.924 C 417.979 180.924 460.639 208.195 482.589 248.381 L 532.558 221.132 C 500.951 163.268 439.525 124 369 124 C 266.165 124 182.676 207.489 182.676 310.324 C 182.676 383.011 224.389 446.033 285.165 476.733 L 285.165 476.733 L 285.165 476.733 L 310.781 425.886 L 310.781 425.886 L 310.781 425.886 C 310.866 425.933 310.953 425.976 311.04 426.02 L 311 426 L 311 426 L 311.04 426.02 L 591 568.859 L 565.023 619.513 L 285.165 476.733 L 285.165 476.733 L 285.165 476.733 L 310.781 425.886 Z " fill="rgb(90,120,110)"/></g></svg>