<svg width="96" height="96" viewBox="0 0 96 96" fill="none" xmlns="http://www.w3.org/2000/svg" role="img" aria-labelledby="logo-title">
  <title id="logo-title">RR3D Studio</title>
  <rect width="96" height="96" rx="18" fill="#17130E"/>
  <path d="M24 29.5 48 16l24 13.5v27L48 70 24 56.5v-27Z" fill="#F4F0E6"/>
  <path d="M48 16v27m0 27V43m0 0 24-13.5M48 43 24 29.5" stroke="#17130E" stroke-width="4" stroke-linejoin="round"/>
  <path d="M32 40h15.5c5.5 0 9.5 3.2 9.5 8.3 0 3.4-1.7 6-4.7 7.3L59 68H46.8l-5.6-10.8H40V68H32V40Zm8 7.2v3.7h6.3c1.5 0 2.4-.7 2.4-1.9 0-1.1-.9-1.8-2.4-1.8H40Z" fill="#B55732"/>
  <path d="M61.5 38h8v30h-8V38Z" fill="#708468"/>
  <path d="M24 74h48" stroke="#C8D860" stroke-width="5" stroke-linecap="round"/>
</svg>
