<?xml version="1.0" encoding="UTF-8" standalone="no"?><!-- Generator: Gravit.io --><svg xmlns="http://www.w3.org/2000/svg" xmlns:xlink="http://www.w3.org/1999/xlink" style="isolation:isolate" viewBox="0 0 118.9 125.9" width="118.9pt" height="125.9pt"><defs><clipPath id="_clipPath_OBABh2D4VzuzImIXW5b8xLZeB6Bap9u2"><rect width="118.9" height="125.9"/></clipPath></defs><g clip-path="url(#_clipPath_OBABh2D4VzuzImIXW5b8xLZeB6Bap9u2)"><g><path d=" M 118.874 20.505 L 59.122 0 L 59.122 125.9 L 109.198 98.012 L 118.874 20.505 Z " fill="rgb(166,18,13)"/><path d=" M 0.026 20.876 L 9.065 98.383 L 59.121 125.9 L 59.121 0 L 0.026 20.876 Z " fill="rgb(221,27,22)"/><path d=" M 73.943 66.619 L 59.122 73.55 L 43.5 73.55 L 36.156 91.917 L 22.498 92.171 L 59.122 10.694 L 73.943 66.619 Z  M 72.51 63.129 L 59.22 36.818 L 48.318 62.676 L 59.121 62.676 L 72.51 63.129 Z " fill="rgb(242,242,242)"/><path d=" M 59.121 10.694 L 59.219 36.818 L 71.589 62.696 L 59.148 62.696 L 59.121 73.533 L 76.324 73.55 L 84.363 92.173 L 97.432 92.415 L 59.121 10.694 Z " fill="rgb(242,242,242)"/></g></g></svg>