<?xml version="1.0" encoding="UTF-8" standalone="no"?><!-- Generator: Gravit.io --><svg xmlns="http://www.w3.org/2000/svg" xmlns:xlink="http://www.w3.org/1999/xlink" style="isolation:isolate" viewBox="0 0 118.9 125.9" width="118.9pt" height="125.9pt"><defs><clipPath id="_clipPath_81WyKuAsKdEcZVKDiSzqdA4XbAPW5T8s"><rect width="118.9" height="125.9"/></clipPath></defs><g clip-path="url(#_clipPath_81WyKuAsKdEcZVKDiSzqdA4XbAPW5T8s)"><path d=" M 48.311 62.974 L 71.591 62.974 L 59.216 37.097 L 48.311 62.974 Z  M 59.257 0 L 0 20.854 L 9.363 98.491 L 59.32 125.948 L 109.534 98.12 L 118.894 20.485 L 59.257 0 L 59.257 0 Z  M 43.491 73.974 L 36.226 92.15 L 22.645 92.206 L 59.253 11.127 L 59.183 10.974 L 59.119 10.974 L 59.12 10.841 L 59.183 10.974 L 59.324 10.974 L 59.447 10.7 L 59.447 10.974 L 59.323 10.974 L 59.254 11.127 L 97.443 92.544 L 84.369 92.257 L 76.327 73.677 L 59.154 73.759" fill="rgb(196,71,58)"/></g></svg>