<?xml version="1.0" encoding="UTF-8" standalone="no"?><!-- Generator: Gravit.io --><svg xmlns="http://www.w3.org/2000/svg" xmlns:xlink="http://www.w3.org/1999/xlink" style="isolation:isolate" viewBox="0 0 65.3 65.2" width="65.3pt" height="65.2pt"><defs><clipPath id="_clipPath_oKc1pXDoKiwNiFzI4VgX6ZRFGTmS6fg8"><rect width="65.3" height="65.2"/></clipPath></defs><g clip-path="url(#_clipPath_oKc1pXDoKiwNiFzI4VgX6ZRFGTmS6fg8)"><linearGradient id="_lgradient_0" x1="0.9968471602988074" y1="0.15813812836421548" x2="0.49080291371648077" y2="1.0346480095580204" gradientTransform="matrix(28.212,0,0,35.824,0.042,29.388)" gradientUnits="userSpaceOnUse"><stop offset="0%" stop-opacity="1" style="stop-color:rgb(0,82,204)"/><stop offset="92.30000000000001%" stop-opacity="1" style="stop-color:rgb(38,132,255)"/></linearGradient><path d=" M 19.398 30.117 C 19.004 29.601 18.369 29.329 17.723 29.399 C 17.077 29.469 16.515 29.871 16.241 30.46 L 0.244 62.444 C -0.052 63.037 -0.02 63.741 0.328 64.304 C 0.676 64.868 1.292 65.211 1.954 65.211 L 24.229 65.211 C 24.958 65.228 25.628 64.814 25.939 64.154 C 30.744 54.225 27.832 39.128 19.398 30.117 Z " fill="url(#_lgradient_0)"/><path d=" M 31.131 1.026 C 23.022 13.503 22.086 29.33 28.668 42.676 L 39.407 64.154 C 39.731 64.802 40.393 65.211 41.117 65.211 L 63.388 65.211 C 64.051 65.211 64.666 64.868 65.014 64.304 C 65.363 63.741 65.394 63.037 65.098 62.444 C 65.098 62.444 35.136 2.513 34.383 1.014 C 34.079 0.391 33.446 -0.003 32.753 0 C 32.061 0.003 31.43 0.401 31.131 1.026 Z " fill="rgb(38,132,255)"/></g></svg>