<?xml version="1.0" encoding="UTF-8" standalone="no"?><!-- Generator: Gravit.io --><svg xmlns="http://www.w3.org/2000/svg" xmlns:xlink="http://www.w3.org/1999/xlink" style="isolation:isolate" viewBox="0 0 107.9 122.4" width="107.9pt" height="122.4pt"><defs><clipPath id="_clipPath_GE8wuasBd1fG1x8VwEteoUTR41HEhT4K"><rect width="107.9" height="122.4"/></clipPath></defs><g clip-path="url(#_clipPath_GE8wuasBd1fG1x8VwEteoUTR41HEhT4K)"><g><path d=" M 53.952 0.001 L 53.952 0.003 L 53.952 0.001 C 24.804 0.001 0.945 7.846 0.945 17.587 C 0.945 20.152 7.309 56.94 9.832 71.529 C 10.964 78.071 27.865 87.665 53.933 87.665 L 53.952 87.587 L 53.952 87.665 C 80.185 87.665 96.933 78.071 98.065 71.527 C 100.589 56.938 106.955 20.151 106.955 17.586 C 106.956 7.846 83.1 0 53.952 0 L 53.952 0.001 Z  M 53.952 75.845 C 44.646 75.845 37.102 68.3 37.102 58.995 C 37.102 49.689 44.646 42.146 53.952 42.146 C 63.258 42.146 70.802 49.689 70.802 58.996 C 70.802 68.301 63.258 75.845 53.952 75.845 Z  M 53.942 23.022 C 35.194 22.993 20.001 19.734 20.007 15.745 C 20.013 11.754 35.218 8.545 53.966 8.576 C 72.713 8.605 87.907 11.862 87.9 15.853 C 87.895 19.843 72.692 23.05 53.943 23.021 L 53.942 23.022 Z " fill="rgb(32,80,129)"/><path d=" M 92.05 86.149 C 91.244 86.149 90.598 86.72 90.598 86.72 C 90.598 86.72 77.545 97.058 53.952 97.058 C 30.359 97.058 17.305 86.72 17.305 86.72 C 17.305 86.72 16.659 86.15 15.854 86.15 C 14.892 86.15 13.979 86.797 13.979 88.224 C 13.979 88.375 13.993 88.525 14.022 88.673 C 16.047 99.516 17.529 107.221 17.787 108.393 C 19.556 116.369 35.159 122.4 53.95 122.4 L 53.952 122.4 C 72.744 122.4 88.348 116.369 90.116 108.393 C 90.377 107.222 91.856 99.522 93.882 88.679 C 93.91 88.53 93.925 88.378 93.925 88.227 C 93.925 86.799 93.012 86.151 92.05 86.151 L 92.05 86.149 Z " fill="rgb(32,80,129)"/></g></g></svg>