<?xml version="1.0" encoding="UTF-8" standalone="no"?><!-- Generator: Gravit.io --><svg xmlns="http://www.w3.org/2000/svg" xmlns:xlink="http://www.w3.org/1999/xlink" style="isolation:isolate" viewBox="0 0 107.9 123.6" width="107.9pt" height="123.6pt"><defs><clipPath id="_clipPath_ttu9KJlOCjgtle8Kdgqdxa9QrPABs9cL"><rect width="107.9" height="123.6"/></clipPath></defs><g clip-path="url(#_clipPath_ttu9KJlOCjgtle8Kdgqdxa9QrPABs9cL)"><g><path d=" M 105.4 28.5 L 57.1 0.7 C 56.3 0.2 55.2 0 54 0 C 52.8 0 51.7 0.3 50.9 0.7 L 2.9 28.6 C 1.2 29.6 0 32.1 0 34 L 0 89.7 C 0 90.8 0.2 92.1 1 93.2 L 107.8 31.2 C 107.2 30 106.3 29.1 105.4 28.5 Z " fill="rgb(155,79,150)"/><path d=" M 0.7 93.1 C 1.2 93.9 1.9 94.6 2.6 95 L 50.8 122.9 C 51.6 123.4 52.7 123.6 53.9 123.6 C 55.1 123.6 56.2 123.3 57 122.9 L 105 95 C 106.7 94 107.9 91.5 107.9 89.6 L 107.9 33.9 C 107.9 33 107.8 32 107.3 31.1 L 0.7 93.1 L 0.7 93.1 Z " fill="rgb(104,33,122)"/><path d=" M 75.3 73.9 C 71.1 81.3 63.1 86.3 54 86.3 C 40.5 86.3 29.5 75.3 29.5 61.8 C 29.5 48.3 40.5 37.3 54 37.3 C 63.1 37.3 71.1 42.3 75.3 49.8 L 88.3 42.3 C 81.5 30.4 68.7 22.3 54 22.3 C 32.2 22.3 14.5 40 14.5 61.8 C 14.5 83.6 32.2 101.3 54 101.3 C 68.6 101.3 81.4 93.3 88.2 81.5 L 75.3 73.9 L 75.3 73.9 Z  M 87 64 L 87.9 59.7 L 83.7 59.7 L 83.7 55 L 88.8 55 L 90 48.8 L 94.9 48.8 L 93.7 54.9 L 97.5 54.9 L 98.7 48.8 L 103.5 48.8 L 102.3 54.9 L 104.7 54.9 L 104.7 59.6 L 101.4 59.6 L 100.5 63.9 L 104.7 63.9 L 104.7 68.6 L 99.6 68.6 L 98.4 74.6 L 93.5 74.6 L 94.7 68.6 L 90.9 68.6 L 89.7 74.6 L 84.9 74.6 L 86.1 68.6 L 83.7 68.6 L 83.7 63.9 L 87 63.9 L 87 64 Z  M 91.8 64 L 95.6 64 L 96.5 59.7 L 92.7 59.7 L 91.8 64 Z " fill="rgb(255,255,255)"/></g></g></svg>