<?xml version="1.0" encoding="UTF-8" standalone="no"?><!-- Generator: Gravit.io --><svg xmlns="http://www.w3.org/2000/svg" xmlns:xlink="http://www.w3.org/1999/xlink" style="isolation:isolate" viewBox="0 0 107.9 122.4" width="107.9pt" height="122.4pt"><defs><clipPath id="_clipPath_Yu9eBq69YqevgdZnYtYiCnZjxfwRPPrp"><rect width="107.9" height="122.4"/></clipPath></defs><g clip-path="url(#_clipPath_Yu9eBq69YqevgdZnYtYiCnZjxfwRPPrp)"><g><path d=" M 9.819 110.152 L 0 0.015 L 107.9 0.015 L 98.071 110.135 L 53.885 122.385 L 9.819 110.152 L 9.819 110.152 Z " fill="rgb(21,114,182)"/><path d=" M 53.951 113.022 L 89.656 103.123 L 98.056 9.019 L 53.951 9.019 L 53.951 113.022 Z " fill="rgb(51,169,220)"/><path d=" M 53.951 48.922 L 71.826 48.922 L 73.06 35.09 L 53.951 35.09 L 53.951 21.582 L 87.823 21.582 L 87.499 25.206 L 84.178 62.43 L 53.951 62.43 L 53.951 48.922 L 53.951 48.922 Z " fill="rgb(255,255,255)"/><path d=" M 54.031 84.003 L 53.971 84.021 L 38.928 79.959 L 37.966 69.186 L 24.408 69.186 L 26.3 90.395 L 53.97 98.075 L 54.031 98.057 L 54.031 84.003 L 54.031 84.003 Z " fill="rgb(235,235,235)"/><path d=" M 70.677 61.859 L 69.05 79.948 L 53.984 84.015 L 53.984 98.069 L 81.676 90.394 L 81.879 88.112 L 84.229 61.859 L 70.677 61.859 Z " fill="rgb(255,255,255)"/><path d=" M 53.997 21.582 L 53.997 35.09 L 21.369 35.09 L 21.099 32.054 L 20.483 25.206 L 20.16 21.582 L 53.997 21.582 Z  M 53.951 48.924 L 53.951 62.432 L 39.097 62.432 L 38.827 59.397 L 38.21 52.548 L 37.888 48.924 L 53.951 48.924 Z " fill="rgb(235,235,235)"/></g></g></svg>