<?xml version="1.0" encoding="UTF-8" standalone="no"?><!-- Generator: Gravit.io --><svg xmlns="http://www.w3.org/2000/svg" xmlns:xlink="http://www.w3.org/1999/xlink" style="isolation:isolate" viewBox="0 0 107.9 122.4" width="107.9pt" height="122.4pt"><defs><clipPath id="_clipPath_ErgzjdqPzp3NI2lgVOwB3bQ6ilMsC07M"><rect width="107.9" height="122.4"/></clipPath></defs><g clip-path="url(#_clipPath_ErgzjdqPzp3NI2lgVOwB3bQ6ilMsC07M)"><path d=" M 63.548 64.666 C 61.521 64.693 63.932 65.71 66.58 66.118 C 67.311 65.548 67.975 64.97 68.566 64.408 C 66.917 64.811 65.24 64.82 63.548 64.666 Z  M 74.434 61.953 C 75.641 60.286 76.523 58.461 76.832 56.574 C 76.561 57.918 75.831 59.08 75.143 60.306 C 71.353 62.693 74.787 58.889 75.141 57.443 C 71.066 62.573 74.581 60.519 74.434 61.953 M 78.453 51.497 C 78.698 47.844 77.733 48.999 77.409 50.392 C 77.786 50.59 78.087 52.967 78.453 51.497 Z  M 55.858 1.578 C 56.94 1.772 58.196 1.922 58.02 2.179 C 59.204 1.921 59.473 1.682 55.858 1.578 Z  M 58.02 2.18 L 57.255 2.338 L 57.967 2.275 L 58.02 2.18 Z  M 91.771 52.881 C 91.892 56.161 90.811 57.753 89.838 60.569 L 88.084 61.445 C 86.65 64.232 88.224 63.214 87.197 65.431 C 84.958 67.421 80.401 71.661 78.943 72.047 C 77.879 72.024 79.664 70.792 79.898 70.308 C 76.901 72.368 77.493 73.398 72.908 74.65 L 72.775 74.351 C 61.467 79.67 45.761 69.129 45.969 54.745 C 45.848 55.659 45.626 55.43 45.375 55.8 C 44.791 48.399 48.793 40.966 55.541 37.932 C 62.141 34.664 69.879 36.005 74.607 40.411 C 72.011 37.008 66.841 33.403 60.714 33.74 C 54.714 33.836 49.1 37.649 47.227 41.788 C 44.152 43.725 43.796 49.251 42.456 50.261 C 40.654 63.508 45.847 69.23 54.63 75.963 C 56.012 76.895 55.019 77.036 55.207 77.745 C 52.288 76.378 49.616 74.315 47.419 71.79 C 48.584 73.497 49.842 75.157 51.469 76.46 C 48.717 75.528 45.042 69.792 43.967 69.559 C 48.712 78.052 63.212 84.454 70.807 81.278 C 67.292 81.407 62.83 81.35 58.881 79.891 C 57.224 79.037 54.969 77.27 55.372 76.938 C 65.734 80.811 76.44 79.872 85.405 72.683 C 87.686 70.906 90.179 67.885 90.898 67.842 C 89.813 69.473 91.083 68.628 90.25 70.067 C 92.524 66.402 89.263 68.574 92.601 63.736 L 93.834 65.434 C 93.376 62.392 97.613 58.697 97.183 53.884 C 98.155 52.412 98.267 55.467 97.236 58.854 C 98.666 55.098 97.613 54.494 97.981 51.394 C 98.378 52.437 98.899 53.542 99.167 54.642 C 98.234 51.013 100.125 48.529 100.591 46.42 C 100.132 46.216 99.153 48.025 98.93 43.738 C 98.963 41.876 99.448 42.763 99.635 42.304 C 99.268 42.093 98.31 40.666 97.726 37.928 C 98.149 37.285 98.856 39.596 99.433 39.691 C 99.062 37.514 98.424 35.855 98.399 34.183 C 96.717 30.669 97.804 34.653 96.439 32.675 C 94.649 27.091 97.925 31.379 98.146 28.843 C 100.859 32.773 102.407 38.866 103.117 41.389 C 102.575 38.312 101.7 35.332 100.63 32.448 C 101.454 32.796 99.303 26.119 101.702 30.54 C 99.14 21.114 90.737 12.307 83.007 8.174 C 83.952 9.039 85.147 10.127 84.719 10.297 C 80.875 8.008 81.55 7.829 81 6.862 C 77.868 5.588 77.663 6.964 75.589 6.865 C 69.685 3.734 68.547 4.066 63.115 2.104 L 63.363 3.26 C 59.451 1.957 58.806 3.754 54.579 3.264 C 54.321 3.063 55.933 2.537 57.26 2.344 C 53.479 2.843 53.656 1.599 49.956 2.481 C 50.868 1.842 51.831 1.419 52.804 0.874 C 49.722 1.061 45.444 2.669 46.764 1.207 C 41.735 3.452 32.803 6.601 27.791 11.301 L 27.633 10.248 C 25.336 13.006 17.617 18.483 17.002 22.052 L 16.389 22.196 C 15.193 24.219 14.421 26.512 13.472 28.595 C 11.909 31.259 11.18 29.62 11.403 30.038 C 8.328 36.272 6.801 41.51 5.482 45.805 C 6.423 47.211 5.504 54.263 5.86 59.909 C 4.317 87.79 25.428 114.861 48.506 121.113 C 51.889 122.32 56.918 122.275 61.197 122.4 C 56.148 120.956 55.495 121.636 50.579 119.921 C 47.03 118.25 46.253 116.342 43.741 114.162 L 44.736 115.92 C 39.808 114.177 41.871 113.762 37.861 112.492 L 38.924 111.106 C 37.327 110.985 34.693 108.415 33.973 106.99 L 32.226 107.059 C 30.127 104.469 29.008 102.603 29.09 101.157 L 28.525 102.162 C 27.885 101.063 20.802 92.448 24.477 94.454 C 23.793 93.828 22.886 93.438 21.902 91.65 L 22.65 90.794 C 20.881 88.52 19.395 85.603 19.508 84.632 C 20.451 85.906 21.106 86.144 21.754 86.363 C 17.288 75.282 17.038 85.752 13.655 75.083 L 14.371 75.025 C 13.822 74.198 13.489 73.301 13.048 72.421 L 13.358 69.317 C 10.143 65.6 12.459 53.51 12.923 46.879 C 13.245 44.182 15.607 41.312 17.404 36.812 L 16.31 36.623 C 18.403 32.974 28.257 21.965 32.821 22.532 C 35.032 19.754 32.383 22.521 31.951 21.822 C 36.807 16.795 38.334 18.27 41.612 17.367 C 45.147 15.268 38.579 18.185 40.254 16.566 C 46.364 15.006 44.584 13.019 52.555 12.226 C 53.397 12.704 50.604 12.965 49.903 13.586 C 54.995 11.096 66.015 11.663 73.172 14.969 C 81.478 18.849 90.809 30.324 91.177 41.119 L 91.596 41.231 C 91.384 45.522 92.253 50.485 90.747 55.043 L 91.771 52.881 M 41.412 67.45 L 41.128 68.871 C 42.46 70.683 43.519 72.645 45.219 74.059 C 43.996 71.669 43.086 70.681 41.412 67.45 Z  M 44.562 67.326 C 43.857 66.545 43.439 65.606 42.972 64.671 C 43.419 66.315 44.335 67.728 45.186 69.166 L 44.562 67.326 M 100.322 55.206 L 100.023 55.954 C 99.478 59.834 98.298 63.673 96.489 67.234 C 98.488 63.478 99.779 59.369 100.322 55.206 Z  M 56.259 0.606 C 57.63 0.102 59.63 0.33 61.085 0 C 59.189 0.159 57.302 0.254 55.438 0.494 L 56.259 0.606 Z  M 8.118 26.204 C 8.434 29.129 5.916 30.264 8.674 28.336 C 10.153 25.007 8.097 27.418 8.118 26.204 Z  M 4.876 39.743 C 5.511 37.793 5.627 36.621 5.869 35.493 C 4.113 37.737 5.061 38.216 4.876 39.743 Z " fill="rgb(168,0,48)"/></g></svg>