<?xml version="1.0" encoding="UTF-8" standalone="no"?><!-- Generator: Gravit.io --><svg xmlns="http://www.w3.org/2000/svg" xmlns:xlink="http://www.w3.org/1999/xlink" style="isolation:isolate" viewBox="0 0 107.9 122.4" width="107.9pt" height="122.4pt"><defs><clipPath id="_clipPath_CshQlSNMxtkYgzzqSX3333OoCRRvGgfS"><rect width="107.9" height="122.4"/></clipPath></defs><g clip-path="url(#_clipPath_CshQlSNMxtkYgzzqSX3333OoCRRvGgfS)"><g><path d=" M 107.9 78.291 C 107.9 81.572 105.224 84.247 101.944 84.247 L 5.956 84.247 C 2.676 84.247 0 81.572 0 78.291 L 0 44.109 C 0 40.828 2.676 38.153 5.956 38.153 L 101.944 38.153 C 105.224 38.153 107.9 40.828 107.9 44.109 L 107.9 78.291 Z " fill="rgb(0,58,43)"/><path d=" M 18.559 45.317 L 23.738 45.317 L 23.738 68.969 C 21.148 69.487 19.163 69.659 17.091 69.659 C 10.876 69.659 7.596 66.811 7.596 61.459 C 7.596 56.28 11.049 52.827 16.401 52.827 C 17.264 52.827 17.868 52.913 18.645 53.086 L 18.645 45.317 L 18.559 45.317 Z  M 18.559 57.229 C 17.955 57.057 17.437 56.97 16.832 56.97 C 14.243 56.97 12.775 58.524 12.775 61.373 C 12.775 64.135 14.243 65.602 16.832 65.602 C 17.437 65.602 17.868 65.602 18.559 65.43 L 18.559 57.229 Z  M 31.852 53.259 L 31.852 65.084 C 31.852 69.141 31.593 71.127 30.644 72.853 C 29.78 74.493 28.745 75.529 26.5 76.651 L 21.753 74.407 C 23.997 73.371 25.119 72.422 25.81 70.954 C 26.5 69.487 26.759 67.76 26.759 63.358 L 26.759 53.259 L 31.852 53.259 L 31.852 53.259 Z  M 26.759 45.403 L 31.852 45.403 L 31.852 50.669 L 26.759 50.669 L 26.759 45.403 Z  M 34.96 54.381 C 37.204 53.345 39.362 52.827 41.693 52.827 C 44.282 52.827 46.009 53.518 46.785 54.899 C 47.217 55.676 47.39 56.625 47.39 58.783 L 47.39 69.141 C 45.059 69.487 42.21 69.746 40.052 69.746 C 35.736 69.746 33.837 68.278 33.837 64.912 C 33.837 61.286 36.427 59.646 42.642 59.128 L 42.642 58.006 C 42.642 57.057 42.21 56.711 40.916 56.711 C 39.017 56.711 36.859 57.229 34.873 58.265 L 34.873 54.381 L 34.96 54.381 Z  M 42.901 62.495 C 39.535 62.84 38.412 63.358 38.412 64.653 C 38.412 65.689 39.017 66.12 40.398 66.12 C 41.175 66.12 41.865 66.034 42.815 65.861 L 42.815 62.495 L 42.901 62.495 Z  M 49.893 54.035 C 52.914 53.259 55.417 52.913 57.921 52.913 C 60.51 52.913 62.409 53.518 63.532 54.64 C 64.567 55.762 64.913 56.97 64.913 59.474 L 64.913 69.487 L 59.82 69.487 L 59.82 59.646 C 59.82 57.661 59.129 56.97 57.316 56.97 C 56.626 56.97 56.022 57.057 54.986 57.316 L 54.986 69.487 L 49.893 69.487 L 49.893 54.035 L 49.893 54.035 Z  M 66.898 72.249 C 68.711 73.198 70.523 73.63 72.336 73.63 C 75.703 73.63 77.084 72.249 77.084 69.055 L 77.084 68.969 C 76.048 69.487 75.098 69.659 73.804 69.659 C 69.315 69.659 66.466 66.724 66.466 62.063 C 66.466 56.28 70.696 53 78.12 53 C 80.278 53 82.349 53.259 84.766 53.69 L 83.04 57.402 C 81.659 57.143 82.954 57.402 81.918 57.229 L 81.918 57.747 L 82.004 59.905 L 82.004 62.667 C 82.004 63.358 82.004 64.049 82.09 64.739 L 82.09 66.12 C 82.09 70.523 81.745 72.594 80.623 74.234 C 79.069 76.738 76.307 77.946 72.336 77.946 C 70.351 77.946 68.624 77.687 66.812 76.91 L 66.812 72.249 L 66.898 72.249 L 66.898 72.249 Z  M 77.084 57.057 L 76.566 57.057 C 75.53 57.057 74.408 57.316 73.631 57.747 C 72.422 58.438 71.732 59.733 71.732 61.459 C 71.732 64.049 73.027 65.516 75.271 65.516 C 75.962 65.516 76.566 65.343 77.17 65.171 L 77.17 57.057 L 77.084 57.057 Z  M 92.794 52.827 C 97.887 52.827 100.994 56.021 100.994 61.286 C 100.994 66.638 97.714 70.005 92.535 70.005 C 87.442 70.005 84.248 66.811 84.248 61.632 C 84.335 56.193 87.615 52.827 92.794 52.827 L 92.794 52.827 Z  M 92.708 65.775 C 94.693 65.775 95.815 64.135 95.815 61.286 C 95.815 58.524 94.693 56.798 92.708 56.798 C 90.722 56.798 89.514 58.438 89.514 61.286 C 89.6 64.221 90.722 65.775 92.708 65.775 Z " fill="rgb(255,255,255)"/></g></g></svg>