<?xml version="1.0" encoding="UTF-8" standalone="no"?><!-- Generator: Gravit.io --><svg xmlns="http://www.w3.org/2000/svg" xmlns:xlink="http://www.w3.org/1999/xlink" style="isolation:isolate" viewBox="0 0 107.9 122.4" width="107.9pt" height="122.4pt"><defs><clipPath id="_clipPath_gBp6LhE9CbjsC2Q8tVM2NDTXDwNrl3LP"><rect width="107.9" height="122.4"/></clipPath></defs><g clip-path="url(#_clipPath_gBp6LhE9CbjsC2Q8tVM2NDTXDwNrl3LP)"><path d=" M 106.518 50.75 C 102.805 48.591 97.882 48.332 93.737 49.541 C 93.219 45.05 90.282 41.164 86.828 38.401 L 85.446 37.278 L 84.237 38.66 C 81.905 41.337 81.214 45.828 81.56 49.282 C 81.819 51.787 82.596 54.377 84.151 56.45 C 82.942 57.141 81.646 58.091 80.437 58.523 C 78.019 59.386 75.342 60.25 72.751 60.25 L 66.965 60.25 L 66.965 48.073 L 55.738 48.073 L 55.738 26.483 L 42.784 26.483 L 42.784 36.846 L 21.193 36.846 L 21.193 48.073 L 9.966 48.073 L 9.966 60.164 L 0.294 60.164 L 0.121 61.459 C -0.311 66.986 0.38 72.341 2.712 77.436 L 3.662 79.336 L 3.748 79.509 C 10.571 91.081 22.489 95.917 35.529 95.917 C 60.747 95.917 81.56 84.604 91.06 60.855 C 97.45 61.2 104.014 59.3 107.123 53.168 L 107.9 51.614 L 106.518 50.75 L 106.518 50.75 Z  M 22.92 39.437 L 31.557 39.437 L 31.557 48.937 L 22.92 48.937 L 22.92 39.437 Z  M 34.234 77.609 C 34.234 79.077 33.025 80.286 31.557 80.286 C 30.088 80.286 28.879 79.077 28.879 77.609 C 28.879 76.141 30.088 74.931 31.557 74.931 C 33.025 75.018 34.234 76.141 34.234 77.609 Z  M 22.92 50.664 L 31.557 50.664 L 31.557 60.164 L 22.92 60.164 L 22.92 50.664 Z  M 11.694 50.664 L 21.193 50.664 L 21.193 60.164 L 11.694 60.164 L 11.694 50.664 Z  M 35.616 94.017 C 21.971 93.931 14.63 89.354 8.585 83.308 C 10.398 83.395 12.125 83.481 13.68 83.481 C 15.062 83.481 16.443 83.481 17.739 83.395 C 21.107 83.222 24.043 82.79 26.461 82.099 C 28.448 86.677 32.075 90.908 38.552 94.017 L 35.616 94.017 Z  M 42.784 60.164 L 33.284 60.164 L 33.284 50.664 L 42.784 50.664 L 42.784 60.164 Z  M 42.784 48.937 L 33.284 48.937 L 33.284 39.437 L 42.784 39.437 L 42.784 48.937 Z  M 54.011 60.164 L 44.511 60.164 L 44.511 50.664 L 54.011 50.664 L 54.011 60.164 Z  M 54.011 48.937 L 44.511 48.937 L 44.511 39.437 L 54.011 39.437 L 54.011 48.937 Z  M 54.011 37.71 L 44.511 37.71 L 44.511 28.21 L 54.011 28.21 L 54.011 37.71 Z  M 65.238 60.164 L 55.738 60.164 L 55.738 50.664 L 65.238 50.664 L 65.238 60.164 Z  M 32.248 75.881 C 32.075 75.795 31.816 75.709 31.557 75.709 C 30.52 75.709 29.657 76.572 29.657 77.609 C 29.657 78.645 30.52 79.509 31.557 79.509 C 32.593 79.509 33.457 78.645 33.457 77.609 C 33.457 77.35 33.37 77.09 33.284 76.918 C 33.111 77.177 32.938 77.35 32.593 77.35 C 32.161 77.35 31.816 77.004 31.816 76.572 C 31.902 76.227 32.075 75.968 32.248 75.881 Z " fill="rgb(0,170,218)"/></g></svg>