<?xml version="1.0" encoding="UTF-8" standalone="no"?><!-- Generator: Gravit.io --><svg xmlns="http://www.w3.org/2000/svg" xmlns:xlink="http://www.w3.org/1999/xlink" style="isolation:isolate" viewBox="0 0 122.2 122.2" width="122.2pt" height="122.2pt"><defs><clipPath id="_clipPath_WOwtzguyFJeJQfwNmnOdhBoSmk15vZVe"><rect width="122.2" height="122.2"/></clipPath></defs><g clip-path="url(#_clipPath_WOwtzguyFJeJQfwNmnOdhBoSmk15vZVe)"><path d=" M 61.1 123 L 0 123 L 0 50.7 L 61.1 0 L 61.1 123 L 61.1 123 Z " fill="rgb(255,80,35)"/><path d=" M 61.1 123 L 123 123 L 123 50.7 L 61.1 0 L 61.1 123 L 61.1 123 Z " fill="rgb(216,0,39)"/><path d=" M 61 50.7 L 122.2 50.7 L 61.1 101.4 L 61 101.317 L 61 50.7 L 61 50.7 Z " fill="rgb(162,0,29)"/><path d=" M 61 50.7 L 0 50.7 L 61 101.317 L 61 50.7 L 61 50.7 Z " fill="rgb(185,0,34)"/><path d=" M 61 101.3 L 61.114 101.4 L 103.6 66.141 L 103.6 18 L 61 18 L 61 101.3 Z " fill="rgb(201,200,202)"/><clipPath id="_clipPath_9IeTlYmfN41MfywXjMPffMT50WfO6Z3w"><path d=" M 61 101.3 L 61.114 101.4 L 103.6 66.141 L 103.6 18 L 61 18 L 61 101.3 Z " fill="rgb(201,200,202)"/></clipPath><g clip-path="url(#_clipPath_9IeTlYmfN41MfywXjMPffMT50WfO6Z3w)"><rect x="33.936" y="36" width="54.127" height="9" transform="matrix(1,0,0,1,0,0)" fill="rgb(226,226,231)"/><rect x="33.936" y="54" width="54.127" height="9" transform="matrix(1,0,0,1,0,0)" fill="rgb(226,226,231)"/></g><path d=" M 61.1 101.4 L 18.6 66.1 L 18.6 18 L 61.1 18 L 61.1 101.4 L 61.1 101.4 Z " fill="rgb(217,217,217)"/><clipPath id="_clipPath_37Eg580XeiiFo2fNsKgUQlh4Fcxjvzs4"><path d=" M 61.1 101.4 L 18.6 66.1 L 18.6 18 L 61.1 18 L 61.1 101.4 L 61.1 101.4 Z " fill="rgb(217,217,217)"/></clipPath><g clip-path="url(#_clipPath_37Eg580XeiiFo2fNsKgUQlh4Fcxjvzs4)"><rect x="34.1" y="36" width="54" height="9" transform="matrix(1,0,0,1,0,0)" fill="rgb(236,236,241)"/><rect x="34.1" y="54" width="54" height="9" transform="matrix(1,0,0,1,0,0)" fill="rgb(236,236,241)"/></g></g></svg>