<?xml version="1.0" encoding="UTF-8" standalone="no"?><!-- Generator: Gravit.io --><svg xmlns="http://www.w3.org/2000/svg" xmlns:xlink="http://www.w3.org/1999/xlink" style="isolation:isolate" viewBox="0 0 123.7 123.7" width="123.7pt" height="123.7pt"><defs><clipPath id="_clipPath_IM1S4joVyRnE9uEyK42Y8k2gtRJjo7sI"><rect width="123.7" height="123.7"/></clipPath></defs><g clip-path="url(#_clipPath_IM1S4joVyRnE9uEyK42Y8k2gtRJjo7sI)"><g><circle vector-effect="non-scaling-stroke" cx="62" cy="62.000000000000014" r="62" fill="rgb(39,59,122)"/><path d=" M 61 124 C 96.409 123.922 118.622 98.045 123 73 L 96 39 L 54.647 67.003 L 58.902 71.259 L 30 87 L 61 124 Z " fill="rgb(18,17,73)"/><linearGradient id="_lgradient_0" x1="2.299448964571127e-7" y1="0.5000150126620341" x2="0.7573199822996093" y2="0.5000150126620341" gradientTransform="matrix(70.3,0,0,51.8,26.858,36.1)" gradientUnits="userSpaceOnUse"><stop offset="0%" stop-opacity="1" style="stop-color:rgb(243,241,232)"/><stop offset="100%" stop-opacity="1" style="stop-color:rgb(227,224,208)"/></linearGradient><path d=" M 90.875 36.1 L 33.14 36.1 C 29.684 36.1 26.858 39.11 26.858 42.784 L 26.858 81.217 C 26.858 84.89 29.683 87.9 33.14 87.9 L 90.875 87.9 C 94.331 87.9 97.158 84.89 97.158 81.217 L 97.158 42.785 C 97.158 39.11 94.331 36.1 90.875 36.1 Z " fill="url(#_lgradient_0)"/><g><path d=" M 61.614 71.986 L 35.214 87.169 L 35.258 87.876 L 61.922 72.61 L 61.614 71.986 Z " fill="rgb(181,180,176)"/><path d=" M 91.534 42.144 L 74.618 55.979 L 61.922 72.611 L 87.737 87.877 L 90.996 87.877 C 93.336 87.877 95.386 86.509 96.485 84.489 L 94.299 69.067 L 91.534 42.144 Z " fill="rgb(181,180,176)"/></g><path d=" M 62.044 72.742 L 97.158 43.827 L 97.158 42.785 C 97.158 39.11 94.331 36.1 90.873 36.1 L 89.475 36.1 L 62.882 60.245 L 35.214 36.1 L 33.126 36.1 C 29.669 36.1 26.842 39.11 26.842 42.785 L 26.842 81.217 C 26.842 84.89 29.669 87.9 33.126 87.9 L 35.604 87.9 L 35.604 50.424 L 62.044 72.742 Z " fill="rgb(221,75,64)"/><path d=" M 97.158 81.198 L 97.158 43.827 L 87.658 51.659 L 87.658 87.877 L 90.884 87.877 C 94.335 87.877 97.158 84.869 97.158 81.198 Z " fill="rgb(164,48,38)"/></g></g></svg>