<svg aria-hidden="true" width="150" height="150" viewBox="0 0 100 100" fill="none" xmlns="http://www.w3.org/2000/svg" role="img" class="mt-8 w-full h-auto max-w-32 lg:max-w-36" alt="Fresh logo" id="lemon-top"><path d="M84 16c13 27 1 52-7 59 0 4-9 9-12 7-12 5-38-2-53-21-6-7 1-21 21-36 13-10 33-17 51-9Z" fill="#FFD80B"></path><path d="M18 63.002599284453495 C15 63.002599284453495 16 63.002599284453495 12 61L9 56C2 33 62 -3 80 12C103 27 44 56 29 58C27 58 25 59 24 61C20 63.002599284453495 21 63.002599284453495 18 63.002599284453495Z" fill="#fff"></path><path d="M69 15c15-1 9 10-6 19L44 44c-2 1-4-2-6 0l-3 6c-3 1-13 3-16 2-5-2-5-9 5-18l7-4c-1-2-1-2 2-5 3-2 19-10 29-11l1 2 6-1Z" fill="#FFED4E"></path><path d="M38 35c1-1 3-2 3-4l8-3c0 1-1 3 1 4-2 1-7 1-8 5-1-2-1-2-4-2Z" fill="#fff"></path></svg>
