<svg xmlns="http://www.w3.org/2000/svg" xmlns:xlink="http://www.w3.org/1999/xlink" style="isolation:isolate" viewBox="-0.987 3.668 123 114" width="123pt" height="114pt"><defs><clipPath id="_clipPath_xkjaU2qqdu8WT8w7MdPD3dZAil3Ku3Eh"><rect width="122" height="122"/></clipPath></defs><g clip-path="url(#_clipPath_xkjaU2qqdu8WT8w7MdPD3dZAil3Ku3Eh)"><g><path d=" M 113.361 15.989 C 132.861 56.489 114.861 93.989 102.861 104.489 C 102.861 110.489 89.361 117.989 84.861 114.989 C 66.861 122.489 27.861 111.989 5.361 83.489 C -3.639 72.989 6.861 51.989 36.861 29.489 C 56.361 14.489 86.361 3.989 113.361 15.989 Z " fill="rgb(255,216,11)"/><path d=" M 14.361 86.492 C 9.861 86.492 11.361 86.492 5.361 83.489 L 0.861 75.989 C -9.639 41.489 80.361 -12.511 107.361 9.989 C 141.861 32.489 53.361 75.989 30.861 78.989 C 27.861 78.989 24.861 80.489 23.361 83.489 C 17.361 86.492 18.861 86.492 14.361 86.492 Z " fill="rgb(255,255,255)" vector-effect="non-scaling-stroke" stroke-width="1" stroke="rgb(255,216,11)" stroke-linejoin="miter" stroke-linecap="butt" stroke-miterlimit="4"/><path d=" M 90.861 14.489 C 113.361 12.989 104.361 29.489 81.861 42.989 L 53.361 57.989 C 50.361 59.489 47.361 54.989 44.361 57.989 L 39.861 66.989 C 35.361 68.489 20.361 71.489 15.861 69.989 C 8.361 66.989 8.361 56.489 23.361 42.989 L 33.861 36.989 C 32.361 33.989 32.361 33.989 36.861 29.489 C 41.361 26.489 65.361 14.489 80.361 12.989 L 81.861 15.989 L 90.861 14.489 Z " fill="rgb(255,237,78)"/><path d=" M 44.361 44.489 C 45.861 42.989 48.861 41.489 48.861 38.489 L 60.861 33.989 C 60.861 35.489 59.361 38.489 62.361 39.989 C 59.361 41.489 51.861 41.489 50.361 47.489 C 48.861 44.489 48.861 44.489 44.361 44.489 Z " fill="rgb(255,255,255)"/></g></g></svg>
