<?xml version="1.0" encoding="UTF-8" standalone="no"?><!-- Generator: Gravit.io --><svg xmlns="http://www.w3.org/2000/svg" xmlns:xlink="http://www.w3.org/1999/xlink" style="isolation:isolate" viewBox="0 4.693 48 38.614" width="48pt" height="38.614pt"><g><path d=" M 30.458 15.326 L 31.922 15.326 L 36.094 11.155 L 36.299 9.385 C 31.44 5.097 24.71 3.622 18.502 5.483 C 12.294 7.344 7.487 12.278 5.79 18.531 C 6.255 18.341 6.77 18.31 7.254 18.443 L 15.599 17.068 C 15.599 17.068 16.023 16.365 16.243 16.409 C 19.955 12.334 26.201 11.859 30.487 15.326 L 30.458 15.326 Z " fill="rgb(234,67,53)"/><path d=" M 42.038 18.531 C 41.079 15.001 39.11 11.827 36.372 9.399 L 30.516 15.253 C 32.989 17.273 34.398 20.315 34.337 23.507 L 34.337 24.546 C 37.216 24.546 39.549 26.878 39.549 29.755 C 39.549 32.633 37.216 34.965 34.337 34.965 L 23.914 34.965 L 22.875 36.019 L 22.875 42.268 L 23.914 43.307 L 34.337 43.307 C 40.314 43.353 45.615 39.482 47.389 33.777 C 49.162 28.071 46.988 21.878 42.038 18.531 Z " fill="rgb(66,133,244)"/><path d=" M 13.476 43.248 L 23.899 43.248 L 23.899 34.907 L 13.476 34.907 C 12.733 34.907 11.999 34.747 11.324 34.438 L 9.86 34.892 L 5.659 39.063 L 5.293 40.526 C 7.649 42.305 10.524 43.261 13.476 43.248 Z " fill="rgb(52,168,83)"/><path d=" M 13.476 16.19 C 7.686 16.224 2.557 19.931 0.71 25.416 C -1.138 30.901 0.703 36.954 5.293 40.482 L 11.339 34.438 C 9.226 33.484 7.998 31.25 8.325 28.956 C 8.652 26.662 10.455 24.86 12.75 24.533 C 15.045 24.206 17.279 25.434 18.234 27.546 L 24.28 21.502 C 21.707 18.14 17.71 16.175 13.476 16.19 Z " fill="rgb(251,188,5)"/></g></svg>