<?xml version="1.0" encoding="UTF-8" standalone="no"?><!-- Generator: Gravit.io --><svg xmlns="http://www.w3.org/2000/svg" xmlns:xlink="http://www.w3.org/1999/xlink" style="isolation:isolate" viewBox="0 0 107.9 122.4" width="107.9pt" height="122.4pt"><defs><clipPath id="_clipPath_NQantTCNV9wvhpwtogROBt8m2T6W5VkU"><rect width="107.9" height="122.4"/></clipPath></defs><g clip-path="url(#_clipPath_NQantTCNV9wvhpwtogROBt8m2T6W5VkU)"><path d=" M 105.865 56.394 L 58.754 9.285 C 56.043 6.572 51.643 6.572 48.927 9.285 L 39.145 19.069 L 51.555 31.478 C 54.439 30.505 57.745 31.158 60.044 33.456 C 62.354 35.769 63.002 39.103 62.005 41.998 L 73.964 53.958 C 76.858 52.961 80.197 53.605 82.507 55.92 C 85.738 59.148 85.738 64.382 82.507 67.612 C 79.276 70.843 74.044 70.843 70.811 67.612 C 68.382 65.181 67.781 61.612 69.012 58.619 L 57.859 47.466 L 57.857 76.819 C 58.646 77.208 59.388 77.728 60.045 78.382 C 63.274 81.61 63.274 86.842 60.045 90.077 C 56.815 93.306 51.579 93.306 48.353 90.077 C 45.123 86.843 45.123 81.611 48.353 78.382 C 49.151 77.584 50.074 76.982 51.06 76.578 L 51.06 46.953 C 50.074 46.55 49.153 45.952 48.353 45.149 C 45.906 42.704 45.317 39.115 46.572 36.109 L 34.338 23.875 L 2.035 56.176 C -0.678 58.892 -0.678 63.292 2.035 66.006 L 49.147 113.115 C 51.86 115.828 56.258 115.828 58.975 113.115 L 105.865 66.225 C 108.578 63.51 108.578 59.107 105.865 56.394 Z " fill="rgb(243,79,41)"/></g></svg>