<?xml version="1.0" encoding="UTF-8" standalone="no"?><!-- Generator: Gravit.io --><svg xmlns="http://www.w3.org/2000/svg" xmlns:xlink="http://www.w3.org/1999/xlink" style="isolation:isolate" viewBox="0 0 122.2 122.2" width="122.2pt" height="122.2pt"><defs><clipPath id="_clipPath_rIBUAPMc8klNP3hEaySZSTIAVKVItEOr"><rect width="122.2" height="122.2"/></clipPath></defs><g clip-path="url(#_clipPath_rIBUAPMc8klNP3hEaySZSTIAVKVItEOr)"><clipPath id="_clipPath_VhUfaYt8bbNdSsqQf9Mi0vbo5c8oQCtW"><rect x="0" y="0" width="122.2" height="122.2" transform="matrix(1,0,0,1,0,0)" fill="rgb(255,255,255)"/></clipPath><g clip-path="url(#_clipPath_VhUfaYt8bbNdSsqQf9Mi0vbo5c8oQCtW)"><g><g><path d=" M 61 122.176 C 63.091 122.256 65.202 121.489 66.8 119.896 L 119.992 66.791 C 123.069 63.716 123.069 58.73 119.992 55.657 L 66.55 2.304 C 65.018 0.774 63.01 0.006 61 0.024 L 61 27.011 L 61 96.518 L 61 122.176 L 61 122.176 Z " fill="rgb(243,79,41)"/><path d=" M 60.9 96.518 C 63.43 96.641 65.993 95.729 67.925 93.804 C 71.594 90.14 71.594 84.215 67.925 80.559 C 67.179 79.819 66.336 79.23 65.439 78.789 L 65.442 45.546 L 78.114 58.177 C 76.715 61.567 77.398 65.609 80.158 68.362 C 83.831 72.021 89.776 72.021 93.447 68.362 C 97.118 64.704 97.118 58.776 93.447 55.12 C 90.822 52.498 87.028 51.769 83.74 52.898 L 70.152 39.353 C 71.285 36.074 70.549 32.298 67.924 29.679 C 65.99 27.752 63.428 26.846 60.9 27.011 L 60.9 96.518 L 60.9 96.518 Z " fill="rgb(235,235,235)"/><path d=" M 61.1 27.011 C 60.213 26.991 59.332 27.153 58.483 27.439 L 44.405 13.385 L 55.502 2.304 C 57.048 0.763 59.075 -0.006 61.1 0.024 L 61.1 27.011 L 61.1 96.518 L 61.1 122.176 C 59.158 122.142 57.233 121.375 55.752 119.896 L 2.308 66.543 C -0.769 63.469 -0.769 58.486 2.308 55.41 L 38.952 18.828 L 52.831 32.684 C 51.407 36.088 52.075 40.153 54.851 42.922 C 55.758 43.831 56.803 44.508 57.922 44.965 L 57.922 78.516 C 56.803 78.974 55.756 79.655 54.851 80.559 C 51.187 84.216 51.187 90.142 54.851 93.804 C 56.584 95.536 58.828 96.448 61.1 96.518 L 61.1 27.011 L 61.1 27.011 Z " fill="rgb(255,109,47)"/></g></g></g></g></svg>