<?xml version="1.0" encoding="UTF-8" standalone="no"?><!-- Generator: Gravit.io --><svg xmlns="http://www.w3.org/2000/svg" xmlns:xlink="http://www.w3.org/1999/xlink" style="isolation:isolate" viewBox="0 0 107.9 122.4" width="107.9pt" height="122.4pt"><defs><clipPath id="_clipPath_ULl0gevzcGOO8J0eEsG9VQPQHNbv9LZo"><rect width="107.9" height="122.4"/></clipPath></defs><g clip-path="url(#_clipPath_ULl0gevzcGOO8J0eEsG9VQPQHNbv9LZo)"><g><path d=" M 53.95 8.583 C 24.158 8.583 0 32.735 0 62.532 C 0 86.369 15.458 106.591 36.894 113.726 C 39.589 114.226 40.579 112.555 40.579 111.13 C 40.579 109.844 40.529 105.594 40.506 101.086 C 25.497 104.35 22.33 94.721 22.33 94.721 C 19.876 88.485 16.34 86.827 16.34 86.827 C 11.444 83.478 16.709 83.548 16.709 83.548 C 22.125 83.928 24.979 89.108 24.979 89.108 C 29.791 97.353 37.6 94.97 40.678 93.592 C 41.163 90.105 42.561 87.725 44.104 86.377 C 32.121 85.015 19.523 80.388 19.523 59.716 C 19.523 53.826 21.631 49.013 25.083 45.234 C 24.522 43.877 22.675 38.389 25.604 30.958 C 25.604 30.958 30.134 29.508 40.443 36.488 C 44.748 35.292 49.364 34.691 53.95 34.67 C 58.533 34.691 63.151 35.29 67.464 36.486 C 77.761 29.506 82.285 30.956 82.285 30.956 C 85.221 38.387 83.375 43.875 82.815 45.233 C 86.274 49.012 88.367 53.824 88.367 59.714 C 88.367 80.436 75.746 84.997 63.733 86.334 C 65.669 88.008 67.393 91.292 67.393 96.324 C 67.393 103.543 67.331 109.352 67.331 111.129 C 67.331 112.565 68.303 114.247 71.036 113.718 C 92.46 106.576 107.9 86.36 107.9 62.532 C 107.899 32.737 83.744 8.583 53.95 8.583 L 53.95 8.583 Z " fill-rule="evenodd" fill="rgb(0,0,0)"/><path d=" M 20.433 86.041 C 20.315 86.309 19.893 86.39 19.509 86.207 C 19.116 86.032 18.897 85.666 19.024 85.397 C 19.14 85.12 19.562 85.044 19.953 85.229 C 20.346 85.405 20.569 85.774 20.433 86.042 L 20.433 86.041 Z  M 22.619 88.48 C 22.362 88.718 21.859 88.607 21.518 88.229 C 21.164 87.854 21.098 87.351 21.36 87.109 C 21.626 86.871 22.114 86.984 22.468 87.359 C 22.82 87.74 22.889 88.238 22.62 88.48 L 22.619 88.48 Z  M 24.747 91.586 C 24.416 91.816 23.875 91.601 23.541 91.121 C 23.21 90.641 23.21 90.064 23.55 89.835 C 23.883 89.604 24.416 89.812 24.756 90.288 C 25.084 90.775 25.084 91.351 24.747 91.585 L 24.747 91.586 Z  M 27.66 94.588 C 27.365 94.915 26.734 94.827 26.273 94.383 C 25.803 93.948 25.671 93.329 25.967 93.004 C 26.267 92.677 26.901 92.768 27.364 93.209 C 27.835 93.643 27.977 94.263 27.662 94.588 L 27.66 94.588 Z  M 31.68 96.331 C 31.549 96.754 30.943 96.946 30.331 96.766 C 29.721 96.581 29.322 96.087 29.447 95.66 C 29.572 95.233 30.182 95.034 30.798 95.226 C 31.408 95.41 31.807 95.902 31.68 96.331 Z  M 36.096 96.654 C 36.111 97.099 35.593 97.467 34.953 97.476 C 34.307 97.491 33.784 97.13 33.778 96.692 C 33.778 96.243 34.285 95.879 34.93 95.867 C 35.571 95.855 36.097 96.213 36.097 96.653 L 36.096 96.654 Z  M 40.204 95.955 C 40.281 96.389 39.835 96.834 39.198 96.953 C 38.573 97.069 37.992 96.8 37.912 96.37 C 37.835 95.925 38.289 95.479 38.914 95.364 C 39.552 95.254 40.124 95.516 40.204 95.956 L 40.204 95.955 Z " fill="rgb(0,0,0)"/></g></g></svg>