<?xml version="1.0" encoding="UTF-8" standalone="no"?><!-- Generator: Gravit.io --><svg xmlns="http://www.w3.org/2000/svg" xmlns:xlink="http://www.w3.org/1999/xlink" style="isolation:isolate" viewBox="0 0 123.7 123.7" width="123.7pt" height="123.7pt"><defs><clipPath id="_clipPath_N46fQxw3l7BndcKjZIAejeKw6fIPLVCj"><rect width="123.7" height="123.7"/></clipPath></defs><g clip-path="url(#_clipPath_N46fQxw3l7BndcKjZIAejeKw6fIPLVCj)"><g><path d=" M 61.85 0 C 27.696 0 0 28.39 0 63.415 C 0 91.435 17.722 115.205 42.296 123.592 C 45.386 124.18 46.521 122.216 46.521 120.541 C 46.521 119.029 46.464 114.033 46.437 108.734 C 29.231 112.571 25.6 101.253 25.6 101.253 C 22.786 93.922 18.733 91.973 18.733 91.973 C 13.12 88.037 19.156 88.119 19.156 88.119 C 25.365 88.566 28.637 94.655 28.637 94.655 C 34.153 104.346 43.106 101.545 46.635 99.925 C 47.191 95.827 48.793 93.029 50.562 91.444 C 36.825 89.843 22.382 84.405 22.382 60.105 C 22.382 53.182 24.798 47.524 28.756 43.082 C 28.113 41.487 25.995 35.036 29.353 26.301 C 29.353 26.301 34.547 24.597 46.365 32.801 C 51.301 31.396 56.592 30.689 61.85 30.664 C 67.104 30.689 72.398 31.393 77.343 32.799 C 89.148 24.594 94.334 26.299 94.334 26.299 C 97.7 35.034 95.584 41.485 94.942 43.081 C 98.907 47.523 101.307 53.179 101.307 60.103 C 101.307 84.461 86.838 89.822 73.066 91.394 C 75.285 93.362 77.261 97.222 77.261 103.137 C 77.261 111.623 77.19 118.451 77.19 120.54 C 77.19 122.228 78.305 124.205 81.438 123.583 C 105.999 115.188 123.7 91.424 123.7 63.415 C 123.699 28.392 96.007 0 61.85 0 L 61.85 0 Z " fill-rule="evenodd" fill="rgb(0,0,0)"/><path d=" M 23.425 91.049 C 23.29 91.364 22.806 91.46 22.366 91.245 C 21.915 91.039 21.664 90.609 21.81 90.292 C 21.943 89.967 22.427 89.878 22.875 90.095 C 23.325 90.302 23.581 90.736 23.425 91.051 L 23.425 91.049 Z  M 25.931 93.916 C 25.637 94.196 25.06 94.066 24.669 93.621 C 24.263 93.181 24.187 92.589 24.488 92.305 C 24.793 92.025 25.352 92.158 25.758 92.599 C 26.162 93.047 26.241 93.632 25.932 93.916 L 25.931 93.916 Z  M 28.371 97.567 C 27.991 97.838 27.371 97.585 26.988 97.021 C 26.609 96.457 26.609 95.778 26.998 95.509 C 27.38 95.238 27.991 95.482 28.381 96.042 C 28.757 96.614 28.757 97.291 28.371 97.566 L 28.371 97.567 Z  M 31.71 101.096 C 31.372 101.481 30.649 101.377 30.12 100.855 C 29.581 100.344 29.43 99.616 29.769 99.234 C 30.113 98.85 30.84 98.957 31.371 99.475 C 31.911 99.985 32.074 100.714 31.713 101.096 L 31.71 101.096 Z  M 36.319 103.145 C 36.169 103.642 35.474 103.868 34.772 103.656 C 34.073 103.439 33.616 102.858 33.759 102.356 C 33.902 101.854 34.602 101.62 35.308 101.846 C 36.007 102.062 36.465 102.641 36.319 103.145 Z  M 41.382 103.525 C 41.399 104.048 40.805 104.48 40.071 104.491 C 39.331 104.509 38.731 104.084 38.724 103.569 C 38.724 103.042 39.305 102.614 40.045 102.6 C 40.78 102.586 41.383 103.006 41.383 103.524 L 41.382 103.525 Z  M 46.091 102.703 C 46.179 103.213 45.668 103.736 44.938 103.876 C 44.221 104.013 43.555 103.696 43.464 103.191 C 43.375 102.668 43.896 102.144 44.612 102.008 C 45.344 101.879 45.999 102.187 46.091 102.704 L 46.091 102.703 Z " fill="rgb(0,0,0)"/></g></g></svg>