<?xml version="1.0" encoding="UTF-8" standalone="no"?><!-- Generator: Gravit.io --><svg xmlns="http://www.w3.org/2000/svg" xmlns:xlink="http://www.w3.org/1999/xlink" style="isolation:isolate" viewBox="0 0 107.9 122.4" width="107.9pt" height="122.4pt"><defs><clipPath id="_clipPath_0LubVHVJ94RegECCzj0EoWjWnJ8qf5Gy"><rect width="107.9" height="122.4"/></clipPath></defs><g clip-path="url(#_clipPath_0LubVHVJ94RegECCzj0EoWjWnJ8qf5Gy)"><path d=" M 27.072 32.824 C 27.944 42.002 28.809 51.129 29.694 60.461 C 31.136 57.98 32.18 55.601 33.755 53.652 C 35.222 51.837 37.07 50.162 39.081 49.002 C 41.707 47.486 45.15 48.913 46.001 51.6 C 46.229 52.321 45.684 53.288 45.493 54.142 C 44.85 53.803 44.022 53.616 43.603 53.097 C 41.82 50.893 40.746 50.632 38.775 52.537 C 35.097 56.092 33.029 60.546 32.24 65.552 C 32.088 66.521 32.693 67.607 32.949 68.639 C 33.954 68.293 35.121 68.166 35.933 67.561 C 38.574 65.596 40.21 62.922 41.113 59.727 C 41.309 59.035 42.371 58.589 43.035 58.029 C 43.353 58.683 44.079 59.454 43.927 59.972 C 42.528 64.784 41.01 69.565 39.417 74.317 C 39.256 74.798 38.372 75.038 37.822 75.39 C 37.601 74.758 37.134 74.095 37.209 73.5 C 37.376 72.15 37.81 70.832 38.114 69.596 L 30.916 72.909 C 31.318 77.505 31.736 82.66 32.231 87.808 C 32.611 91.739 33.254 92.757 37.125 93.502 C 41.643 94.372 46.245 94.928 50.838 95.266 C 57.623 95.766 64.349 95.148 70.951 93.373 C 73.408 92.713 74.389 91.096 74.564 88.683 C 74.726 86.461 75.085 84.253 75.335 82.037 C 75.825 77.672 76.301 73.305 76.802 68.757 C 75.145 69.806 73.842 70.982 72.318 71.48 C 71.208 71.843 69.808 71.312 68.537 71.178 C 68.78 70.011 68.765 68.696 69.328 67.712 C 70.245 66.103 71.539 64.708 72.672 63.223 L 72.184 62.635 C 71.372 63.115 70.363 63.431 69.785 64.112 C 68.61 65.497 67.46 66.981 66.673 68.605 C 65.357 71.325 64.354 74.195 63.176 76.983 C 62.664 78.192 62.222 80.041 60.507 79.335 C 58.673 78.578 59.963 76.963 60.394 75.813 C 61.079 73.98 61.984 72.228 62.596 70.88 C 60.86 71.087 59.101 71.336 57.333 71.491 C 56.585 71.554 55.696 71.145 55.085 71.421 C 53.052 72.34 51.763 71.971 51.341 69.72 C 50.399 70.331 49.602 71.16 48.662 71.382 C 47.522 71.654 45.975 71.832 45.14 71.262 C 44.471 70.806 44.227 69.091 44.456 68.084 C 44.91 66.084 45.759 64.161 46.565 62.259 C 47.065 61.081 47.567 59.2 49.251 60.019 C 50.915 60.828 49.404 62.192 49.02 63.286 C 48.425 64.979 47.818 66.668 47.218 68.358 L 48.172 68.934 C 49.081 68.145 50.213 67.502 50.85 66.533 C 51.891 64.951 52.521 63.101 53.507 61.477 C 53.916 60.804 54.796 60.418 55.463 59.902 C 55.598 60.759 55.922 61.64 55.815 62.467 C 55.708 63.303 55.121 64.068 54.839 64.895 C 54.417 66.134 54.076 67.4 53.646 68.841 C 55.677 68.919 56.547 68.064 57.121 66.555 C 58.936 61.79 60.772 57.03 62.767 52.338 C 63.108 51.535 64.267 51.081 65.05 50.465 C 65.14 51.433 65.572 52.531 65.265 53.347 C 63.629 57.671 61.793 61.917 60.067 66.207 C 59.776 66.93 59.682 67.732 59.498 68.498 C 62.539 67.131 65.078 65.62 66.004 62.388 C 66.231 61.602 67.16 61.019 67.765 60.342 L 69.173 61.833 C 69.6 61.473 69.992 61.063 70.456 60.764 C 71.918 59.823 73.492 58.992 75.033 60.451 C 76.627 61.959 75.42 63.429 74.587 64.733 C 73.681 66.156 72.57 67.447 71.548 68.795 C 73.847 67.314 76.985 66.65 77.403 63.448 C 78.421 55.629 79.316 47.794 80.224 39.96 C 80.493 37.642 80.637 35.308 80.847 32.892 C 62.742 37.276 45.026 37.303 27.072 32.824 L 27.072 32.824 Z  M 34.843 93.837 C 35.715 96.141 37.039 98.404 37.386 100.808 C 38.119 105.925 38.305 111.12 38.824 116.272 C 38.899 117.022 39.385 118.053 39.992 118.384 C 48.92 123.235 57.934 124.076 67.043 118.77 C 68.402 117.979 68.654 116.934 68.83 115.465 C 69.682 108.325 67.785 100.752 72.349 94.029 C 59.568 97.2 47.093 97.298 34.843 93.837 L 34.843 93.837 Z  M 65.654 34.105 C 69.991 33.687 74.275 32.669 78.564 31.828 C 79.372 31.669 80.09 31.054 80.85 30.649 C 79.849 29.77 78.983 29.346 78.078 29.24 C 73.574 28.708 69.055 28.298 64.554 27.74 C 63.874 27.656 62.66 26.817 62.71 26.664 C 64.024 22.707 63.959 18.228 66.94 14.893 C 70.707 10.678 74.513 6.499 78.29 2.318 C 75.48 -0.704 75.442 -0.708 72.896 1.938 C 71.457 3.433 70.141 5.069 68.579 6.423 C 62.8 11.432 58.741 17.365 57.949 25.186 C 57.767 26.981 56.782 27.629 54.898 27.657 C 48.678 27.747 42.451 27.918 36.246 28.327 C 33.17 28.529 30.133 29.318 27.078 29.841 L 27.05 30.983 C 28.962 31.573 30.837 32.348 32.79 32.722 C 43.67 34.808 54.653 35.166 65.654 34.105 L 65.654 34.105 Z  M 62.179 31.373 C 59.716 33.362 57.681 33.362 55.715 31.373 L 62.179 31.373 Z " fill-rule="evenodd" fill="rgb(235,74,75)"/></g></svg>