<?xml version="1.0" encoding="UTF-8" standalone="no"?><!-- Generator: Gravit.io --><svg xmlns="http://www.w3.org/2000/svg" xmlns:xlink="http://www.w3.org/1999/xlink" style="isolation:isolate" viewBox="0 0 107.9 122.4" width="107.9pt" height="122.4pt"><defs><clipPath id="_clipPath_8HphwcSYjo8HUqHXL9PrulfC77h2rGDy"><rect width="107.9" height="122.4"/></clipPath></defs><g clip-path="url(#_clipPath_8HphwcSYjo8HUqHXL9PrulfC77h2rGDy)"><g><path d=" M 9.82 110.752 L 0 0.616 L 107.9 0.616 L 98.069 110.736 L 53.884 122.984 L 9.82 110.752 Z " fill="rgb(228,77,38)"/><path d=" M 53.95 113.622 L 89.654 103.723 L 98.055 9.621 L 53.95 9.621 L 53.95 113.622 Z " fill="rgb(241,101,41)"/><path d=" M 53.95 50.469 L 36.075 50.469 L 34.841 36.636 L 53.95 36.636 L 53.95 23.129 L 20.078 23.129 L 20.402 26.752 L 23.721 63.977 L 53.95 63.977 L 53.95 50.469 Z  M 53.95 85.55 L 53.89 85.567 L 38.847 81.503 L 37.886 70.731 L 24.325 70.731 L 26.217 91.94 L 53.888 99.621 L 53.95 99.605 L 53.95 85.55 Z " fill="rgb(235,235,235)"/><path d=" M 53.903 50.469 L 53.903 63.977 L 70.536 63.977 L 68.969 81.495 L 53.903 85.562 L 53.903 99.615 L 81.595 91.94 L 81.799 89.658 L 84.973 54.096 L 85.301 50.469 L 81.662 50.469 L 53.903 50.469 Z  M 53.903 23.129 L 53.903 36.636 L 86.531 36.636 L 86.802 33.601 L 87.418 26.752 L 87.741 23.129 L 53.903 23.129 Z " fill="rgb(255,255,255)"/></g></g></svg>