<?xml version="1.0" encoding="UTF-8" standalone="no"?><!-- Generator: Gravit.io --><svg xmlns="http://www.w3.org/2000/svg" xmlns:xlink="http://www.w3.org/1999/xlink" style="isolation:isolate" viewBox="0 0 107.9 122.4" width="107.9pt" height="122.4pt"><defs><clipPath id="_clipPath_mtw8iM3VqHAUjLtTqT55nKbLkCwZsxis"><rect width="107.9" height="122.4"/></clipPath></defs><g clip-path="url(#_clipPath_mtw8iM3VqHAUjLtTqT55nKbLkCwZsxis)"><path d=" M 40.219 65.481 L 53.38 65.481 C 51.115 57.775 48.883 50.651 46.688 43.411 C 44.558 50.677 42.397 57.775 40.219 65.481 Z  M 105.427 7.257 L 1.619 7.257 C -0.253 7.257 0.015 7.665 0.015 9.471 L 0.015 113.412 C 0.015 115.216 -0.253 115.142 1.487 115.142 L 105.559 115.142 C 107.298 115.142 107.9 115.216 107.9 113.411 L 107.9 9.602 C 107.9 7.665 107.299 7.257 105.427 7.257 L 105.427 7.257 Z  M 65.344 88.599 C 63.942 88.599 62.535 88.485 61.14 88.585 C 60.134 88.661 59.798 88.238 59.53 87.365 C 58.233 83.142 56.856 78.922 55.559 74.701 C 55.297 73.851 54.924 73.542 54.004 73.553 C 49.275 73.607 44.543 73.602 39.813 73.547 C 38.818 73.535 38.359 73.8 38.075 74.788 C 36.871 78.987 35.554 83.152 34.338 87.347 C 34.074 88.256 33.673 88.574 32.707 88.549 C 29.867 88.478 27.021 88.521 23.911 88.521 C 24.732 85.914 25.477 83.503 26.247 81.102 C 30.968 66.375 35.706 51.648 40.393 36.911 C 40.72 35.885 41.175 35.569 42.228 35.592 C 45.555 35.666 48.885 35.611 52.214 35.592 C 52.837 35.588 53.261 35.625 53.489 36.332 C 59.059 53.556 64.648 70.886 70.233 88.109 C 70.257 88.186 70.241 88.599 70.254 88.599 L 65.344 88.599 L 65.344 88.599 Z  M 83.069 88.599 L 72.795 88.599 L 72.795 50.069 L 83.069 50.069 L 83.069 88.599 Z  M 77.632 44.871 C 74.494 44.866 72.247 42.706 72.226 39.673 C 72.205 36.649 74.544 34.4 77.711 34.396 C 80.903 34.393 83.152 36.569 83.177 39.68 C 83.199 42.715 80.894 44.876 77.632 44.871 L 77.632 44.871 Z " fill-rule="evenodd" fill="rgb(250,166,37)"/></g></svg>