<?xml version="1.0" encoding="UTF-8" standalone="no"?><!-- Generator: Gravit.io --><svg xmlns="http://www.w3.org/2000/svg" xmlns:xlink="http://www.w3.org/1999/xlink" style="isolation:isolate" viewBox="0 0 123.6 123.6" width="123.6pt" height="123.6pt"><defs><clipPath id="_clipPath_Mp2R1m0R1b81FokPTgSLykvDCaIPwJou"><rect width="123.6" height="123.6"/></clipPath></defs><g clip-path="url(#_clipPath_Mp2R1m0R1b81FokPTgSLykvDCaIPwJou)"><g><path d="M 5 0 L 118.6 0 C 121.36 0 123.6 2.24 123.6 5 L 123.6 118.6 C 123.6 121.36 121.36 123.6 118.6 123.6 L 5 123.6 C 2.24 123.6 0 121.36 0 118.6 L 0 5 C 0 2.24 2.24 0 5 0 Z" style="stroke:none;fill:#F0DB4F;stroke-miterlimit:10;"/><path d=" M 113.484 94.121 C 112.579 88.482 108.902 83.746 98.011 79.33 C 94.227 77.591 90.009 76.346 88.752 73.479 C 88.306 71.81 88.247 70.87 88.529 69.86 C 89.34 66.582 93.253 65.56 96.354 66.5 C 98.351 67.17 100.242 68.709 101.382 71.164 C 106.716 67.711 106.705 67.733 110.429 65.36 C 109.066 63.246 108.338 62.27 107.446 61.366 C 104.238 57.783 99.867 55.938 92.876 56.079 L 89.235 56.55 C 85.746 57.432 82.421 59.263 80.471 61.719 C 74.62 68.357 76.288 79.976 83.408 84.758 C 90.422 90.023 100.726 91.22 102.042 96.143 C 103.323 102.17 97.613 104.121 91.938 103.428 C 87.755 102.558 85.429 100.432 82.914 96.567 C 78.286 99.245 78.286 99.245 73.527 101.982 C 74.655 104.45 75.841 105.566 77.733 107.704 C 86.686 116.785 109.091 116.339 113.109 102.593 C 113.272 102.121 114.354 98.974 113.484 94.121 L 113.484 94.121 Z  M 67.193 56.807 L 55.632 56.807 L 55.585 86.695 C 55.585 93.052 55.913 98.879 54.88 100.665 C 53.188 104.178 48.806 103.743 46.808 103.061 C 44.775 102.062 43.742 100.641 42.544 98.633 C 42.215 98.057 41.968 97.61 41.885 97.576 L 32.486 103.332 C 34.049 106.54 36.351 109.324 39.301 111.133 C 43.706 113.777 49.627 114.588 55.82 113.166 C 59.85 111.992 63.327 109.56 65.148 105.859 C 67.78 101.006 67.216 95.132 67.192 88.635 C 67.251 78.036 67.193 67.439 67.193 56.807 Z " fill="rgb(50,51,48)"/></g></g></svg>