<?xml version="1.0" encoding="UTF-8" standalone="no"?><!-- Generator: Gravit.io --><svg xmlns="http://www.w3.org/2000/svg" xmlns:xlink="http://www.w3.org/1999/xlink" style="isolation:isolate" viewBox="0 0 122.2 122.2" width="122.2pt" height="122.2pt"><defs><clipPath id="_clipPath_vi96We7lesD1VWxfxhTAVSpxZxHc0GeT"><rect width="122.2" height="122.2"/></clipPath></defs><g clip-path="url(#_clipPath_vi96We7lesD1VWxfxhTAVSpxZxHc0GeT)"><clipPath id="_clipPath_8n0svn6zaQwu9wKCQ7RnbwBOdOlSK4iN"><path d=" M 61 122.2 L 0 122.2 L 0 0 L 61 0" fill="rgb(255,255,255)"/></clipPath><g clip-path="url(#_clipPath_8n0svn6zaQwu9wKCQ7RnbwBOdOlSK4iN)"><g><g><path d=" M 4.943 0 L 117.257 0 C 119.985 0 122.2 2.215 122.2 4.943 L 122.2 117.257 C 122.2 119.985 119.985 122.2 117.257 122.2 L 4.943 122.2 C 2.215 122.2 0 119.985 0 117.257 L 0 4.943 C 0 2.215 2.215 0 4.943 0 Z " fill="rgb(240,219,79)"/><path d=" M 112.199 93.055 C 111.304 87.48 107.668 82.797 96.901 78.431 C 93.16 76.712 88.989 75.481 87.747 72.647 C 87.306 70.997 87.247 70.067 87.526 69.069 C 88.328 65.828 92.197 64.817 95.263 65.747 C 97.237 66.409 99.107 67.931 100.234 70.358 C 105.507 66.944 105.496 66.966 109.178 64.62 C 107.831 62.53 107.111 61.565 106.229 60.671 C 103.057 57.129 98.736 55.304 91.824 55.444 L 88.224 55.909 C 84.775 56.781 81.487 58.592 79.56 61.02 C 73.775 67.583 75.424 79.07 82.463 83.798 C 89.398 89.003 99.585 90.187 100.886 95.054 C 102.153 101.013 96.507 102.942 90.897 102.256 C 86.761 101.396 84.461 99.294 81.975 95.473 C 77.399 98.121 77.399 98.121 72.694 100.827 C 73.809 103.267 74.982 104.37 76.853 106.484 C 85.704 115.462 107.855 115.021 111.828 101.431 C 111.989 100.964 113.059 97.853 112.199 93.055 L 112.199 93.055 Z  M 66.432 56.164 L 55.002 56.164 L 54.955 85.713 C 54.955 91.998 55.28 97.759 54.258 99.525 C 52.586 102.998 48.253 102.568 46.278 101.894 C 44.268 100.906 43.247 99.501 42.062 97.516 C 41.737 96.946 41.493 96.504 41.411 96.471 L 32.118 102.162 C 33.663 105.333 35.939 108.086 38.856 109.874 C 43.211 112.488 49.065 113.29 55.188 111.884 C 59.172 110.723 62.61 108.319 64.41 104.66 C 67.012 99.862 66.455 94.054 66.431 87.631 C 66.489 77.152 66.432 66.675 66.432 56.164 Z " fill="rgb(79,81,77)"/></g></g></g><clipPath id="_clipPath_l0X4mnOiGC9I1Q9kMBGTm3ZG0cW7DF8u"><path d=" M 61 0 L 122.2 0 L 122.2 122.2 L 61 122.2" fill="rgb(255,255,255)"/></clipPath><g clip-path="url(#_clipPath_l0X4mnOiGC9I1Q9kMBGTm3ZG0cW7DF8u)"><g><g><path d=" M 4.943 0 L 117.257 0 C 119.985 0 122.2 2.215 122.2 4.943 L 122.2 117.257 C 122.2 119.985 119.985 122.2 117.257 122.2 L 4.943 122.2 C 2.215 122.2 0 119.985 0 117.257 L 0 4.943 C 0 2.215 2.215 0 4.943 0 Z " fill="rgb(219,199,74)"/><path d=" M 112.199 93.055 C 111.304 87.48 107.668 82.797 96.901 78.431 C 93.16 76.712 88.989 75.481 87.747 72.647 C 87.306 70.997 87.247 70.067 87.526 69.069 C 88.328 65.828 92.197 64.817 95.263 65.747 C 97.237 66.409 99.107 67.931 100.234 70.358 C 105.507 66.944 105.496 66.966 109.178 64.62 C 107.831 62.53 107.111 61.565 106.229 60.671 C 103.057 57.129 98.736 55.304 91.824 55.444 L 88.224 55.909 C 84.775 56.781 81.487 58.592 79.56 61.02 C 73.775 67.583 75.424 79.07 82.463 83.798 C 89.398 89.003 99.585 90.187 100.886 95.054 C 102.153 101.013 96.507 102.942 90.897 102.256 C 86.761 101.396 84.461 99.294 81.975 95.473 C 77.399 98.121 77.399 98.121 72.694 100.827 C 73.809 103.267 74.982 104.37 76.853 106.484 C 85.704 115.462 107.855 115.021 111.828 101.431 C 111.989 100.964 113.059 97.853 112.199 93.055 L 112.199 93.055 Z  M 66.432 56.164 L 55.002 56.164 L 54.955 85.713 C 54.955 91.998 55.28 97.759 54.258 99.525 C 52.586 102.998 48.253 102.568 46.278 101.894 C 44.268 100.906 43.247 99.501 42.062 97.516 C 41.737 96.946 41.493 96.504 41.411 96.471 L 32.118 102.162 C 33.663 105.333 35.939 108.086 38.856 109.874 C 43.211 112.488 49.065 113.29 55.188 111.884 C 59.172 110.723 62.61 108.319 64.41 104.66 C 67.012 99.862 66.455 94.054 66.431 87.631 C 66.489 77.152 66.432 66.675 66.432 56.164 Z " fill="rgb(50,51,48)"/></g></g></g></g></svg>