<?xml version="1.0" encoding="UTF-8" standalone="no"?><!-- Generator: Gravit.io --><svg xmlns="http://www.w3.org/2000/svg" xmlns:xlink="http://www.w3.org/1999/xlink" style="isolation:isolate" viewBox="0 0 107.9 122.4" width="107.9pt" height="122.4pt"><defs><clipPath id="_clipPath_QapTBkf4RpcVNrniKFakUfSS60W0kMaP"><rect width="107.9" height="122.4"/></clipPath></defs><g clip-path="url(#_clipPath_QapTBkf4RpcVNrniKFakUfSS60W0kMaP)"><path d=" M 6.852 33.64 C -2.701 47.369 -1.512 65.234 5.786 79.824 C 5.959 80.174 6.141 80.517 6.32 80.861 L 6.662 81.519 L 6.875 81.897 L 7.255 82.578 C 7.482 82.977 7.714 83.375 7.951 83.773 L 8.349 84.427 C 8.612 84.853 8.882 85.273 9.157 85.692 L 9.502 86.224 C 9.882 86.791 10.271 87.358 10.673 87.914 L 10.707 87.957 L 10.904 88.224 C 11.251 88.703 11.609 89.176 11.971 89.643 L 12.373 90.154 C 12.696 90.561 13.024 90.964 13.359 91.366 L 13.736 91.817 C 14.184 92.345 14.642 92.871 15.109 93.386 L 15.138 93.415 L 15.191 93.474 C 15.647 93.972 16.114 94.458 16.587 94.945 L 17.035 95.396 C 17.401 95.765 17.774 96.128 18.15 96.49 L 18.606 96.923 C 19.108 97.396 19.616 97.861 20.134 98.315 L 20.158 98.334 L 20.424 98.561 C 20.881 98.956 21.345 99.348 21.813 99.733 L 22.388 100.191 C 22.77 100.497 23.156 100.799 23.545 101.095 L 24.163 101.565 C 24.593 101.881 25.025 102.192 25.462 102.496 L 25.935 102.832 L 26.065 102.924 C 26.479 103.209 26.902 103.484 27.326 103.758 L 27.871 104.122 C 28.521 104.533 29.179 104.939 29.845 105.331 L 30.391 105.639 C 30.88 105.921 31.373 106.198 31.872 106.47 C 32.142 106.615 32.42 106.753 32.692 106.892 C 33.044 107.077 33.394 107.264 33.753 107.443 L 33.998 107.562 L 34.432 107.771 C 34.987 108.036 35.546 108.297 36.112 108.548 L 36.467 108.708 C 37.115 108.991 37.768 109.263 38.427 109.523 L 38.905 109.711 C 39.514 109.945 40.133 110.178 40.754 110.396 L 40.986 110.476 C 41.668 110.715 42.355 110.936 43.048 111.151 L 43.546 111.3 C 44.251 111.512 44.949 111.766 45.675 111.9 C 91.876 120.326 105.296 84.137 105.296 84.137 C 94.025 98.821 74.018 102.695 55.062 98.382 C 54.344 98.22 53.648 97.996 52.947 97.789 L 52.419 97.629 C 51.735 97.419 51.057 97.198 50.382 96.966 L 50.102 96.865 C 49.498 96.652 48.901 96.428 48.306 96.199 L 47.802 96 C 47.151 95.743 46.503 95.474 45.863 95.194 L 45.475 95.022 C 44.925 94.773 44.381 94.522 43.839 94.261 L 43.366 94.034 C 42.941 93.827 42.52 93.607 42.101 93.39 C 41.82 93.242 41.534 93.103 41.256 92.949 C 40.743 92.674 40.241 92.389 39.74 92.098 L 39.228 91.812 C 38.562 91.421 37.904 91.015 37.253 90.602 L 36.72 90.247 C 36.248 89.943 35.778 89.633 35.314 89.313 L 34.862 88.995 C 34.415 88.679 33.973 88.359 33.534 88.034 L 32.945 87.589 C 32.543 87.281 32.142 86.971 31.747 86.652 L 31.212 86.223 C 30.708 85.808 30.211 85.392 29.719 84.964 L 29.555 84.827 C 29.023 84.36 28.502 83.881 27.986 83.4 L 27.543 82.975 C 27.161 82.611 26.785 82.245 26.415 81.869 L 25.974 81.428 C 25.503 80.946 25.042 80.459 24.589 79.964 L 24.521 79.891 C 24.043 79.368 23.575 78.834 23.117 78.294 L 22.75 77.857 C 22.408 77.446 22.07 77.029 21.739 76.608 L 21.369 76.148 C 20.971 75.631 20.583 75.118 20.202 74.594 C 9.678 60.238 5.897 40.439 14.308 24.179 M 36.507 22.071 C 29.598 32.013 29.974 45.323 35.363 55.837 C 36.266 57.6 37.282 59.31 38.419 60.938 C 39.454 62.422 40.601 64.187 41.975 65.379 C 42.473 65.927 42.994 66.462 43.526 66.988 L 43.934 67.391 C 44.451 67.891 44.975 68.383 45.518 68.861 L 45.582 68.917 L 45.597 68.933 C 46.198 69.459 46.817 69.964 47.447 70.463 L 47.867 70.79 C 48.498 71.275 49.142 71.749 49.801 72.203 L 49.857 72.246 C 50.148 72.447 50.445 72.634 50.74 72.828 L 51.158 73.104 C 51.629 73.406 52.107 73.701 52.592 73.983 L 52.795 74.101 C 53.214 74.342 53.637 74.579 54.063 74.809 L 54.514 75.044 C 54.807 75.197 55.101 75.354 55.4 75.503 L 55.534 75.564 C 56.143 75.864 56.757 76.153 57.384 76.426 L 57.793 76.594 C 58.295 76.807 58.801 77.015 59.309 77.209 L 59.959 77.447 C 60.42 77.618 60.884 77.774 61.35 77.931 L 61.98 78.133 C 62.645 78.339 63.301 78.6 63.993 78.715 C 99.664 84.625 107.9 57.16 107.9 57.16 C 100.477 67.851 86.1 72.952 70.76 68.97 C 70.078 68.79 69.407 68.596 68.739 68.386 L 68.132 68.189 C 67.657 68.036 67.186 67.873 66.719 67.703 L 66.081 67.465 C 65.569 67.268 65.063 67.065 64.56 66.852 L 64.151 66.679 C 63.521 66.405 62.901 66.116 62.29 65.813 C 61.976 65.66 61.667 65.498 61.357 65.339 L 60.818 65.062 C 60.421 64.847 60.026 64.623 59.637 64.395 L 59.355 64.234 C 58.871 63.953 58.396 63.662 57.925 63.361 L 57.493 63.074 C 57.182 62.873 56.872 62.668 56.567 62.461 C 55.91 62.007 55.27 61.533 54.639 61.051 L 54.205 60.709 C 47.491 55.408 42.167 48.162 39.637 39.946 C 36.985 31.427 37.557 21.862 42.152 14.1 M 61.448 13.429 C 57.376 19.422 56.975 26.866 59.802 33.485 C 62.782 40.513 68.889 46.024 76.016 48.639 C 76.31 48.747 76.605 48.844 76.902 48.946 L 77.292 49.07 C 77.712 49.201 78.129 49.355 78.563 49.437 C 98.26 53.243 103.602 39.33 105.023 37.281 C 100.344 44.019 92.48 45.636 82.83 43.294 C 82.067 43.109 81.23 42.834 80.495 42.573 C 79.553 42.237 78.624 41.854 77.723 41.422 C 76.009 40.598 74.376 39.6 72.862 38.456 C 64.227 31.904 58.863 19.406 64.497 9.228" fill="rgb(8,104,172)"/></g></svg>