<?xml version="1.0" encoding="UTF-8" standalone="no"?><!-- Generator: Gravit.io --><svg xmlns="http://www.w3.org/2000/svg" xmlns:xlink="http://www.w3.org/1999/xlink" style="isolation:isolate" viewBox="0 0 107.9 122.4" width="107.9pt" height="122.4pt"><defs><clipPath id="_clipPath_AWblXNrKw5spe5otBPrcI0eaBSoeStvf"><rect width="107.9" height="122.4"/></clipPath></defs><g clip-path="url(#_clipPath_AWblXNrKw5spe5otBPrcI0eaBSoeStvf)"><g><path d=" M 9.82 110.168 L 0 0.03 L 107.9 0.03 L 98.071 110.15 L 53.884 122.4 L 9.82 110.168 Z " fill="rgb(212,184,48)"/><path d=" M 53.951 113.037 L 89.655 103.138 L 98.055 9.035 L 53.951 9.035 L 53.951 113.037 L 53.951 113.037 Z " fill="rgb(253,216,60)"/><g><path d=" M 90.862 48.938 L 71.825 48.938 L 71.825 35.105 L 92.065 35.105 L 93.263 21.597 L 57.702 21.597 L 57.702 62.445 L 76.118 62.445 L 74.491 79.964 L 57.702 83.02 L 57.702 97.102 L 87.118 90.409 L 90.862 48.938 Z " fill="rgb(255,255,255)"/><path d=" M 50.322 21.597 L 20.159 21.597 L 21.412 35.111 L 36.763 35.111 L 36.763 81.074 L 29.239 79.973 L 28.277 69.2 C 28.277 69.2 19.238 69.2 14.718 69.2 L 16.61 90.409 C 50.322 97.102 16.738 90.404 50.322 97.102 L 50.322 21.597 Z " fill="rgb(235,235,235)"/></g></g></g></svg>