<?xml version="1.0" encoding="UTF-8" standalone="no"?><!-- Generator: Gravit.io --><svg xmlns="http://www.w3.org/2000/svg" xmlns:xlink="http://www.w3.org/1999/xlink" style="isolation:isolate" viewBox="0 0 107.9 122.4" width="107.9pt" height="122.4pt"><defs><clipPath id="_clipPath_N0rehBFKPOsPKpZpF26en7Gw0fClDgk6"><rect width="107.9" height="122.4"/></clipPath></defs><g clip-path="url(#_clipPath_N0rehBFKPOsPKpZpF26en7Gw0fClDgk6)"><g><path d=" M 13.639 7.581 C 12.675 7.656 11.727 7.644 10.793 7.9 C 8.75 8.461 6.934 9.357 5.333 10.739 C 4.391 11.55 3.569 12.425 2.872 13.455 C 1.795 15.047 1.061 16.757 0.693 18.682 C 0.841 18.94 0.996 19.21 1.16 19.485 C 2.203 21.229 3.248 22.962 4.294 24.705 L 7.043 29.277 C 7.889 30.686 8.733 32.095 9.577 33.504 L 13.521 40.085 C 14.417 41.581 15.314 43.078 16.211 44.574 C 17.519 46.752 18.829 48.929 20.134 51.108 L 24.936 59.13 C 26.32 61.44 27.706 63.749 29.093 66.057 L 29.278 66.326 C 29.479 66.39 29.639 66.335 29.805 66.296 C 31.632 65.858 33.459 65.422 35.285 64.986 C 38.248 64.278 41.21 63.572 44.173 62.864 L 48.813 61.753 C 51.808 61.038 54.804 60.324 57.799 59.607 C 60.827 58.882 63.854 58.155 66.882 57.43 C 68.413 57.063 69.943 56.697 71.475 56.332 C 74.437 55.625 77.4 54.919 80.362 54.214 L 90.042 51.909 L 90.565 51.768 L 90.422 51.484 L 87.78 47.75 L 85.171 44.057 L 82.381 40.116 L 79.713 36.338 L 77.07 32.605 L 74.341 28.748 C 73.45 27.489 72.557 26.233 71.665 24.975 L 70.256 22.984 C 70.04 22.679 69.868 22.349 69.753 21.992 C 69.474 21.127 69.793 20.551 70.298 20.125 C 70.625 19.849 71.001 19.646 71.409 19.526 C 71.976 19.359 72.549 19.199 73.129 19.09 C 74.292 18.87 75.463 18.683 76.631 18.489 L 80.589 17.843 C 81.424 17.705 82.257 17.561 83.092 17.419 C 84.226 17.228 85.36 17.035 86.495 16.846 C 87.597 16.661 88.699 16.478 89.8 16.296 L 93.407 15.707 L 95.909 15.286 C 96.861 15.127 97.812 14.969 98.763 14.813 C 99.95 14.62 101.135 14.424 102.322 14.239 C 103.029 14.128 103.736 14.09 104.438 14.292 C 104.964 14.443 105.443 14.69 105.889 15.005 L 106.506 15.435 C 106.568 15.293 106.479 15.216 106.438 15.135 C 105.548 13.333 104.334 11.784 102.792 10.494 C 101.358 9.294 99.748 8.411 97.967 7.849 C 96.915 7.516 95.834 7.671 94.733 7.588 M 46.813 114.819 C 46.76 114.819 46.713 114.434 46.653 114.332 C 45.369 112.141 44.071 109.789 42.803 107.59 C 41.204 104.818 39.621 102.038 38.046 99.252 C 36.364 96.275 34.696 93.29 33.027 90.306 C 31.44 87.469 29.858 84.63 28.277 81.79 C 27.323 80.074 26.375 78.354 25.421 76.637 L 25.168 76.244 L 24.704 76.336 C 23.786 76.573 22.87 76.812 21.954 77.053 C 20.679 77.389 19.404 77.73 18.128 78.063 C 15.263 78.809 12.398 79.55 9.533 80.293 C 6.619 81.05 3.583 81.808 0.669 82.561 C 0.491 82.607 0.856 82.622 0 82.652 L 0 100.752 C 0.353 101.313 0.319 101.049 0.342 101.234 C 0.409 101.77 0.519 102.31 0.613 102.841 C 0.966 104.818 1.759 106.628 2.906 108.277 C 4.588 110.696 6.828 112.425 9.572 113.483 C 10.553 113.86 11.575 114.125 12.621 114.253 L 13.684 114.534" fill-rule="evenodd" fill="rgb(253,79,49)"/><path d=" M 3.403 72.655 C 6.775 71.853 10.148 71.052 13.519 70.252 C 15 69.901 16.482 69.554 17.963 69.201 C 18.703 69.025 19.445 68.857 20.18 68.659 C 20.834 68.482 20.914 68.266 20.578 67.676 C 20.092 66.823 19.597 65.976 19.105 65.126 L 14.77 57.662 L 10.437 50.197 C 8.967 47.665 7.496 45.133 6.025 42.602 C 4.766 40.436 3.507 38.27 2.249 36.105 C 1.704 35.168 1.043 34.229 0.496 33.294 C 0.395 33.123 0.856 32.92 0 32.829 L 0 73.399 C 0 73.372 0.388 73.349 0.519 73.317 L 3.403 72.655 Z  M 107.19 101.654 C 105.868 102.124 104.545 102.597 103.225 103.071 C 100.216 104.149 97.207 105.228 94.198 106.307 C 92.527 106.907 90.858 107.514 89.186 108.112 C 85.777 109.328 82.367 110.54 78.958 111.754 C 76.982 112.458 75.005 113.327 73.031 114.034 C 72.49 114.229 71.956 114.819 71.421 114.819 L 94.096 114.819 L 94.584 114.539 C 95.16 114.514 95.728 114.343 96.295 114.24 C 98.622 113.814 100.706 112.808 102.553 111.336 C 103.971 110.205 105.125 108.823 106.029 107.246 C 106.958 105.623 107.511 103.868 107.776 102.024 C 107.799 101.865 107.849 101.684 107.715 101.52 C 107.527 101.505 107.361 101.593 107.19 101.654 L 107.19 101.654 Z  M 105.242 71.206 C 104.242 69.838 103.24 68.473 102.242 67.104 C 100.865 65.215 99.49 63.324 98.114 61.434 C 97.555 60.667 96.989 59.906 96.444 59.131 C 96.279 58.897 96.092 58.834 95.836 58.904 L 95.689 58.946 C 93.157 59.561 90.625 60.175 88.092 60.789 L 83.553 61.89 C 80.594 62.609 77.634 63.328 74.675 64.047 C 71.748 64.758 68.822 65.47 65.894 66.18 L 56.768 68.39 C 53.775 69.117 50.783 69.846 47.79 70.573 L 39.109 72.681 C 37.579 73.052 36.05 73.422 34.522 73.795 C 34.297 73.85 34.054 73.864 33.815 74.045 L 34.019 74.435 C 35.301 76.648 36.582 78.861 37.867 81.073 C 39.321 83.578 40.776 86.081 42.235 88.583 C 43.839 91.334 45.448 94.082 47.054 96.832 C 47.978 98.411 48.895 99.992 49.827 101.567 C 50.862 103.316 51.9 105.063 52.954 106.801 C 53.27 107.321 53.628 107.817 53.989 108.307 C 54.232 108.634 54.531 108.913 54.885 109.126 C 55.249 109.346 55.642 109.415 56.057 109.322 C 56.271 109.273 56.48 109.203 56.687 109.131 L 57.449 108.849 C 60.22 107.901 62.99 106.954 65.762 106.009 C 67.924 105.273 70.089 104.541 72.253 103.809 C 74.4 103.08 76.55 102.355 78.698 101.63 L 85.096 99.47 C 87.277 98.733 89.457 97.996 91.637 97.257 C 94.313 96.349 96.988 95.437 99.665 94.531 C 102.246 93.658 104.83 92.79 107.411 91.918 C 107.57 91.865 107.744 91.843 107.875 91.669 L 107.891 91.293 C 107.892 85.939 107.891 80.584 107.897 75.23 C 107.897 74.944 107.82 74.713 107.649 74.483 C 106.838 73.396 106.043 72.299 105.242 71.206 L 105.242 71.206 Z  M 104.798 20.756 C 104.197 19.995 103.432 19.754 102.494 19.999 C 102.085 20.106 101.666 20.173 101.25 20.249 C 99.885 20.499 98.519 20.745 97.155 20.992 C 95.157 21.355 93.16 21.722 91.162 22.081 C 89.58 22.365 87.998 22.645 86.415 22.923 L 80.065 24.034 C 79.799 24.08 79.53 24.126 79.273 24.208 C 78.899 24.328 78.791 24.563 78.963 24.914 C 79.102 25.202 79.276 25.477 79.464 25.735 C 80.777 27.545 82.096 29.35 83.416 31.156 C 85.234 33.646 87.053 36.136 88.872 38.624 C 90.411 40.73 91.951 42.835 93.491 44.94 C 94.702 46.594 95.912 48.248 97.124 49.901 L 97.363 50.19 L 107.867 47.594 L 107.891 47.049 C 107.892 39.764 107.891 32.479 107.897 25.193 C 107.897 24.871 107.819 24.612 107.616 24.357 C 106.732 23.242 105.865 22.114 104.991 20.991 L 104.798 20.756 L 104.798 20.756 Z  M 107.624 56.058 C 106.035 56.439 104.44 56.802 102.813 57.233 C 102.985 57.539 107.448 63.563 107.707 63.849 L 107.87 63.939 L 107.888 63.571 L 107.889 61.035 C 107.89 59.564 107.893 58.092 107.89 56.621 C 107.89 56.442 107.94 56.249 107.817 56.068 L 107.624 56.058 L 107.624 56.058 Z " fill-rule="evenodd" fill="rgb(253,79,49)"/></g></g></svg>