<?xml version="1.0" encoding="UTF-8" standalone="no"?><!-- Generator: Gravit.io --><svg xmlns="http://www.w3.org/2000/svg" xmlns:xlink="http://www.w3.org/1999/xlink" style="isolation:isolate" viewBox="0 0 122.2 122.2" width="122.2pt" height="122.2pt"><defs><clipPath id="_clipPath_UB0pL6QpfHnZwpdVzTcV4QAHdZd2Mjti"><rect width="122.2" height="122.2"/></clipPath></defs><g clip-path="url(#_clipPath_UB0pL6QpfHnZwpdVzTcV4QAHdZd2Mjti)"><g><path d=" M 56.528 23 L 53.528 17 L 49.528 16 L 45.528 18 L 44.528 23 L 46.528 32 L 45.528 40 L 44.528 45 L 39.528 52 L 32.528 67 L 30.528 87 L 45.528 99 L 39.528 104 L 44.528 110 L 51.528 113 L 59.528 113 L 59.528 41 L 56.528 23 Z " fill="rgb(236,236,241)"/><path d=" M 62.528 16 L 58.528 19 L 57.528 23 L 59.528 29 L 59.528 112 L 67.528 110 L 76.528 105 L 81.528 100 L 81.528 92 L 86.528 86 L 86.528 72 L 82.528 59 L 76.528 45 L 71.528 35 L 74.528 22 L 72.528 17 L 69.528 16 L 62.528 16 Z " fill="rgb(226,226,231)"/><path d=" M 59.526 110.344 L 59.526 115.898 C 58.178 115.847 56.83 115.834 55.481 115.835 C 51.778 115.839 48.35 116.923 45.637 119.694 C 43.038 122.348 39.8 122.822 36.573 121.457 C 28.994 118.25 21.005 116.571 13.081 114.603 C 9.647 113.751 9.276 112.785 9.639 109.23 C 9.98 105.914 10.019 102.546 9.919 99.209 C 9.798 95.11 9.994 94.387 13.97 93.796 C 19.025 93.046 21.682 89.608 24.036 85.701 C 24.31 85.248 24.172 84.382 23.947 83.819 C 23.078 81.646 23.217 79.52 24.441 77.62 C 27.744 72.493 29.647 66.783 31.717 61.12 C 32.477 59.042 33.565 57.033 34.794 55.189 C 36.946 51.964 39.168 48.761 41.652 45.792 C 44.235 42.704 44.835 39.345 44.547 35.452 C 44.042 28.583 43.699 21.689 43.625 14.804 C 43.547 7.65 47.72 2.521 54.621 0.716 C 56.269 0.285 57.905 0.049 59.526 0.012 L 59.526 21.22 C 59.526 21.22 59.526 21.22 59.526 21.22 L 59.526 21.22 C 59.048 22.858 59.051 24.269 59.526 25.414 L 59.526 43.044 C 56.462 44.071 53.6 43.269 50.632 40.594 C 49.511 39.584 48.35 38.62 47.209 37.635 L 46.502 37.987 C 46.502 39.268 46.434 40.554 46.518 41.83 C 46.664 44.101 45.849 45.916 44.53 47.77 C 43.158 49.703 42.187 51.956 41.252 54.158 C 39.442 58.426 37.945 62.834 36.013 67.043 C 33.847 71.76 32.781 76.608 32.875 81.79 C 32.915 83.95 33.552 85.655 35.22 86.978 C 37.177 88.529 39.157 90.052 41.111 91.607 C 43.132 93.216 45.234 94.742 47.118 96.499 C 49.611 98.821 49.027 101.506 45.905 102.776 C 45.198 103.063 44.473 103.307 43.493 103.67 C 45.694 107.262 48.42 109.8 52.59 110.309 C 55.004 110.603 57.318 110.621 59.526 110.344 L 59.526 110.344 Z  M 46.776 18.969 C 48.05 17.041 49.973 16.655 51.877 17.945 C 53.906 19.321 55.424 23.201 54.64 25.521 C 54.355 26.365 53.513 27.021 52.924 27.762 L 52.32 27.388 C 52.09 26.135 52.044 24.803 51.563 23.655 C 51.259 22.927 50.306 22.471 49.644 21.893 C 49.022 22.632 47.951 23.336 47.887 24.121 C 47.799 25.205 48.364 26.401 48.856 27.452 C 49.167 28.113 49.857 28.597 50.569 29.368 L 48.647 30.878 C 45.629 28.178 44.732 22.058 46.776 18.969 Z " fill-rule="evenodd" fill="rgb(56,73,73)"/><path d=" M 59.526 110.344 L 59.526 115.898 C 64.464 115.949 69.402 116.148 74.341 116.204 C 76.043 116.224 77.02 116.857 77.705 118.403 C 78.545 120.296 79.965 121.687 82.15 121.929 C 86.343 122.391 90.163 121.769 93.34 118.57 C 97.258 114.622 101.776 111.504 106.955 109.343 C 108.437 108.724 109.833 107.751 111.058 106.695 C 113.289 104.773 113.171 103.549 110.923 101.695 C 109.128 100.217 107.294 98.774 105.615 97.17 C 103.745 95.385 102.57 93.226 102.826 90.492 C 102.973 88.919 102.61 87.566 100.713 87.04 C 101.159 85.886 101.577 85.112 101.746 84.287 C 101.934 83.367 101.924 82.4 101.95 81.453 C 102.214 71.493 98.616 62.762 93.287 54.618 C 90.833 50.87 88.27 47.189 85.654 43.552 C 81.562 37.864 80.095 31.474 80.021 24.571 C 79.985 21.405 79.611 18.191 78.94 15.096 C 77.627 9.056 74.391 4.333 68.522 1.8 C 65.585 0.531 62.581 -0.073 59.526 0.012 L 59.526 21.22 C 60.284 18.619 62.063 16.931 64.769 16.419 C 67.045 15.989 68.972 17.107 70.408 19.665 C 71.954 22.423 72.462 25.305 71.142 28.323 C 70.059 30.797 69.551 31.03 67.019 30.191 C 66.545 30.034 66.082 29.848 65.242 29.539 C 65.95 28.945 66.396 28.504 66.906 28.157 C 68.04 27.385 68.358 26.299 68.252 25.009 C 68.113 23.315 66.781 21.815 65.415 21.834 C 64.19 21.851 63.153 23.001 63.015 24.749 C 62.929 25.838 63.11 26.948 63.188 28.338 C 61.314 27.781 60.084 26.787 59.526 25.414 L 59.526 43.044 C 60.635 42.703 61.773 42.101 62.951 41.264 C 64.839 39.923 66.881 38.794 68.878 37.612 C 69.375 37.318 69.97 37.189 70.812 36.874 C 72.963 41.94 75.074 46.907 77.187 51.874 C 78.259 54.398 79.119 57.041 80.451 59.421 C 83.122 64.196 84.543 69.234 84.521 74.693 C 84.509 77.523 84.658 80.363 84.44 83.175 L 84.44 83.175 C 84.237 85.779 83.94 85.888 81.322 86.273 C 79.463 86.545 78.963 87.029 78.869 89.237 C 78.761 91.818 78.768 94.408 78.857 96.99 C 78.918 98.76 78.32 100.148 77.102 101.383 C 72.027 106.527 66.21 109.641 59.526 110.344 L 59.526 110.344 Z " fill="rgb(41,57,57)"/></g></g></svg>