<?xml version="1.0" encoding="UTF-8" standalone="no"?><!-- Generator: Gravit.io --><svg xmlns="http://www.w3.org/2000/svg" xmlns:xlink="http://www.w3.org/1999/xlink" style="isolation:isolate" viewBox="0 0 107.9 122.4" width="107.9pt" height="122.4pt"><defs><clipPath id="_clipPath_NmADimNoBUnBokh1bKQAodwj6zFWyqc9"><rect width="107.9" height="122.4"/></clipPath></defs><g clip-path="url(#_clipPath_NmADimNoBUnBokh1bKQAodwj6zFWyqc9)"><path d=" M 103.773 101.795 C 101.978 100.317 100.144 98.874 98.465 97.27 C 96.595 95.485 95.42 93.326 95.676 90.592 C 95.823 89.019 95.46 87.666 93.563 87.14 C 94.009 85.986 94.427 85.212 94.596 84.387 C 94.784 83.467 94.774 82.5 94.8 81.553 C 95.064 71.593 91.466 62.862 86.137 54.718 C 83.683 50.97 81.12 47.289 78.504 43.652 C 74.412 37.964 72.945 31.574 72.871 24.671 C 72.835 21.505 72.461 18.291 71.79 15.196 C 70.477 9.156 67.241 4.433 61.372 1.9 C 56.875 -0.042 52.22 -0.427 47.471 0.816 C 40.57 2.621 36.397 7.75 36.475 14.904 C 36.549 21.789 36.892 28.683 37.397 35.552 C 37.685 39.445 37.085 42.804 34.502 45.892 C 32.018 48.861 29.796 52.064 27.644 55.289 C 26.415 57.133 25.327 59.142 24.567 61.22 C 22.497 66.883 20.594 72.593 17.291 77.72 C 16.067 79.62 15.928 81.746 16.797 83.919 C 17.022 84.482 17.16 85.348 16.886 85.801 C 14.532 89.708 11.875 93.146 6.82 93.896 C 2.844 94.487 2.648 95.21 2.769 99.309 C 2.869 102.646 2.83 106.014 2.489 109.33 C 2.126 112.885 2.497 113.851 5.931 114.703 C 13.855 116.671 21.844 118.35 29.423 121.557 C 32.65 122.922 35.888 122.448 38.487 119.794 C 41.2 117.023 44.628 115.939 48.331 115.935 C 54.616 115.93 60.903 116.233 67.191 116.304 C 68.893 116.324 69.87 116.957 70.555 118.503 C 71.395 120.396 72.815 121.787 75 122.029 C 79.193 122.491 83.013 121.869 86.19 118.67 C 90.108 114.722 94.626 111.604 99.805 109.443 C 101.287 108.824 102.683 107.851 103.908 106.795 C 106.139 104.873 106.021 103.649 103.773 101.795 Z  M 52.376 21.32 C 53.134 18.719 54.913 17.031 57.619 16.519 C 59.895 16.089 61.822 17.207 63.258 19.765 C 64.804 22.523 65.312 25.405 63.992 28.423 C 62.909 30.897 62.401 31.13 59.869 30.291 C 59.395 30.134 58.932 29.948 58.092 29.639 C 58.8 29.045 59.246 28.604 59.756 28.257 C 60.89 27.485 61.208 26.399 61.102 25.109 C 60.963 23.415 59.631 21.915 58.265 21.934 C 57.04 21.951 56.003 23.101 55.865 24.849 C 55.779 25.938 55.96 27.048 56.038 28.438 C 52.592 27.415 51.327 24.913 52.376 21.32 L 52.376 21.32 Z  M 39.626 19.069 C 40.9 17.141 42.823 16.755 44.727 18.045 C 46.756 19.421 48.274 23.301 47.49 25.621 C 47.205 26.465 46.363 27.121 45.774 27.862 L 45.17 27.488 C 44.94 26.235 44.894 24.903 44.413 23.755 C 44.109 23.027 43.156 22.571 42.494 21.993 C 41.872 22.732 40.801 23.436 40.737 24.221 C 40.649 25.305 41.214 26.501 41.706 27.552 C 42.017 28.213 42.707 28.697 43.419 29.468 L 41.497 30.978 C 38.479 28.278 37.582 22.158 39.626 19.069 Z  M 77.29 83.275 C 77.087 85.879 76.79 85.988 74.172 86.373 C 72.313 86.645 71.813 87.129 71.719 89.337 C 71.611 91.918 71.618 94.508 71.707 97.09 C 71.768 98.86 71.17 100.248 69.952 101.483 C 63.188 108.339 55.107 111.588 45.44 110.409 C 41.27 109.9 38.544 107.362 36.343 103.77 C 37.323 103.407 38.048 103.163 38.755 102.876 C 41.877 101.606 42.461 98.921 39.968 96.599 C 38.084 94.842 35.982 93.316 33.961 91.707 C 32.007 90.152 30.027 88.629 28.07 87.078 C 26.402 85.755 25.765 84.05 25.725 81.89 C 25.631 76.708 26.697 71.86 28.863 67.143 C 30.795 62.934 32.292 58.526 34.102 54.258 C 35.037 52.056 36.008 49.803 37.38 47.87 C 38.699 46.016 39.514 44.201 39.368 41.93 C 39.284 40.654 39.352 39.368 39.352 38.087 L 40.059 37.735 C 41.2 38.72 42.361 39.684 43.482 40.694 C 47.527 44.34 51.374 44.507 55.801 41.364 C 57.689 40.023 59.731 38.894 61.728 37.712 C 62.225 37.418 62.82 37.289 63.662 36.974 C 65.813 42.04 67.924 47.007 70.037 51.974 C 71.109 54.498 71.969 57.141 73.301 59.521 C 75.972 64.296 77.393 69.334 77.371 74.793 C 77.359 77.623 77.508 80.463 77.29 83.275 L 77.29 83.275 Z " fill-rule="evenodd" fill="rgb(0,0,0)"/></g></svg>