<?xml version="1.0" encoding="UTF-8" standalone="no"?><!-- Generator: Gravit.io --><svg xmlns="http://www.w3.org/2000/svg" xmlns:xlink="http://www.w3.org/1999/xlink" style="isolation:isolate" viewBox="0 0 886 1150" width="886pt" height="1150pt"><defs><clipPath id="_clipPath_NSouBXGFbFyaLGq62wik8x6tmb4JG2Gv"><rect width="886" height="1150"/></clipPath></defs><g clip-path="url(#_clipPath_NSouBXGFbFyaLGq62wik8x6tmb4JG2Gv)"><path d=" M -229.754 1086.319 L -263.486 1106.921 C -276.369 1112.942 -285.038 1110.193 -285 1098.141 L -285 601.65 L -285 601.65 L -285 568.958 C -284.951 562.931 -280.551 558.06 -275 558.061 L -220 558.061 L -220 558.061 C -214.164 558.118 -210.025 562.872 -210 568.958 L -210 601.65 L -210 601.65 L -210 1053.811 C -210.397 1068.036 -216.387 1077.957 -229.754 1086.319 Z " fill="rgb(90,120,110)"/><ellipse vector-effect="non-scaling-stroke" cx="497.8143451435727" cy="607.5500000000001" rx="37.81434514357272" ry="37.55000000000007" fill="rgb(90,120,110)"/><path d=" M 625 343 L 700 340 L 700 340.52 L 700 607.55 L 700 702.119 C 700.134 708.174 700.105 714.133 699.917 720 L 700 720 C 700 860.738 585.738 975 445 975 C 311.02 975 201.035 871.449 190.781 740.083 C 190.399 726.995 196.84 720.291 210.132 720 L 244.876 720 C 257.571 720.041 264.326 726.175 266.205 740.091 C 276.758 827.869 355.185 900 445 900 C 541.585 900 625 816.585 625 720 L 625 607.55 L 625 607.55 L 625 415.603 L 119.999 707.166 C 117.174 708.803 115.498 711.404 115 715 L 115 715 C 115 897.132 262.868 1045 445 1045 C 627.132 1045 775 897.132 775 715 C 775 713.33 774.988 711.664 774.963 710 L 774.963 710 L 774.963 710 L 775 710 L 775 560 L 775 560 L 775 446.834 C 774.585 429.395 780.459 416.551 792.591 408.273 L 833.795 380.803 C 843.072 374.307 850.229 380.325 850 391.204 L 850 420 L 850 560 L 850 710 L 849.979 710 L 849.979 710 C 849.99 711.666 850 713.332 850 715 C 850 938.526 668.526 1120 445 1120 C 221.474 1120 40 938.526 40 715 C 40 713.332 40.01 711.667 40.021 710.001 L 40 710 C 40.03 682.695 52.51 661.042 77.5 645.1 L 77.522 645.138 L 77.5 645.1 L 554.203 369.876 L 625 343 Z " fill="rgb(90,120,110)"/><path d=" M -113.468 369.697 L -261.48 113.333 C -263.271 110.161 -266.335 107.957 -269.2 107.89 L -334.2 107.89 L -334.2 107.89 C -343.517 108.911 -345.326 117.255 -342.101 123.692 L -230.072 317.732 L -396.818 301.464 L -439.897 167.911 C -442.266 162.127 -443.346 157.767 -443.248 147.844 L -443.248 123.265 C -443.273 114.678 -447.412 107.97 -453.248 107.89 L -453.248 107.89 L -508.248 107.89 C -513.799 107.888 -518.199 114.761 -518.248 123.265 L -518.248 165.739 C -518.185 168.367 -517.752 170.884 -516.977 173.259 L -478.184 293.526 L -493.419 292.064 L -518.323 289.558 C -526.872 288.744 -533.952 292.209 -534.601 298.01 L -539.968 352.747 C -540.511 358.271 -534.1 363.321 -525.642 364.2 L -517.333 365.087 L -183.968 397.586 L -176.801 410 L -113.468 369.697 L -113.468 369.697 Z " fill="rgb(90,120,110)"/><path d=" M 575.129 444.282 L 822.175 301.649 L 822.175 301.649 L 843.35 289.424 C 847.28 287.126 848.29 281.764 845.409 276.688 L 845.409 276.688 L 817.909 229.057 C 815.134 224.249 809.779 222.261 805.85 224.472 L 784.675 236.698 L 784.675 236.698 L 537.629 379.33 L 575.129 444.282 L 575.129 444.282 Z " fill="rgb(90,120,110)"/><path d=" M 480 309.5 L 570.412 361.2 L 622.59 390.594 L 629.953 391.52 L 643.037 399.074 C 645.483 400.463 649.087 398.615 651.508 394.474 L 651.508 394.474 L 674.112 355.323 C 676.394 351.372 676.252 347.114 673.86 345.686 L 660.776 338.132 L 660.776 338.132 L 508.127 250 L 477.303 303.388 L 480 309.5 Z " fill="rgb(90,120,110)"/><path d=" M 550 290 L 567.228 280.882 L 840.654 124.136 L 847.486 120.2 L 847.639 97.68 L 847.639 32.516 L 829.695 32.363 L 780.757 32.363 L 781.604 46 L 781.604 80.454 L 499.519 243.388 L 483.728 234.775 L 439.944 209.653 L 560.53 139.311 L 560.53 87.631 L 560.6 68 L 377.498 173.046 L 363.86 166.586 L 332.996 148.642 L 332.278 32.5 L 314.334 32.363 L 266.396 32.363 L 266.243 44.565 L 266.243 73.276 L 266.243 185.248 L 309.309 211.088 L 266.243 236.928 L 266.961 307.1 L 278.445 300.81 L 300.696 288.608 L 371.756 247.695 L 533.016 339.844 L 550 290 Z  M 41.016 32.363 L 108.897 33.08 L 108.333 47.436 L 108.333 81.889 L 109.051 220.419 L 266.243 307.27 L 265.525 379.765 L 205.232 348.183 L 205.232 348.183 L 42.298 258.461 L 40.862 242.67 L 40.862 242.67 L 40.862 201.039 L 40.862 35.952 L 41.016 32.363 Z " fill-rule="evenodd" fill="rgb(90,120,110)"/></g></svg>