<?xml version="1.0" encoding="UTF-8" standalone="no"?><!-- Generator: Gravit.io --><svg xmlns="http://www.w3.org/2000/svg" xmlns:xlink="http://www.w3.org/1999/xlink" style="isolation:isolate" viewBox="0 0 886 1150" width="886pt" height="1150pt"><defs><clipPath id="_clipPath_QLRLa4tB76qrJKmfnb7QJMM0oPwatZXV"><rect width="886" height="1150"/></clipPath></defs><g clip-path="url(#_clipPath_QLRLa4tB76qrJKmfnb7QJMM0oPwatZXV)"><path d=" M 40.021 710.001 C 40.01 711.667 40 713.332 40 715 C 40 938.526 221.474 1120 445 1120 C 668.526 1120 850 938.526 850 715 C 850 713.332 849.99 711.666 849.979 710 L 849.979 710 L 850 710 L 850 70 L 850 70 L 850 40 C 849.975 34.415 845.836 30.052 840 30 L 840 30 L 785 30 C 779.449 29.999 775.049 34.469 775 40 L 775 70 L 775 70 L 775 710 L 774.963 710 L 774.963 710 L 774.963 710 C 774.988 711.664 775 713.33 775 715 C 775 897.132 627.132 1045 445 1045 C 262.868 1045 115 897.132 115 715 L 115 715 C 115.498 711.404 117.174 708.803 119.999 707.166 L 625 415.603 L 625 873.5 C 625.063 880.143 634.917 887.633 642.8 879 C 681.121 830.122 701.556 772.612 700 702.119 L 700 340.52 L 700 340 L 700 182 C 699.942 174.481 686.449 167.114 680.154 180.234 L 621.443 336.339 L 447.72 35.442 C 445.929 32.271 442.865 30.067 440 30 L 375 30 L 375 30 C 365.683 31.021 363.874 39.365 367.099 45.802 L 479.128 239.842 L 312.382 223.574 L 269.303 90.02 C 266.934 84.237 265.854 79.877 265.952 69.954 L 265.952 45.375 C 265.927 36.788 261.788 30.08 255.952 30 L 255.952 30 L 200.952 30 C 195.401 29.998 191.001 36.871 190.952 45.375 L 190.952 87.849 C 191.014 90.477 191.448 92.994 192.223 95.369 L 231.016 215.636 L 164.781 209.174 L 164.782 209.169 L 164.782 209.169 L 118.877 204.668 C 110.328 203.854 103.248 207.319 102.599 213.12 L 102.599 213.12 L 97.232 267.857 C 96.689 273.381 103.1 278.431 111.558 279.31 L 140.868 282.184 L 140.867 282.196 L 525.232 319.696 L 554.203 369.876 L 77.5 645.1 L 77.522 645.138 L 77.5 645.1 C 52.51 661.042 40.03 682.695 40 710 L 40.021 710.001 Z " fill="rgb(90,120,110)"/><ellipse vector-effect="non-scaling-stroke" cx="497.8143451435727" cy="607.5500000000001" rx="37.81434514357272" ry="37.55000000000007" fill="rgb(90,120,110)"/></g></svg>