<?xml version="1.0" encoding="UTF-8" standalone="no"?><!-- Generator: Gravit.io --><svg xmlns="http://www.w3.org/2000/svg" xmlns:xlink="http://www.w3.org/1999/xlink" style="isolation:isolate" viewBox="0 0 290 290" width="290pt" height="290pt"><defs><clipPath id="_clipPath_XN9V2EgpRTKWkE4QaLalmRSHTJoF2DAg"><rect width="290" height="290"/></clipPath></defs><g clip-path="url(#_clipPath_XN9V2EgpRTKWkE4QaLalmRSHTJoF2DAg)"><clipPath id="_clipPath_mIk2xJWqCjmWOKqv3bal1EUJbUHWnfqm"><path d="M 40 0 L 250 0 C 272.077 0 290 17.923 290 40 L 290 250 C 290 272.077 272.077 290 250 290 L 40 290 C 17.923 290 0 272.077 0 250 L 0 40 C 0 17.923 17.923 0 40 0 Z" style="stroke:none;fill:#FFFFFF;stroke-miterlimit:10;"/></clipPath><g clip-path="url(#_clipPath_mIk2xJWqCjmWOKqv3bal1EUJbUHWnfqm)"><g><path d=" M 10 0 L 280 0 C 285.519 0 290 4.481 290 10 L 290 280 C 290 285.519 285.519 290 280 290 L 10 290 C 4.481 290 0 285.519 0 280 L 0 10 C 0 4.481 4.481 0 10 0 Z " fill="rgb(244,67,54)"/><g style="opacity:0.2;"><g opacity="0.2"><linearGradient id="_lgradient_2" x1="0.0046759087854983394" y1="0.09546379637579927" x2="0.8152124727467203" y2="0.7957979594909954" gradientTransform="matrix(218,0,0,212.078,71,77)" gradientUnits="userSpaceOnUse"><stop offset="1.7391304347826086%" stop-opacity="1" style="stop-color:rgb(0,0,0)"/><stop offset="98.26086956521739%" stop-opacity="1" style="stop-color:rgb(243,67,54)"/></linearGradient><path d=" M 74 100.444 L 106 130.917 L 71 218.444 L 143 289 C 179.641 290.307 217.389 275.046 243 250 C 271.03 225.557 287.672 181.411 289 152 L 213 77 L 109 87.412 L 74 100.444 Z " fill="url(#_lgradient_2)"/></g></g><path d=" M 71 218.527 L 107 114.527 L 148 105.527 L 142.596 118.494 C 140.475 124.266 143.216 125.287 149.596 121.527 C 154.935 118.467 158.413 115.81 160 113.527 C 168.381 103.039 168.057 95.049 159 89.527 C 155.798 88.21 153.151 87.564 149 87.527 C 136.378 86.977 121.054 88.654 103 92.527 L 74 100.527 L 78 92.527 C 133.549 72.46 163.347 67.446 177 66.527 C 184.307 66.259 191.401 67.019 197.752 68.397 C 206.33 70.248 216.301 76.146 217.596 87.494 C 217.587 89.495 217.891 92.825 216.596 96.079 C 214.704 101.222 212.774 104.254 210.003 107.809 C 207.999 110.381 206.064 112.489 205 113.527 C 199.739 118.661 193.986 122.721 178 131.527 L 219 223.527 L 133 149.527 L 114 203.527 L 71 218.527 Z " fill="rgb(255,235,59)"/></g></g></g></svg>