<?xml version="1.0" standalone="no"?><!-- Generator: Gravit.io --><svg xmlns="http://www.w3.org/2000/svg" xmlns:xlink="http://www.w3.org/1999/xlink" style="isolation:isolate" viewBox="0 0 87.7 66.1" width="87.7" height="66.1"><defs><clipPath id="_clipPath_XsNaZ8BiGmmCImXpfc8dliFQmncY8F9K"><rect width="87.7" height="66.1"/></clipPath></defs><g clip-path="url(#_clipPath_XsNaZ8BiGmmCImXpfc8dliFQmncY8F9K)"><clipPath id="_clipPath_2EVU0FPfJbuRG0iWcwqFsTqGQgT6dAMh"><rect x="0" y="0" width="87.7" height="66.1" transform="matrix(1,0,0,1,0,0)" fill="rgb(255,255,255)"/></clipPath><g clip-path="url(#_clipPath_2EVU0FPfJbuRG0iWcwqFsTqGQgT6dAMh)"><path d=" M 0.732 60.791 L 0.732 52.979 L 13.477 52.979 L 13.477 7.813 L 0 7.813 L 0 0 L 39.99 0 C 41.757 -0.001 43.524 0.015 45.291 0.048 Q 47.806 0.096 50.051 0.192 C 50.075 0.193 50.098 0.194 50.122 0.195 C 51.559 0.255 52.994 0.361 54.425 0.513 C 55.724 0.65 57.017 0.837 58.301 1.074 Q 62.598 1.904 65.601 3.369 Q 68.604 4.834 70.508 6.909 C 71.755 8.254 72.696 9.854 73.267 11.597 C 73.685 12.893 73.949 14.234 74.054 15.592 C 74.099 16.155 74.122 16.72 74.121 17.285 Q 74.121 22.9 70.605 27.051 C 69.412 28.434 68.008 29.619 66.445 30.563 Q 64.483 31.774 62.017 32.709 C 61.355 32.959 60.686 33.189 60.01 33.398 C 59.409 33.598 58.798 33.769 58.181 33.911 L 58.179 33.911 Q 57.227 34.131 56.25 34.375 C 57.37 34.97 58.45 35.637 59.485 36.37 C 60.148 36.839 60.796 37.33 61.426 37.842 C 63.146 39.237 64.746 40.772 66.211 42.432 C 67.642 44.047 68.925 45.787 70.044 47.632 C 70.629 48.594 71.14 49.598 71.574 50.637 C 71.891 51.399 72.154 52.181 72.363 52.979 L 82.227 52.979 L 82.227 60.791 L 47.754 60.791 L 47.754 52.979 L 59.375 52.979 C 59.045 51.944 58.635 50.937 58.148 49.966 C 57.735 49.141 57.281 48.338 56.787 47.559 C 55.657 45.781 54.336 44.132 52.847 42.641 C 52.745 42.538 52.642 42.436 52.539 42.334 C 50.848 40.683 48.953 39.256 46.899 38.086 C 44.82 36.889 42.548 36.063 40.186 35.645 L 24.463 35.645 L 24.463 52.979 L 36.377 52.979 L 36.377 60.791 L 0.732 60.791 Z  M 76.709 50 L 74.414 50 C 74.125 49.253 73.812 48.515 73.474 47.788 C 73.19 47.176 72.893 46.571 72.583 45.972 Q 71.484 43.848 70.093 41.846 Q 68.701 39.844 67.09 38.11 C 66.457 37.424 65.773 36.787 65.045 36.203 C 64.621 35.864 64.179 35.547 63.721 35.254 C 65.231 34.81 66.69 34.204 68.07 33.447 C 68.587 33.161 69.091 32.852 69.58 32.52 C 71.044 31.536 72.361 30.349 73.492 28.995 C 73.649 28.806 73.801 28.614 73.95 28.418 Q 75.732 26.074 76.685 23.242 C 77.322 21.338 77.644 19.342 77.637 17.334 C 77.641 15.939 77.493 14.547 77.197 13.184 C 76.898 11.834 76.388 10.541 75.684 9.351 Q 74.609 7.52 72.803 5.811 Q 70.996 4.102 68.311 2.49 C 69.274 2.844 70.213 3.258 71.124 3.729 C 71.955 4.159 72.753 4.651 73.511 5.2 Q 75.684 6.787 77.075 8.74 C 77.937 9.937 78.608 11.26 79.063 12.663 C 79.085 12.731 79.106 12.798 79.126 12.866 C 79.565 14.315 79.787 15.82 79.785 17.334 C 79.788 19.199 79.533 21.056 79.028 22.852 C 78.517 24.656 77.744 26.375 76.733 27.954 Q 75.195 30.371 72.803 32.373 C 71.662 33.32 70.429 34.15 69.121 34.849 C 68.49 35.189 67.845 35.503 67.188 35.791 C 67.748 36.242 68.28 36.726 68.782 37.241 C 69.239 37.708 69.676 38.193 70.093 38.696 C 71.071 39.876 71.976 41.116 72.803 42.407 C 73.625 43.685 74.388 44.999 75.09 46.347 C 75.093 46.352 75.095 46.357 75.098 46.362 Q 76.055 48.209 76.629 49.778 C 76.656 49.852 76.683 49.926 76.709 50 L 76.709 50 Z  M 24.463 27.832 L 42.09 27.832 C 43.408 27.834 44.726 27.806 46.043 27.747 Q 47.895 27.662 49.487 27.491 C 50.263 27.409 51.037 27.303 51.807 27.173 C 52.638 27.033 53.462 26.857 54.277 26.645 Q 55.506 26.321 56.525 25.91 C 57.025 25.711 57.512 25.48 57.983 25.22 C 58.564 24.901 59.111 24.523 59.615 24.092 Q 60.615 23.225 61.181 22.164 C 61.206 22.117 61.231 22.07 61.255 22.022 Q 62.207 20.117 62.207 17.676 C 62.21 15.775 61.528 13.937 60.287 12.498 C 60.213 12.408 60.137 12.319 60.059 12.231 C 59.417 11.524 58.67 10.921 57.844 10.443 Q 55.969 9.329 53.223 8.643 Q 51.025 8.105 48.242 7.959 C 47.266 7.908 46.29 7.872 45.313 7.849 C 44.239 7.824 43.164 7.812 42.09 7.813 L 24.463 7.813 L 24.463 27.832 Z  M 3.857 64.209 L 39.99 64.209 L 39.99 55.713 L 41.943 55.713 L 41.943 66.064 L 3.857 66.064 L 3.857 64.209 Z  M 49.854 64.209 L 85.742 64.209 L 85.742 55.713 L 87.695 55.713 L 87.695 66.064 L 49.854 66.064 L 49.854 64.209 Z  M 27.979 24.902 L 27.979 11.23 L 42.09 11.23 C 42.73 11.23 43.369 11.234 44.009 11.241 Q 46.676 11.272 48.649 11.393 C 48.692 11.396 48.736 11.398 48.779 11.401 C 49.413 11.44 50.046 11.496 50.677 11.567 Q 51.604 11.673 52.405 11.821 C 52.712 11.877 53.017 11.941 53.32 12.012 C 53.76 12.115 54.194 12.237 54.623 12.379 Q 55.634 12.717 56.396 13.159 Q 57.617 13.867 58.643 14.941 C 58.34 14.806 58.031 14.684 57.718 14.576 Q 57.238 14.408 56.694 14.258 C 56.571 14.224 56.447 14.191 56.323 14.16 C 55.961 14.069 55.597 13.988 55.23 13.918 Q 54.739 13.822 54.188 13.736 C 53.802 13.676 53.415 13.622 53.027 13.574 Q 51.074 13.33 48.413 13.208 Q 46.584 13.124 44.281 13.098 C 43.551 13.09 42.82 13.086 42.09 13.086 L 29.932 13.086 L 29.932 24.902 L 27.979 24.902 Z  M 27.979 50.049 L 27.979 39.063 L 33.887 39.063 C 35.188 39.06 36.489 39.108 37.787 39.207 Q 40.166 39.394 42.212 39.819 C 42.918 39.963 43.613 40.157 44.292 40.4 Q 46.368 41.156 47.51 42.432 Q 46.143 42.041 44.8 41.748 C 44.327 41.646 43.851 41.558 43.372 41.486 C 42.84 41.405 42.307 41.338 41.772 41.284 C 41.247 41.231 40.722 41.186 40.196 41.149 Q 39.116 41.071 37.866 41.016 C 37.269 40.99 36.671 40.97 36.073 40.956 Q 34.473 40.918 32.52 40.918 L 29.932 40.918 L 29.932 50.049 L 27.979 50.049 Z  M 2.637 13.086 L 2.637 11.23 L 10.4 11.23 L 10.4 13.086 L 2.637 13.086 Z " fill-rule="evenodd" fill="none" vector-effect="non-scaling-stroke" stroke-width="1.5" stroke="rgb(0,0,0)" stroke-opacity="100" stroke-linejoin="miter" stroke-linecap="round" stroke-miterlimit="4"/></g></g></svg>