<?xml version="1.0" encoding="UTF-8" standalone="no"?><!-- Generator: Gravit.io --><svg xmlns="http://www.w3.org/2000/svg" xmlns:xlink="http://www.w3.org/1999/xlink" style="isolation:isolate" viewBox="0 0 886 1150" width="886pt" height="1150pt"><defs><clipPath id="_clipPath_4ksIluXTbOmqqm7hIplna7cMZ8qMHnxG"><rect width="886" height="1150"/></clipPath></defs><g clip-path="url(#_clipPath_4ksIluXTbOmqqm7hIplna7cMZ8qMHnxG)"><path d=" M 33.432 51.669 L 98.864 52.405 C 101.895 56.518 101.249 62.422 100.335 67.108 L 100.335 67.108 L 100.335 102.398 L 101.07 244.29 L 262.077 333.248 L 261.342 407.502 C 238.561 401.724 216.801 391.377 199.585 375.154 L 199.585 375.154 L 32.697 283.255 C 29.44 278.695 30.198 272.222 31.227 267.08 L 31.227 267.08 L 31.227 224.439 L 31.227 55.345 L 33.432 51.669 Z  M 264.282 51.669 L 311.335 51.669 C 316.744 50.144 325.918 48.008 329.714 53.875 L 329.714 53.875 L 330.45 170.77 L 362.063 189.15 L 376.031 195.767 L 561.3 89.899 C 567.166 93.695 565.031 102.87 563.505 108.279 L 563.505 108.279 L 563.505 161.213 L 439.993 233.262 L 484.84 258.993 C 488.732 264.145 494.769 266.83 501.014 267.816 L 501.014 267.816 L 789.944 100.927 L 789.944 65.638 C 788.809 61.379 787.402 54.382 792.15 51.669 L 792.15 51.669 L 839.202 51.669 C 844.612 50.144 853.786 48.008 857.582 53.875 L 857.582 53.875 L 857.582 118.572 C 859.625 125.517 862.702 137.6 855.376 142.833 L 855.376 142.833 L 569.387 306.781 L 571.592 310.457 L 625.997 341.335 L 815.676 233.997 Q 854.638 279.582 859.052 359.715 Q 851.638 458.168 791.415 503.812 L 837.732 504.547 C 843.534 502.89 851.952 499.779 856.112 506.018 L 857.582 506.753 L 856.847 705.99 Q 836.35 892.817 723.042 986.833 Q 622.479 1093.594 415.732 1094.171 Q 226.06 1072.108 132.683 953.75 Q 32.651 853.81 29.756 656.732 L 29.756 368.537 L 31.962 363.391 C 36.968 359.908 44.01 360.778 49.606 361.92 L 49.606 361.92 L 95.188 361.92 C 102.582 365.953 100.565 376.722 98.864 383.241 L 98.864 383.241 L 98.864 436.175 L 98.864 649.38 Q 98.647 853.98 215.76 941.251 Q 299.933 1025.436 467.195 1026.534 Q 619.026 1008.535 697.31 916.99 Q 779.88 838.553 789.944 687.61 L 789.944 506.753 L 787.739 506.018 C 782.327 515.14 772.96 520.274 762.742 522.192 L 762.742 522.192 L 729.659 465.582 Q 748.345 454.126 762.007 437.645 Q 793.508 406.655 789.944 340.6 L 786.268 328.101 L 398.087 548.659 L 298.101 606.004 Q 268.585 616.923 248.843 637.617 Q 237.873 657.524 242.227 692.757 L 193.704 692.757 Q 179.368 696.8 175.324 690.551 Q 168.553 610.996 209.878 579.537 Q 257.965 543.077 316.481 517.046 L 556.153 380.3 L 555.418 378.094 L 370.15 272.227 L 297.366 314.133 L 274.575 326.631 C 272.277 330.857 267.13 331.443 262.812 331.042 L 262.812 331.042 L 262.077 261.199 L 306.188 234.732 L 262.077 208.265 L 262.077 93.575 L 262.077 64.168 C 261.074 60.3 259.913 54.022 264.282 51.669 L 264.282 51.669 Z  M 549.537 495.725 C 560.757 494.527 574.033 494.927 582.816 503.065 C 602.547 521.35 601.116 558.375 574.265 570.079 C 554.412 578.733 526.285 568.512 520.152 546.798 C 517.974 539.088 517.381 528.633 520.506 521.098 C 523.421 514.07 527.31 507.83 533.362 503.077 L 533.362 503.077 L 549.537 495.725 Z  M 602.47 647.175 L 617.174 654.527 L 659.08 678.788 Q 648.035 708.178 625.997 726.575 Q 599.275 752.053 555.418 760.394 Q 516.226 755.02 507.631 780.244 Q 476.656 814.701 476.753 880.23 L 476.753 933.164 C 478.411 938.967 480.786 948.855 474.547 953.014 L 474.547 953.014 L 426.024 953.014 Q 411.688 957.058 407.645 950.809 Q 397.022 830.642 438.523 762.6 L 295.16 761.865 L 258.401 761.865 C 253.734 763.137 246.026 764.766 242.962 759.659 L 242.962 759.659 L 242.962 712.607 C 241.436 707.197 239.301 698.023 245.167 694.227 L 245.167 694.227 L 465.725 694.227 L 526.011 694.227 C 551.106 693.915 577.517 686.658 591.443 664.084 L 591.443 664.084 L 602.47 647.175 Z " fill-rule="evenodd" fill="rgb(90,120,110)"/></g></svg>