<?xml version="1.0" encoding="UTF-8" standalone="no"?><!-- Generator: Gravit.io --><svg xmlns="http://www.w3.org/2000/svg" xmlns:xlink="http://www.w3.org/1999/xlink" style="isolation:isolate" viewBox="0 0 1286 1286" width="1286pt" height="1286pt"><defs><clipPath id="_clipPath_Qy2ZcaPo8v1MCzSZgC8a9CSjQX44w5Tr"><rect width="1286" height="1286"/></clipPath></defs><g clip-path="url(#_clipPath_Qy2ZcaPo8v1MCzSZgC8a9CSjQX44w5Tr)"><rect width="1286" height="1286" style="fill:rgb(0,0,0)" fill-opacity="0"/><path d=" M 897.997 458.562 L 1035.348 379.262 C 1035.395 379.232 1038.812 377.046 1043.418 374.098 C 1046.244 372.147 1047.76 369.373 1047.997 365.805 L 1047.997 302.691 C 1048.007 295.579 1040.573 290.138 1033.045 293.989 L 1010.636 306.927 L 1010.636 306.927 L 832.877 409.556 L 760.52 367.781 L 1048.003 201.803 L 1047.895 201.616 L 1047.997 201.616 L 1047.997 201.616 L 1047.997 118.375 L 1047.997 118.375 L 1048.003 118.375 L 1048.003 89.528 C 1047.888 83.554 1044.303 79.73 1038.09 79.625 L 983.127 79.625 C 976.943 80.208 973.578 83.439 973.003 89.289 L 973.003 105.505 L 972.997 105.505 L 972.997 105.505 L 972.997 158.505 L 685.207 324.661 L 685.207 324.661 L 611.786 282.271 L 611.786 282.271 L 611.786 282.271 L 820.782 161.607 C 823.998 159.466 825.642 156.511 825.747 152.772 L 825.747 89.344 C 825.526 81.892 817.97 77.648 811.195 80.54 L 746.747 117.749 L 746.747 117.471 L 541.767 235.817 L 541.767 138.375 L 541.767 138.375 L 541.747 138.375 L 541.747 98.375 L 541.747 98.375 L 541.747 98.375 L 541.747 98.375 L 541.747 93.375 L 541.747 89.528 C 541.631 83.554 538.046 79.73 531.833 79.625 L 476.87 79.625 C 470.686 80.208 467.322 83.439 466.747 89.289 L 466.747 93.375 L 466.747 98.375 L 466.747 148.375 L 466.747 148.375 L 466.747 148.375 L 466.747 148.375 L 466.747 148.375 L 466.767 148.375 L 466.767 156.982 L 466.767 156.982 L 466.767 203.375 L 466.767 203.375 L 466.767 203.375 L 466.767 203.375 L 466.767 279.118 L 466.747 279.129 L 466.747 279.129 L 466.747 363.97 L 466.747 363.97 L 312.997 275.202 L 312.997 118.375 L 312.997 118.375 L 312.997 89.528 C 312.881 83.554 309.296 79.73 303.083 79.625 L 248.12 79.625 C 241.936 80.208 238.572 83.439 237.997 89.289 L 237.997 118.375 L 237.997 118.375 L 237.997 118.375 L 237.997 118.375 L 237.997 234.984 L 237.997 234.984 L 237.997 313.395 C 238.03 316.619 240.015 319.496 242.685 321.211 L 387.997 405.106 C 391.559 407.193 395.075 407.238 398.515 405.212 L 466.748 365.709 L 466.794 451.557 C 466.787 454.965 468.282 457.453 471.248 458.994 L 471.248 458.994 L 505.14 478.551 L 507.393 479.852 L 507.393 479.852 L 525.372 490.232 C 528.595 491.939 532.008 491.921 535.58 490.15 L 595.108 455.807 C 601.726 451.39 601.907 442.591 595.007 438.06 L 580.14 429.476 L 580.14 429.476 L 580.14 429.476 L 546.365 409.976 L 505.14 386.175 L 473.618 367.976 L 471.365 366.675 L 468.616 365.088 L 468.245 364.867 L 468.245 364.867 L 536.546 325.434 L 757.564 453.039 L 757.564 453.039 L 735.626 465.705 L 735.675 465.791 L 275.497 731.475 L 275.519 731.513 L 275.497 731.475 C 250.507 747.417 238.027 769.07 237.997 796.375 L 238.018 796.376 C 238.007 798.042 237.997 799.707 237.997 801.375 C 237.997 1024.901 419.471 1206.375 642.997 1206.375 C 866.523 1206.375 1047.997 1024.901 1047.997 801.375 C 1047.997 799.707 1047.987 798.041 1047.976 796.375 L 1047.976 796.375 L 1047.997 796.375 L 1047.997 741.931 L 1047.997 741.931 L 1047.997 646.375 L 1047.997 506.375 L 1047.997 475.579 C 1047.95 467.145 1039.252 462.138 1031.792 467.178 L 990.588 494.648 C 990.383 494.787 983.64 499.287 977.415 503.437 C 974.291 505.989 973.055 508.203 972.997 512.209 L 972.997 646.375 L 972.997 646.375 L 972.997 744.708 L 972.997 796.375 L 972.96 796.375 L 972.96 796.375 L 972.96 796.375 C 972.985 798.039 972.997 799.705 972.997 801.375 C 972.997 983.507 825.129 1131.375 642.997 1131.375 C 460.865 1131.375 312.997 983.507 312.997 801.375 L 312.997 801.375 C 313.495 797.779 315.171 795.178 317.996 793.541 L 822.997 501.978 L 822.997 693.925 L 822.997 693.925 L 822.997 806.375 C 822.997 902.96 739.582 986.375 642.997 986.375 C 553.182 986.375 474.755 914.244 464.202 826.466 C 463.285 819.669 463.419 820.906 463.166 816.197 C 462.351 809.548 457.751 806.424 452.873 806.375 L 398.129 806.375 C 392.405 806.693 388.684 811.445 388.697 816.375 C 388.725 816.946 388.76 825.861 388.778 826.458 C 399.032 957.824 509.017 1061.375 642.997 1061.375 C 783.735 1061.375 897.997 947.113 897.997 806.375 L 897.914 806.375 C 898.102 800.508 898.131 794.549 897.997 788.494 L 897.997 693.925 L 897.997 458.562 L 897.997 458.562 Z  M 237.997 520.8 L 237.997 503.525 C 238.039 499.885 239.756 497.001 243.119 494.843 L 301.505 461.134 L 317.997 451.6 L 317.997 451.6 L 317.997 471.074 L 317.997 490.612 L 317.997 519.612 L 317.997 522.215 L 317.997 553.612 L 317.997 562.215 L 317.997 575.215 L 317.997 575.215 L 317.997 575.215 L 317.997 608.385 C 317.849 612.167 316.24 615.055 313.14 617.019 L 253.2 651.625 C 246.428 655.286 238.072 651.362 237.997 642.933 L 237.997 621.403 L 237.997 621.403 L 237.997 621.403 L 237.997 573.8 L 237.997 563.403 L 237.997 563.403 L 237.997 560.8 L 237.997 520.8 L 237.997 520.8 L 237.997 520.8 L 237.997 520.8 L 237.997 520.8 L 237.997 520.8 L 237.997 520.8 L 237.997 520.8 L 237.997 520.8 Z  M 647.997 730.825 C 647.997 710.101 664.941 693.275 685.811 693.275 C 706.681 693.275 723.625 710.101 723.625 730.825 C 723.625 751.549 706.681 768.375 685.811 768.375 C 664.941 768.375 647.997 751.549 647.997 730.825 Z " fill-rule="evenodd" fill="rgb(90,120,110)"/></g></svg>