<?xml version="1.0" encoding="UTF-8" standalone="no"?><!-- Generator: Gravit.io --><svg xmlns="http://www.w3.org/2000/svg" xmlns:xlink="http://www.w3.org/1999/xlink" style="isolation:isolate" viewBox="0 0 886 1150" width="886pt" height="1150pt"><defs><clipPath id="_clipPath_bx8GQ3XYisK6Gq1MBIg3bLdOpKtNQTyO"><rect width="886" height="1150"/></clipPath></defs><g clip-path="url(#_clipPath_bx8GQ3XYisK6Gq1MBIg3bLdOpKtNQTyO)"><path d=" M 95.246 558.259 L 61.514 578.86 C 48.631 584.881 39.962 582.132 40 570.08 L 40 73.589 L 40 73.589 L 40 40.897 C 40.049 34.87 44.449 29.999 50 30 L 105 30 L 105 30 C 110.836 30.057 114.975 34.811 115 40.897 L 115 73.589 L 115 73.589 L 115 525.75 C 114.603 539.976 108.613 549.896 95.246 558.259 Z " fill="rgb(90,120,110)"/><ellipse vector-effect="non-scaling-stroke" cx="497.8143451435727" cy="607.5500000000001" rx="37.81434514357272" ry="37.55000000000007" fill="rgb(90,120,110)"/><path d=" M 625 720 L 625 607.55 L 625 607.55 L 625 415.603 L 119.999 707.166 C 117.174 708.803 115.498 711.404 115 715 L 115 715 C 115 897.132 262.868 1045 445 1045 C 627.132 1045 775 897.132 775 715 C 775 713.33 774.988 711.664 774.963 710 L 774.963 710 L 774.963 710 L 775 710 L 775 560 L 775 560 L 775 70 L 775 70 L 775 40 C 775.049 34.469 779.449 29.999 785 30 L 840 30 L 840 30 C 845.836 30.052 849.975 34.415 850 40 L 850 70 L 850 70 L 850 560 L 850 710 L 849.979 710 L 849.979 710 C 849.99 711.666 850 713.332 850 715 C 850 938.526 668.526 1120 445 1120 C 221.474 1120 40 938.526 40 715 C 40 713.332 40.01 711.667 40.021 710.001 L 40 710 C 40.03 682.695 52.51 661.042 77.5 645.1 L 77.522 645.138 L 77.5 645.1 L 554.203 369.876 L 525.232 319.696 L 191.867 287.196 L 183.558 286.31 C 175.1 285.431 168.689 280.381 169.232 274.857 L 174.599 220.12 C 175.248 214.319 182.328 210.854 190.877 211.668 L 215.781 214.173 L 231.016 215.636 L 192.223 95.369 C 191.448 92.994 191.014 90.477 190.952 87.849 L 190.952 45.375 C 191.001 36.871 195.401 29.998 200.952 30 L 255.952 30 L 255.952 30 C 261.788 30.08 265.927 36.788 265.952 45.375 L 265.952 69.954 C 265.854 79.877 266.934 84.237 269.303 90.02 L 312.382 223.574 L 479.128 239.842 L 367.099 45.802 C 363.874 39.365 365.683 31.021 375 30 L 375 30 L 440 30 C 442.865 30.067 445.929 32.271 447.72 35.442 L 620.887 335.376 L 625 343 L 625 326.882 L 625 73.589 L 625 73.589 L 625 40.897 C 625.049 34.87 629.449 29.999 635 30 L 690 30 L 690 30 C 695.836 30.057 699.975 34.811 700 40.897 L 700 73.589 L 700 73.589 L 700 182 L 700 182 L 700 340 L 700 340.52 L 700 607.55 L 700 702.119 C 700.134 708.174 700.105 714.133 699.917 720 L 700 720 C 700 860.738 585.738 975 445 975 C 311.02 975 201.035 871.449 190.781 740.083 C 190.399 726.995 196.84 720.291 210.132 720 L 244.876 720 C 257.571 720.041 264.326 726.175 266.205 740.091 C 276.758 827.869 355.185 900 445 900 C 541.585 900 625 816.585 625 720 Z " fill="rgb(90,120,110)"/></g></svg>