<?xml version="1.0" encoding="UTF-8" standalone="no"?><!-- Generator: Gravit.io --><svg xmlns="http://www.w3.org/2000/svg" xmlns:xlink="http://www.w3.org/1999/xlink" style="isolation:isolate" viewBox="0 0 100 100" width="100pt" height="100pt"><defs><clipPath id="_clipPath_4wOKLgx004WU83I5H2zSytDaJolBtxY2"><rect width="100" height="100"/></clipPath></defs><g clip-path="url(#_clipPath_4wOKLgx004WU83I5H2zSytDaJolBtxY2)"><path d="M 8 0 L 92 0 C 96.415 0 100 3.585 100 8 L 100 92 C 100 96.415 96.415 100 92 100 L 8 100 C 3.585 100 0 96.415 0 92 L 0 8 C 0 3.585 3.585 0 8 0 Z" style="stroke:none;fill:#F45900;stroke-miterlimit:10;"/><path d=" M 20.5 59 L 43.5 59 L 43.5 100 L 20.5 100 L 20.5 59 Z  M 20.5 34 L 38.5 34 L 38.5 59 L 20.5 59 L 20.5 34 Z  M 20.5 19 L 70.5 19 L 70.5 34 L 20.5 34 L 20.5 19 Z  M 52.5 34 L 70.5 34 L 70.5 42 L 52.5 42 L 52.5 34 Z  M 38.5 59 L 43.5 59 L 41 56 L 38.5 53 L 38.5 59 L 38.5 59 Z " fill-rule="evenodd" fill="rgb(255,255,255)"/><path d=" M 55 79.5 L 66.5 79.5 L 66.5 100 L 55 100 L 55 79.5 Z  M 55 67 L 64 67 L 64 79.5 L 55 79.5 L 55 67 Z  M 55 59.5 L 80 59.5 L 80 67 L 55 67 L 55 59.5 Z  M 71 67 L 80 67 L 80 71 L 71 71 L 71 67 Z  M 64 79.5 L 66.5 79.5 L 65.25 78 L 64 76.5 L 64 79.5 L 64 79.5 Z " fill-rule="evenodd" fill="rgb(255,255,255)"/></g></svg>