<?xml version="1.0" encoding="UTF-8" standalone="no"?><!-- Generator: Gravit.io --><svg xmlns="http://www.w3.org/2000/svg" xmlns:xlink="http://www.w3.org/1999/xlink" style="isolation:isolate" viewBox="0 0 886 1286" width="886pt" height="1286pt"><defs><clipPath id="_clipPath_ic4sxnwIcb6LN2uUgTFcehRwZbf0cA4d"><rect width="886" height="1286"/></clipPath></defs><g clip-path="url(#_clipPath_ic4sxnwIcb6LN2uUgTFcehRwZbf0cA4d)"><path d=" M 700 440.187 L 837.351 360.887 C 837.398 360.857 840.815 358.671 845.421 355.723 C 848.247 353.772 849.764 350.998 850 347.43 L 850 284.316 C 850.01 277.204 842.576 271.763 835.049 275.614 L 812.639 288.552 L 812.639 288.552 L 634.881 391.181 L 562.524 349.406 L 850.007 183.428 L 849.899 183.241 L 850 183.241 L 850 183.241 L 850 100 L 850 100 L 850.007 100 L 850.007 71.153 C 849.891 65.179 846.306 61.355 840.093 61.25 L 785.13 61.25 C 778.946 61.833 775.582 65.064 775.007 70.914 L 775.007 87.13 L 775 87.13 L 775 87.13 L 775 140.13 L 487.21 306.286 L 487.21 306.286 L 413.789 263.896 L 413.789 263.896 L 413.789 263.896 L 622.786 143.232 C 626.001 141.091 627.646 138.136 627.75 134.397 L 627.75 70.969 C 627.529 63.517 619.973 59.273 613.198 62.165 L 548.75 99.374 L 548.75 99.096 L 343.77 217.442 L 343.77 120 L 343.77 120 L 343.75 120 L 343.75 80 L 343.75 80 L 343.75 80 L 343.75 80 L 343.75 75 L 343.75 71.153 C 343.634 65.179 340.05 61.355 333.836 61.25 L 278.874 61.25 C 272.689 61.833 269.325 65.064 268.75 70.914 L 268.75 75 L 268.75 80 L 268.75 130 L 268.75 130 L 268.75 130 L 268.75 130 L 268.75 130 L 268.77 130 L 268.77 138.607 L 268.77 138.607 L 268.77 185 L 268.77 185 L 268.77 185 L 268.77 185 L 268.77 260.743 L 268.75 260.754 L 268.75 260.754 L 268.75 345.595 L 268.75 345.595 L 115 256.827 L 115 100 L 115 100 L 115 71.153 C 114.884 65.179 111.3 61.355 105.086 61.25 L 50.124 61.25 C 43.939 61.833 40.575 65.064 40 70.914 L 40 100 L 40 100 L 40 100 L 40 100 L 40 216.609 L 40 216.609 L 40 295.02 C 40.034 298.244 42.018 301.121 44.689 302.836 L 190.001 386.731 C 193.562 388.818 197.078 388.863 200.518 386.837 L 268.751 347.334 L 268.797 433.182 C 268.791 436.59 270.285 439.078 273.252 440.619 L 273.252 440.619 L 307.143 460.176 L 309.397 461.477 L 309.397 461.477 L 327.376 471.857 C 330.599 473.564 334.011 473.546 337.583 471.775 L 397.112 437.432 C 403.73 433.015 403.91 424.216 397.01 419.685 L 382.143 411.101 L 382.143 411.101 L 382.143 411.101 L 348.368 391.601 L 307.143 367.8 L 275.622 349.601 L 273.368 348.3 L 270.619 346.713 L 270.248 346.492 L 270.248 346.492 L 338.549 307.059 L 559.568 434.664 L 559.568 434.664 L 537.629 447.33 L 537.679 447.416 L 77.5 713.1 L 77.522 713.138 L 77.5 713.1 C 52.51 729.042 40.03 750.695 40 778 L 40.021 778.001 C 40.01 779.667 40 781.332 40 783 C 40 1006.526 221.474 1188 445 1188 C 668.526 1188 850 1006.526 850 783 C 850 781.332 849.99 779.666 849.979 778 L 849.979 778 L 850 778 L 850 723.556 L 850 723.556 L 850 628 L 850 488 L 850 457.204 C 849.954 448.77 841.255 443.763 833.795 448.803 L 792.591 476.273 C 792.387 476.412 785.643 480.912 779.418 485.062 C 776.295 487.614 775.059 489.828 775 493.834 L 775 628 L 775 628 L 775 726.333 L 775 778 L 774.963 778 L 774.963 778 L 774.963 778 C 774.988 779.664 775 781.33 775 783 C 775 965.132 627.132 1113 445 1113 C 262.868 1113 115 965.132 115 783 L 115 783 C 115.498 779.404 117.174 776.803 119.999 775.166 L 625 483.603 L 625 675.55 L 625 675.55 L 625 788 C 625 884.585 541.585 968 445 968 C 355.185 968 276.758 895.869 266.205 808.091 C 265.288 801.294 265.422 802.531 265.169 797.822 C 264.354 791.173 259.754 788.049 254.876 788 L 200.132 788 C 194.408 788.318 190.687 793.07 190.7 798 C 190.729 798.571 190.764 807.486 190.781 808.083 C 201.035 939.449 311.02 1043 445 1043 C 585.738 1043 700 928.738 700 788 L 699.917 788 C 700.105 782.133 700.134 776.174 700 770.119 L 700 675.55 L 700 440.187 L 700 440.187 Z  M 40 432.425 L 40 399.15 C 40.042 395.51 41.759 392.626 45.122 390.468 L 105.011 355.891 C 112.032 352.226 120.029 357.042 120 364.558 L 120 386.237 L 120 431.237 L 120 433.84 L 120 470.237 L 120 517.84 L 120 556.84 L 120 556.84 L 120 556.84 L 120 590.01 C 119.852 593.792 118.243 596.68 115.143 598.644 L 55.204 633.25 C 48.431 636.911 40.075 632.987 40 624.558 L 40 603.028 L 40 603.028 L 40 603.028 L 40 555.425 L 40 519.028 L 40 519.028 L 40 516.425 L 40 432.425 L 40 432.425 L 40 432.425 L 40 432.425 L 40 432.425 L 40 432.425 L 40 432.425 L 40 432.425 L 40 432.425 Z  M 450 712.45 C 450 691.726 466.944 674.9 487.814 674.9 C 508.685 674.9 525.629 691.726 525.629 712.45 C 525.629 733.174 508.685 750 487.814 750 C 466.944 750 450 733.174 450 712.45 Z " fill-rule="evenodd" fill="rgb(90,120,110)"/></g></svg>