<?xml version="1.0" encoding="UTF-8" standalone="no"?><!-- Generator: Gravit.io --><svg xmlns="http://www.w3.org/2000/svg" xmlns:xlink="http://www.w3.org/1999/xlink" style="isolation:isolate" viewBox="0 0 107.9 122.4" width="107.9pt" height="122.4pt"><defs><clipPath id="_clipPath_or5ToH3hJsWwjAtoc3GyzNBaMzjRyAWI"><rect width="107.9" height="122.4"/></clipPath></defs><g clip-path="url(#_clipPath_or5ToH3hJsWwjAtoc3GyzNBaMzjRyAWI)"><g><path d=" M 77.988 40.012 C 79.593 44.656 80.749 49.395 81.129 54.308 C 81.601 60.403 81.385 66.456 80.1 72.451 C 80.065 72.616 79.991 72.771 79.936 72.931 C 79.533 72.932 79.122 72.882 78.728 72.943 C 75.399 73.466 72.073 74.008 68.747 74.547 C 65.309 75.104 61.866 75.639 58.434 76.234 C 57.218 76.444 55.713 76.193 55.222 77.875 C 55.208 77.921 55.068 77.929 54.987 77.955 L 55.153 67.904 C 55.096 59.82 55.04 51.736 54.984 43.652 L 56.586 43.377 C 59.206 42.948 61.826 42.513 64.448 42.096 C 67.577 41.599 70.709 41.116 73.84 40.631 C 75.221 40.416 76.604 40.219 77.988 40.012 Z " fill-rule="evenodd" fill="rgb(67,153,52)"/><path d=" M 51.679 107.255 C 49.989 105.802 48.24 104.413 46.62 102.885 C 37.903 94.663 31.527 84.986 28.387 73.319 C 27.522 70.108 26.945 66.845 26.76 63.526 C 26.63 61.204 26.442 58.861 26.606 56.551 C 27.043 50.407 27.931 44.322 29.733 38.404 L 29.832 38.266 C 30.007 38.499 30.259 38.705 30.348 38.968 C 32.107 44.148 33.853 49.332 35.59 54.519 C 41.048 70.82 46.499 87.124 51.966 103.42 C 52.073 103.738 52.35 103.999 52.549 104.286 L 51.679 107.255 L 51.679 107.255 Z " fill-rule="evenodd" fill="rgb(69,165,56)"/><path d=" M 77.988 40.012 C 76.604 40.219 75.22 40.415 73.839 40.628 C 70.708 41.113 67.576 41.597 64.447 42.094 C 61.825 42.511 59.205 42.945 56.585 43.375 L 54.983 43.649 L 54.971 42.604 C 54.918 41.745 54.827 40.887 54.817 40.028 C 54.748 34.55 54.705 29.072 54.637 23.594 C 54.595 20.165 54.532 16.737 54.462 13.309 C 54.419 11.179 54.373 9.048 54.277 6.921 C 54.225 5.778 54.041 4.641 53.966 3.498 C 53.924 2.841 53.982 2.179 53.995 1.519 C 54.812 3.102 55.611 4.697 56.451 6.268 C 57.778 8.752 59.892 10.582 61.795 12.579 C 69.318 20.471 74.659 29.647 77.988 40.012 L 77.988 40.012 Z " fill-rule="evenodd" fill="rgb(70,160,55)"/><path d=" M 54.986 77.954 C 55.067 77.928 55.208 77.92 55.221 77.874 C 55.712 76.192 57.217 76.443 58.433 76.233 C 61.865 75.639 65.308 75.103 68.746 74.546 C 72.072 74.007 75.398 73.465 78.727 72.942 C 79.121 72.88 79.532 72.931 79.935 72.93 C 79.313 75.15 78.823 77.418 78.034 79.577 C 77.138 82.026 76.054 84.416 74.903 86.759 C 73.183 90.262 71.04 93.529 68.55 96.522 C 66.631 98.83 64.492 100.963 62.348 103.07 C 61.163 104.235 59.766 105.184 58.466 106.231 L 58.129 106.001 L 56.915 104.963 L 55.659 102.21 C 54.794 98.987 54.34 95.706 54.265 92.372 L 54.288 91.811 L 54.459 89.385 C 54.516 88.557 54.592 87.73 54.627 86.9 C 54.756 83.918 54.868 80.936 54.986 77.954 L 54.986 77.954 Z " fill-rule="evenodd" fill="rgb(64,148,51)"/><path d=" M 54.986 77.954 C 54.868 80.936 54.756 83.918 54.629 86.901 C 54.594 87.731 54.518 88.558 54.461 89.386 L 53.696 89.675 C 51.997 84.673 50.297 79.724 48.634 74.762 C 45.884 66.553 43.167 58.331 40.421 50.12 C 38.204 43.492 35.969 36.871 33.721 30.253 C 33.616 29.943 33.314 29.701 33.104 29.427 L 38 20.425 C 38.168 20.717 38.39 20.99 38.496 21.304 C 40.761 28.007 43.022 34.711 45.264 41.422 C 48.18 50.152 51.078 58.889 53.992 67.62 C 54.108 67.969 54.3 68.291 54.483 68.682 L 55.153 67.902 C 55.097 71.253 55.041 74.603 54.986 77.954 L 54.986 77.954 Z " fill-rule="evenodd" fill="rgb(79,170,65)"/><path d=" M 33.105 29.427 C 33.315 29.701 33.616 29.943 33.722 30.253 C 35.97 36.872 38.205 43.493 40.422 50.121 C 43.168 58.332 45.885 66.554 48.635 74.763 C 50.297 79.724 51.997 84.674 53.697 89.676 L 54.462 89.387 L 54.291 91.813 L 54.136 92.372 C 53.87 95.028 53.646 97.69 53.322 100.34 C 53.159 101.668 52.813 102.972 52.55 104.287 C 52.352 104 52.074 103.739 51.967 103.421 C 46.5 87.124 41.049 70.821 35.591 54.521 C 33.854 49.334 32.108 44.149 30.349 38.97 C 30.26 38.707 30.009 38.5 29.833 38.268 C 30.923 35.32 32.014 32.374 33.105 29.427 Z " fill-rule="evenodd" fill="rgb(74,167,60)"/><path d=" M 55.152 67.903 L 54.482 68.683 C 54.299 68.292 54.107 67.969 53.991 67.621 C 51.078 58.89 48.179 50.152 45.263 41.423 C 43.021 34.712 40.76 28.008 38.495 21.305 C 38.39 20.991 38.168 20.717 37.999 20.426 L 44.054 12.461 C 44.245 12.716 44.517 12.942 44.616 13.229 C 46.297 18.15 47.963 23.078 49.619 28.008 C 51.166 32.612 52.69 37.223 54.255 41.821 C 54.36 42.129 54.725 42.347 54.969 42.607 L 54.981 43.652 C 55.039 51.734 55.096 59.819 55.152 67.903 L 55.152 67.903 Z " fill-rule="evenodd" fill="rgb(87,174,71)"/><path d=" M 54.971 42.605 C 54.727 42.345 54.362 42.127 54.257 41.819 C 52.692 37.221 51.168 32.61 49.621 28.005 C 47.965 23.075 46.299 18.149 44.618 13.228 C 44.519 12.941 44.247 12.714 44.056 12.459 C 46.025 10.531 47.933 8.534 49.981 6.694 C 51.802 5.06 53.266 3.308 53.333 0.726 C 53.336 0.619 53.392 0.512 53.478 0.212 L 53.997 1.518 C 53.984 2.179 53.925 2.84 53.968 3.497 C 54.043 4.64 54.227 5.777 54.279 6.92 C 54.375 9.047 54.421 11.178 54.464 13.308 C 54.533 16.736 54.596 20.164 54.639 23.593 C 54.706 29.071 54.75 34.549 54.819 40.027 C 54.827 40.888 54.917 41.746 54.971 42.604 L 54.971 42.605 Z " fill-rule="evenodd" fill="rgb(96,178,79)"/><path d=" M 52.548 104.286 C 52.811 102.971 53.157 101.666 53.32 100.339 C 53.645 97.69 53.868 95.027 54.134 92.371 L 54.2 92.36 L 54.266 92.371 C 54.341 95.705 54.795 98.986 55.66 102.209 C 55.484 102.441 55.235 102.648 55.142 102.91 C 54.415 104.96 53.73 107.026 52.999 109.076 C 52.899 109.356 52.621 109.574 52.425 109.82 L 51.678 107.254 L 52.548 104.285 L 52.548 104.286 Z " fill-rule="evenodd" fill="rgb(169,170,136)"/><path d=" M 52.426 109.822 C 52.622 109.576 52.901 109.358 53 109.078 C 53.731 107.028 54.417 104.963 55.143 102.912 C 55.236 102.65 55.484 102.443 55.661 102.211 L 56.916 104.965 C 56.668 105.317 56.326 105.634 56.188 106.026 L 53.784 113.085 C 53.685 113.368 53.347 113.568 53.121 113.807 L 52.426 109.822 L 52.426 109.822 Z " fill-rule="evenodd" fill="rgb(182,181,152)"/><path d=" M 53.121 113.806 C 53.348 113.568 53.685 113.367 53.784 113.084 L 56.188 106.025 C 56.325 105.634 56.668 105.316 56.916 104.964 L 58.131 106.001 C 57.544 106.581 57.218 107.251 57.414 108.098 L 57.045 109.306 C 56.877 109.513 56.634 109.693 56.551 109.93 C 55.712 112.333 54.911 114.749 54.066 117.152 C 53.959 117.457 53.662 117.696 53.452 117.964 C 53.343 116.577 53.232 115.193 53.121 113.806 L 53.121 113.806 Z " fill-rule="evenodd" fill="rgb(194,193,167)"/><path d=" M 53.453 117.964 C 53.662 117.695 53.959 117.456 54.067 117.152 C 54.912 114.75 55.713 112.334 56.552 109.93 C 56.635 109.694 56.877 109.513 57.046 109.306 L 56.537 114.851 C 56.401 115.008 56.204 115.145 56.139 115.328 C 55.564 116.942 55.022 118.568 54.445 120.182 C 54.326 120.515 54.098 120.809 53.92 121.12 C 53.762 120.913 53.479 120.713 53.466 120.497 C 53.415 119.656 53.45 118.809 53.453 117.964 L 53.453 117.964 Z " fill-rule="evenodd" fill="rgb(206,205,183)"/><path d=" M 53.919 121.12 C 54.097 120.808 54.325 120.514 54.444 120.182 C 55.022 118.569 55.563 116.943 56.138 115.328 C 56.203 115.145 56.401 115.009 56.536 114.851 L 56.548 118.491 L 55.33 121.614 L 53.919 121.119 L 53.919 121.12 Z " fill-rule="evenodd" fill="rgb(219,218,199)"/><path d=" M 55.33 121.616 L 56.548 118.492 L 56.799 122.188 L 55.33 121.616 L 55.33 121.616 Z " fill-rule="evenodd" fill="rgb(235,233,220)"/><path d=" M 57.414 108.099 C 57.218 107.252 57.543 106.581 58.131 106.002 L 58.468 106.232 L 57.414 108.099 L 57.414 108.099 Z " fill-rule="evenodd" fill="rgb(206,205,183)"/><path d=" M 54.266 92.373 L 54.2 92.362 L 54.134 92.372 L 54.289 91.813 L 54.266 92.373 L 54.266 92.373 Z " fill-rule="evenodd" fill="rgb(79,170,65)"/></g></g></svg>