<svg xmlns="http://www.w3.org/2000/svg" viewBox="0 0 116.68 100">
  <defs>
    <style>
      .cls-1{fill:#fff;}
      .cls-2{fill:#000;}
    </style>
  </defs>
  <path class="cls-1" d="M97.32,38.4a4.55,4.55,0,0,0-4.38,2.89,4.42,4.42,0,0,0-4.08-2.89,4.69,4.69,0,0,0-4.66,4.69v14.7H80.71V36.36h3.34v4.61a4.84,4.84,0,0,1,4.61-2.89,5.16,5.16,0,0,1,5.38,5.16,5,5,0,0,1-5.38,5.16Z" transform="translate(-28.32 -36.36)"/>
  <path class="cls-1" d="M43.1,38.4a4.55,4.55,0,0,0-4.38,2.89,4.42,4.42,0,0,0-4.08-2.89,4.69,4.69,0,0,0-4.66,4.69v14.7H26.49V43.09h3.34v4.61a4.84,4.84,0,0,1,4.61-2.89,5.16,5.16,0,0,1,5.38,5.16,5,5,0,0,1-5.38,5.16Z" transform="translate(-28.32 -36.36)"/>
  <path class="cls-2" d="M60.18,36.36H67l21.2,27.08V36.36h7.1V63.06H92.92L71.55,35.89h-3.07V63.06H60.18Z" transform="translate(-28.32 -36.36)"/>
</svg>
