<?xml version="1.0" encoding="UTF-8" standalone="no"?><!-- Generator: Gravit.io --><svg xmlns="http://www.w3.org/2000/svg" xmlns:xlink="http://www.w3.org/1999/xlink" style="isolation:isolate" viewBox="0 0 65.3 13.2" width="65.3pt" height="13.2pt"><defs><clipPath id="_clipPath_ohJ9MncNkIfXQdGEjMZ5XVPMLhTketVu"><rect width="65.3" height="13.2"/></clipPath></defs><g clip-path="url(#_clipPath_ohJ9MncNkIfXQdGEjMZ5XVPMLhTketVu)"><g><path d=" M 54.784 0.005 L 54.784 2.105 L 50.272 2.105 L 50.272 13.149 L 48.015 13.149 L 48.015 2.105 L 43.409 2.105 L 43.409 0.005 L 54.784 0.005 Z  M 55.291 11.897 C 55.45 11.897 55.589 11.954 55.706 12.069 C 55.826 12.183 55.885 12.32 55.887 12.48 C 55.885 12.589 55.858 12.688 55.803 12.777 C 55.746 12.867 55.674 12.938 55.584 12.989 C 55.495 13.042 55.398 13.069 55.291 13.069 C 55.125 13.069 54.985 13.012 54.867 12.897 C 54.75 12.783 54.691 12.644 54.693 12.48 C 54.691 12.32 54.75 12.183 54.867 12.069 C 54.985 11.954 55.125 11.897 55.291 11.897 Z  M 10.575 13.149 L 2.256 2.809 L 2.256 13.144 L 0 13.144 L 0 0 L 2.82 0 L 13.33 13.051 L 13.33 2.105 L 13.329 0.005 L 24.703 0.005 L 24.703 2.105 L 15.586 2.105 L 15.586 5.482 L 22.918 5.482 L 22.918 7.581 L 15.586 7.581 L 15.586 11.05 L 24.703 11.05 L 24.703 13.149 L 10.575 13.149 Z  M 31.934 7.561 L 33.412 9.4 L 30.383 13.165 L 27.422 13.165 L 31.934 7.561 Z  M 30.383 0.011 L 34.2 4.752 L 38.005 0.026 L 40.958 0.021 L 35.678 6.587 L 40.966 13.155 L 38.005 13.155 L 27.43 0.011 L 30.383 0.011 Z  M 59.141 7.532 L 60.141 7.532 L 60.141 11.384 C 60.139 11.737 60.063 12.04 59.913 12.295 C 59.762 12.549 59.552 12.744 59.283 12.881 C 59.016 13.016 58.703 13.086 58.346 13.086 C 58.021 13.086 57.729 13.027 57.469 12.912 C 57.209 12.798 57.003 12.626 56.851 12.4 C 56.698 12.174 56.624 11.893 56.624 11.555 L 57.625 11.555 C 57.626 11.703 57.66 11.831 57.724 11.938 C 57.788 12.045 57.877 12.126 57.99 12.183 C 58.105 12.241 58.236 12.269 58.384 12.269 C 58.545 12.269 58.683 12.236 58.794 12.168 C 58.906 12.102 58.991 12.003 59.051 11.87 C 59.109 11.739 59.14 11.576 59.141 11.384 L 59.141 7.532 Z  M 64.254 9.038 C 64.23 8.805 64.123 8.622 63.936 8.493 C 63.748 8.362 63.505 8.297 63.207 8.297 C 62.998 8.297 62.818 8.329 62.668 8.391 C 62.518 8.454 62.402 8.538 62.322 8.645 C 62.243 8.752 62.203 8.874 62.2 9.011 C 62.2 9.126 62.227 9.225 62.281 9.308 C 62.334 9.392 62.406 9.463 62.5 9.52 C 62.591 9.579 62.694 9.627 62.805 9.666 C 62.918 9.706 63.032 9.739 63.145 9.766 L 63.666 9.894 C 63.875 9.942 64.079 10.007 64.273 10.09 C 64.467 10.171 64.643 10.275 64.797 10.4 C 64.951 10.525 65.074 10.676 65.164 10.852 C 65.254 11.028 65.3 11.234 65.3 11.472 C 65.3 11.793 65.217 12.075 65.051 12.319 C 64.884 12.561 64.644 12.751 64.329 12.888 C 64.016 13.024 63.637 13.093 63.191 13.093 C 62.759 13.093 62.383 13.027 62.067 12.894 C 61.749 12.763 61.501 12.57 61.323 12.317 C 61.144 12.064 61.047 11.756 61.034 11.393 L 62.024 11.393 C 62.038 11.582 62.099 11.741 62.203 11.869 C 62.308 11.995 62.446 12.088 62.614 12.152 C 62.784 12.213 62.973 12.245 63.183 12.245 C 63.401 12.245 63.594 12.212 63.761 12.147 C 63.926 12.082 64.056 11.992 64.149 11.875 C 64.244 11.759 64.291 11.622 64.293 11.465 C 64.291 11.322 64.248 11.203 64.166 11.109 C 64.082 11.016 63.965 10.938 63.817 10.874 C 63.668 10.811 63.493 10.754 63.294 10.704 L 62.662 10.545 C 62.205 10.429 61.842 10.252 61.578 10.016 C 61.312 9.779 61.18 9.466 61.18 9.073 C 61.18 8.751 61.269 8.467 61.448 8.225 C 61.625 7.982 61.868 7.794 62.176 7.66 C 62.484 7.524 62.833 7.458 63.221 7.458 C 63.615 7.458 63.961 7.524 64.259 7.66 C 64.557 7.794 64.791 7.981 64.961 8.219 C 65.13 8.457 65.219 8.729 65.224 9.038 L 64.254 9.038 Z " fill="rgb(0,0,0)"/></g></g></svg>
