<?xml version="1.0" encoding="UTF-8" standalone="no"?><!-- Generator: Gravit.io --><svg xmlns="http://www.w3.org/2000/svg" xmlns:xlink="http://www.w3.org/1999/xlink" style="isolation:isolate" viewBox="0 0 107.9 122.4" width="107.9pt" height="122.4pt"><defs><clipPath id="_clipPath_DJtBkAOwd7Yem3jpz6Wi1JXlKtnw0Npd"><rect width="107.9" height="122.4"/></clipPath></defs><g clip-path="url(#_clipPath_DJtBkAOwd7Yem3jpz6Wi1JXlKtnw0Npd)"><path d=" M 20.216 49.801 C 18.926 49.801 18.066 50.834 18.066 52.124 L 18.066 64.254 L 4.387 50.49 C 3.699 49.801 2.495 49.629 1.635 49.973 C 0.774 50.318 0 51.178 0 52.124 L 0 69.932 C 0 71.222 1.29 72.255 2.581 72.255 C 3.871 72.255 5.162 71.222 5.162 69.932 L 5.162 57.802 L 19.012 71.566 C 19.442 71.996 20.044 72.255 20.647 72.255 C 20.905 72.255 20.991 72.169 21.249 72.082 C 22.109 71.738 22.367 70.878 22.367 69.932 L 22.367 52.21 C 22.367 50.92 21.507 49.801 20.216 49.801 L 20.216 49.801 Z  M 37.164 59.953 C 35.959 59.953 34.841 61.157 34.841 62.361 C 34.841 63.566 35.959 64.77 37.164 64.77 L 42.842 65.114 L 41.551 68.297 L 34.239 68.297 L 30.626 61.501 L 34.325 54.533 L 42.153 54.533 L 43.96 57.974 L 48.692 57.974 L 45.595 51.178 L 44.906 50.231 L 31.486 50.231 L 30.884 51.264 L 25.808 60.125 L 25.206 61.243 L 25.808 62.361 L 30.798 71.222 L 31.486 72.599 L 44.476 72.599 L 45.078 71.136 L 48.778 63.394 L 50.412 59.695 L 46.627 59.695 L 37.164 59.953 L 37.164 59.953 Z  M 55.058 49.801 C 53.853 49.801 52.477 50.92 52.477 52.124 L 52.477 57.974 L 57.638 57.974 L 57.638 52.21 C 57.638 50.92 56.262 49.801 55.058 49.801 Z  M 81.21 50.059 C 80.35 49.715 79.145 49.887 78.543 50.576 L 64.521 64.34 L 64.521 52.21 C 64.521 50.92 63.66 49.887 62.37 49.887 C 61.08 49.887 60.219 50.92 60.219 52.21 L 60.219 70.018 C 60.219 70.964 60.821 71.824 61.682 72.169 C 61.94 72.255 62.284 72.341 62.542 72.341 C 63.144 72.341 63.918 72.082 64.349 71.652 L 78.285 57.888 L 78.285 70.018 C 78.285 71.308 79.145 72.341 80.436 72.341 C 81.726 72.341 82.586 71.308 82.586 70.018 L 82.586 52.21 C 82.586 51.264 82.07 50.404 81.21 50.059 L 81.21 50.059 Z  M 99.964 61.071 L 107.19 53.845 C 108.137 52.898 108.137 51.436 107.19 50.576 C 106.244 49.629 104.782 49.629 103.921 50.576 L 96.695 57.802 L 89.469 50.576 C 88.522 49.629 87.06 49.629 86.2 50.576 C 85.253 51.522 85.253 52.984 86.2 53.845 L 93.426 61.071 L 86.2 68.297 C 85.253 69.244 85.253 70.706 86.2 71.566 C 86.63 71.996 87.232 72.255 87.834 72.255 C 88.436 72.255 89.038 71.996 89.469 71.566 L 96.695 64.34 L 103.921 71.566 C 104.351 71.996 104.954 72.255 105.556 72.255 C 106.158 72.255 106.76 71.996 107.19 71.566 C 108.137 70.62 108.137 69.158 107.19 68.297 L 99.964 61.071 L 99.964 61.071 Z  M 52.477 69.932 C 52.477 71.136 53.767 72.255 55.058 72.255 C 56.262 72.255 57.638 71.136 57.638 69.932 L 57.638 59.695 L 52.477 59.695 L 52.477 69.932 Z " fill="rgb(0,0,0)"/></g></svg>