<?xml version="1.0" encoding="UTF-8" standalone="no"?><!-- Generator: Gravit.io --><svg xmlns="http://www.w3.org/2000/svg" xmlns:xlink="http://www.w3.org/1999/xlink" style="isolation:isolate" viewBox="0 0 107.9 122.4" width="107.9pt" height="122.4pt"><defs><clipPath id="_clipPath_5F9Vsxfck2CRE59m8GI9vrJ1PK4F9Rpf"><rect width="107.9" height="122.4"/></clipPath></defs><g clip-path="url(#_clipPath_5F9Vsxfck2CRE59m8GI9vrJ1PK4F9Rpf)"><path d=" M 103.221 27.533 L 59.124 1.928 C 56.343 0.344 52.722 0.344 49.919 1.928 L 5.351 27.533 C 2.481 29.184 0.45 32.287 0.45 35.606 L 0.45 86.749 C 0.45 90.068 2.534 93.172 5.404 94.831 L 17.179 101.52 C 22.807 104.292 24.796 104.292 27.357 104.292 C 35.69 104.292 40.45 99.253 40.45 90.464 L 40.45 39.974 C 40.45 39.261 40.079 38.2 39.379 38.2 L 33.756 38.2 C 33.044 38.2 31.45 39.261 31.45 39.973 L 31.45 90.462 C 31.45 94.358 27.926 98.235 21.34 94.943 L 9.173 87.929 C 8.749 87.699 8.45 87.236 8.45 86.749 L 8.45 35.607 C 8.45 35.125 9.005 34.64 9.432 34.393 L 53.856 8.832 C 54.271 8.597 54.881 8.597 55.295 8.832 L 99.177 34.387 C 99.597 34.64 99.449 35.11 99.449 35.607 L 99.449 86.749 C 99.449 87.236 99.632 87.711 99.217 87.946 L 55.131 113.523 C 54.753 113.75 54.284 113.75 53.87 113.523 L 42.563 106.774 C 42.222 106.576 41.817 106.505 41.49 106.688 C 38.344 108.471 37.764 108.708 34.813 109.731 C 34.087 109.984 33.016 110.423 35.223 111.66 L 50.021 120.414 C 51.438 121.234 53.048 121.66 54.668 121.66 C 56.31 121.66 57.918 121.234 59.335 120.414 L 103.22 94.832 C 106.09 93.16 107.45 90.068 107.45 86.749 L 107.45 35.607 C 107.45 32.288 106.09 29.193 103.221 27.534 L 103.221 27.533 Z  M 68.36 78.644 C 56.634 78.644 54.051 75.409 53.19 69.578 C 53.09 68.95 52.557 68.199 51.918 68.199 L 46.187 68.199 C 45.478 68.199 44.908 69.059 44.908 69.765 C 44.908 77.231 48.967 86.277 68.361 86.277 C 82.4 86.277 90.449 80.822 90.449 71.168 C 90.449 61.596 83.982 59.084 70.367 57.282 C 56.605 55.463 55.207 54.544 55.207 51.32 C 55.207 48.662 56.391 45.117 66.581 45.117 C 75.686 45.117 79.042 47.071 80.423 53.208 C 80.541 53.785 81.068 54.199 81.663 54.199 L 87.417 54.199 C 87.771 54.199 88.109 54.056 88.357 53.803 C 88.597 53.531 88.724 53.19 88.692 52.824 C 87.801 42.256 80.78 37.331 66.58 37.331 C 53.949 37.331 46.414 42.665 46.414 51.606 C 46.414 61.304 53.911 63.984 66.036 65.183 C 80.541 66.605 81.669 68.725 81.669 71.578 C 81.669 76.533 77.691 78.644 68.36 78.644 Z " fill="rgb(131,205,41)"/></g></svg>