<?xml version="1.0" encoding="UTF-8" standalone="no"?><!-- Generator: Gravit.io --><svg xmlns="http://www.w3.org/2000/svg" xmlns:xlink="http://www.w3.org/1999/xlink" style="isolation:isolate" viewBox="0 0 107.9 122.4" width="107.9pt" height="122.4pt"><defs><clipPath id="_clipPath_6rWBOQv3I7rGMDz2q9MAcYZKwi2mobqD"><rect width="107.9" height="122.4"/></clipPath></defs><g clip-path="url(#_clipPath_6rWBOQv3I7rGMDz2q9MAcYZKwi2mobqD)"><path d=" M 46.582 63.312 L 53.71 63.312 L 49.94 57.246 L 43.021 68.213 L 39.872 68.213 L 48.288 55.04 C 48.654 54.508 49.264 54.186 49.94 54.186 C 50.595 54.186 51.205 54.497 51.559 55.018 L 60.008 68.213 L 56.859 68.213 L 55.374 65.762 L 48.155 65.762 L 46.582 63.312 L 46.582 63.312 Z  M 79.291 65.762 L 79.291 54.32 L 76.62 54.32 L 76.62 66.883 C 76.62 67.227 76.753 67.559 77.008 67.814 C 77.263 68.069 77.607 68.213 77.984 68.213 L 90.17 68.213 L 91.745 65.762 L 79.291 65.762 L 79.291 65.762 Z  M 35.082 63.711 C 37.677 63.711 39.784 61.616 39.784 59.021 C 39.784 56.427 37.678 54.32 35.082 54.32 L 23.392 54.32 L 23.392 68.214 L 26.063 68.214 L 26.063 56.77 L 34.905 56.77 C 36.147 56.77 37.145 57.779 37.145 59.021 C 37.145 60.262 36.146 61.271 34.905 61.271 L 27.372 61.26 L 35.348 68.213 L 39.23 68.213 L 33.863 63.71 L 35.082 63.71 L 35.082 63.711 Z  M 6.948 68.213 C 3.113 68.213 0 65.108 0 61.271 C 0 57.435 3.112 54.319 6.948 54.319 L 15.023 54.319 C 18.86 54.319 21.971 57.435 21.971 61.271 C 21.971 65.107 18.86 68.213 15.023 68.213 L 6.948 68.213 Z  M 14.844 65.762 C 17.329 65.762 19.342 63.755 19.342 61.271 C 19.342 58.788 17.329 56.769 14.844 56.769 L 7.126 56.769 C 4.644 56.769 2.63 58.787 2.63 61.271 C 2.63 63.755 4.644 65.762 7.126 65.762 L 14.844 65.762 Z  M 65.586 68.213 C 61.75 68.213 58.635 65.108 58.635 61.271 C 58.635 57.435 61.75 54.319 65.586 54.319 L 75.178 54.319 L 73.614 56.769 L 65.764 56.769 C 63.28 56.769 61.261 58.787 61.261 61.271 C 61.261 63.755 63.28 65.762 65.764 65.762 L 75.4 65.762 L 73.826 68.213 L 65.586 68.213 L 65.586 68.213 Z  M 98.264 65.762 C 96.213 65.762 94.471 64.387 93.939 62.491 L 105.36 62.491 L 106.934 60.04 L 93.939 60.04 C 94.471 58.156 96.213 56.769 98.264 56.769 L 106.103 56.769 L 107.689 54.319 L 98.086 54.319 C 94.25 54.319 91.134 57.435 91.134 61.271 C 91.134 65.107 94.25 68.213 98.086 68.213 L 106.325 68.213 L 107.9 65.762 L 98.264 65.762" fill="rgb(234,27,34)"/></g></svg>