<?xml version="1.0" encoding="UTF-8" standalone="no"?><!-- Generator: Gravit.io --><svg xmlns="http://www.w3.org/2000/svg" xmlns:xlink="http://www.w3.org/1999/xlink" style="isolation:isolate" viewBox="0 0 107.9 122.4" width="107.9pt" height="122.4pt"><defs><clipPath id="_clipPath_RVrpIu8aqDSPdFN82Zx4T3pLjFYRfp3X"><rect width="107.9" height="122.4"/></clipPath></defs><g clip-path="url(#_clipPath_RVrpIu8aqDSPdFN82Zx4T3pLjFYRfp3X)"><path d=" M 42.172 42.137 C 39.019 41.345 35.861 41.599 32.529 42.118 C 32.529 47.946 32.517 53.617 32.561 59.288 C 32.563 59.578 32.999 60.084 33.281 60.122 C 36.915 60.613 40.528 60.652 43.926 58.996 C 47.442 57.283 49.232 53.702 48.768 49.498 C 48.347 45.669 46.08 43.119 42.172 42.137 Z  M 107.9 61.274 L 107.9 9.313 C 107.9 7.518 107.92 7.356 106.177 7.356 L 2.123 7.356 C 0.428 7.356 0 7.518 0 9.228 L 0 113.282 C 0 115.01 0.216 115.013 1.892 115.013 C 36.621 115.013 71.454 115.005 106.183 115.044 C 107.53 115.046 107.891 114.687 107.888 113.367 C 107.842 96.002 107.9 78.637 107.9 61.274 Z  M 47.401 66.275 C 42.642 67.972 37.679 68.067 32.541 67.669 L 32.541 86.996 L 23.121 86.996 L 23.121 85.796 C 23.121 69.615 23.047 53.436 23.002 37.256 C 22.996 35.912 23.21 35.263 24.724 35.109 C 31.859 34.38 38.954 33.559 46.048 35.223 C 53.675 37.01 58.072 42.052 58.406 49.019 C 58.82 57.646 55.029 63.555 47.401 66.275 L 47.401 66.275 Z  M 85.345 77.197 C 84.982 82.139 82.196 85.384 77.625 86.953 C 71.509 89.052 65.427 88.565 59.449 86.19 C 58.471 85.8 58.281 85.307 58.604 84.309 C 59.193 82.488 59.623 80.616 60.077 78.926 C 62.604 79.668 65.007 80.593 67.497 81.031 C 69.255 81.34 71.155 81.158 72.942 80.878 C 74.544 80.627 75.697 79.539 75.96 77.82 C 76.227 76.072 75.7 74.558 74.157 73.628 C 72.931 72.89 71.58 72.361 70.284 71.742 C 68.201 70.746 65.98 69.965 64.058 68.719 C 56.496 63.815 58.958 54.69 64.004 51.253 C 66.704 49.415 69.692 48.6 72.891 48.488 C 76.653 48.356 80.275 49.005 83.833 50.734 L 81.953 57.404 C 80.463 56.877 79.076 56.192 77.612 55.919 C 75.874 55.596 74.052 55.415 72.298 55.558 C 69.947 55.751 68.57 57.373 68.57 59.386 C 68.57 60.578 69.022 61.587 70.016 62.165 C 71.443 62.994 72.957 63.679 74.457 64.373 C 76.081 65.124 77.795 65.701 79.358 66.559 C 83.528 68.845 85.699 72.382 85.345 77.197 Z " fill-rule="evenodd" fill="rgb(128,181,226)"/></g></svg>