<?xml version="1.0" encoding="UTF-8" standalone="no"?><!-- Generator: Gravit.io --><svg xmlns="http://www.w3.org/2000/svg" xmlns:xlink="http://www.w3.org/1999/xlink" style="isolation:isolate" viewBox="0 0 123.6 123.6" width="123.6pt" height="123.6pt"><defs><clipPath id="_clipPath_LqGjCWhAXWBZpK869t2kLKOUvbG0q4Ru"><rect width="123.6" height="123.6"/></clipPath></defs><g clip-path="url(#_clipPath_LqGjCWhAXWBZpK869t2kLKOUvbG0q4Ru)"><path d=" M 61.8 30.839 C 28.06 30.839 0.706 44.701 0.706 61.8 C 0.706 78.899 28.06 92.761 61.8 92.761 C 95.54 92.761 122.894 78.899 122.894 61.8 C 122.894 44.701 95.54 30.839 61.8 30.839 Z  M 45.903 67.832 C 44.445 69.196 42.826 69.759 41.043 70.339 C 39.26 70.92 36.991 70.8 34.232 70.8 L 27.979 70.8 L 26.246 80.8 L 18.945 80.8 L 25.46 46.8 L 39.5 46.8 C 43.724 46.8 46.805 48.015 48.742 50.232 C 50.679 52.449 51.261 55.596 50.489 59.569 C 50.17 61.206 49.633 62.728 48.875 64.084 C 48.116 65.441 47.125 66.708 45.903 67.832 L 45.903 67.832 Z  M 67.214 70.8 L 70.095 56.38 C 70.423 54.692 70.303 53.438 69.734 52.825 C 69.164 52.211 67.952 51.8 66.099 51.8 L 60.309 51.8 L 56.578 70.8 L 49.334 70.8 L 55.849 37.8 L 63.093 37.8 L 61.361 46.8 L 67.814 46.8 C 71.875 46.8 74.675 47.615 76.216 49.031 C 77.757 50.447 78.219 52.387 77.603 55.559 L 74.572 70.8 L 67.214 70.8 L 67.214 70.8 Z  M 107.473 59.622 C 107.155 61.259 106.617 62.755 105.86 64.11 C 105.102 65.467 104.112 66.708 102.889 67.832 C 101.431 69.196 99.811 69.759 98.029 70.339 C 96.247 70.92 93.976 70.8 91.217 70.8 L 84.964 70.8 L 83.232 80.8 L 75.931 80.8 L 82.445 46.8 L 96.486 46.8 C 100.71 46.8 103.791 48.015 105.727 50.232 C 107.662 52.449 108.245 55.65 107.473 59.622 L 107.473 59.622 Z  M 93.719 51.8 L 88.718 51.8 L 85.991 65.8 L 90.433 65.8 C 93.375 65.8 95.569 65.51 97.009 64.4 C 98.451 63.292 99.422 61.572 99.927 58.979 C 100.411 56.488 100.191 54.545 99.267 53.521 C 98.342 52.497 96.493 51.8 93.719 51.8 L 93.719 51.8 Z  M 36.734 51.8 L 31.732 51.8 L 29.005 65.8 L 33.446 65.8 C 36.389 65.8 38.582 65.51 40.023 64.4 C 41.464 63.292 42.436 61.572 42.94 58.979 C 43.424 56.488 43.204 54.545 42.28 53.521 C 41.356 52.497 39.508 51.8 36.734 51.8 Z " fill="rgb(97,129,182)"/></g></svg>