<?xml version="1.0" encoding="UTF-8" standalone="no"?><!-- Generator: Gravit.io --><svg xmlns="http://www.w3.org/2000/svg" xmlns:xlink="http://www.w3.org/1999/xlink" style="isolation:isolate" viewBox="0 0 107.9 122.4" width="107.9pt" height="122.4pt"><defs><clipPath id="_clipPath_pEOIj2zITLu87frc8dlPH77LYwVRv3HY"><rect width="107.9" height="122.4"/></clipPath></defs><g clip-path="url(#_clipPath_pEOIj2zITLu87frc8dlPH77LYwVRv3HY)"><path d=" M 0 54.501 C 0 55.105 0.178 55.504 0.278 55.892 C 0.927 58.412 2.324 60.575 3.981 62.548 C 6.341 65.36 9.231 67.624 12.191 69.753 C 14.759 71.599 17.379 73.403 19.958 75.236 C 20.4 75.55 20.819 75.912 21.299 76.298 C 20.886 76.521 20.542 76.718 20.185 76.899 C 16.782 78.625 13.509 80.56 10.491 82.903 C 8.673 84.316 6.915 85.817 5.673 87.779 C 3.675 90.935 2.967 94.297 4.457 97.887 C 4.892 98.935 5.555 99.841 6.491 100.51 C 6.794 100.727 7.135 100.942 7.49 101.026 C 8.399 101.24 9.325 101.38 10.246 101.549 L 12.852 101.548 C 15.735 101.291 18.358 100.303 20.729 98.667 C 24.435 96.109 26.932 92.68 28.005 88.279 C 28.785 85.081 28.817 81.879 27.898 78.695 C 27.812 78.399 27.705 78.109 27.593 77.823 C 27.482 77.537 27.35 77.259 27.195 76.902 L 33.105 73.504 L 33.193 73.58 C 33.086 73.931 32.971 74.282 32.874 74.637 C 32.172 77.201 31.706 79.81 31.873 82.472 C 32.052 85.308 32.843 87.962 34.504 90.332 C 35.846 92.248 39.045 92.319 40.471 90.396 C 40.977 89.713 41.468 88.999 41.837 88.236 C 42.8 86.247 43.692 84.222 44.613 82.211 L 44.773 81.843 C 44.707 82.796 44.63 83.632 44.595 84.469 C 44.54 85.776 44.616 87.075 45.063 88.319 C 45.445 89.383 46.096 90.178 47.315 90.318 C 48.148 90.413 48.813 90.032 49.425 89.548 C 50.383 88.792 51.16 87.859 51.738 86.799 C 53.372 83.799 55.049 80.816 56.53 77.741 C 58.132 74.414 59.533 70.99 61.02 67.607 L 61.266 67.007 C 61.617 68.388 61.862 69.741 62.314 71.021 C 62.838 72.507 63.487 73.958 64.193 75.368 C 64.527 76.034 64.489 76.466 64.026 77.025 C 62.087 79.362 60.181 81.728 58.274 84.092 C 57.852 84.613 57.432 85.144 57.081 85.714 C 56.868 86.06 56.728 86.482 56.668 86.886 C 56.554 87.658 57.031 88.402 57.857 88.58 C 58.611 88.743 59.415 88.803 60.184 88.746 C 62.846 88.55 65.262 87.616 67.399 86.033 C 70.167 83.982 71.055 81.184 70.385 77.868 C 70.204 76.968 69.883 76.093 69.571 75.226 C 69.431 74.835 69.422 74.561 69.677 74.197 C 71.89 71.037 73.78 67.684 75.539 64.254 C 75.608 64.119 75.68 63.984 75.802 63.84 C 76.372 66.805 77.229 69.662 78.766 72.255 C 77.982 73.011 77.206 73.696 76.504 74.45 C 74.958 76.112 73.617 77.917 72.918 80.118 C 72.617 81.067 72.386 82.031 72.52 83.044 C 72.728 84.618 74.017 85.64 75.565 85.282 C 78.877 84.515 81.736 82.955 83.825 80.19 C 85.231 78.329 85.359 76.252 84.77 74.077 C 84.609 73.486 84.417 72.904 84.211 72.226 C 85.028 71.972 85.825 71.668 86.649 71.48 C 90.928 70.504 95.16 70.674 99.284 72.219 C 101.691 73.121 103.636 74.631 104.789 77.007 C 106.198 79.911 105.419 82.666 102.682 84.502 C 102.427 84.673 102.134 84.807 101.923 85.021 C 101.793 85.153 101.715 85.416 101.747 85.597 C 101.765 85.703 102.044 85.835 102.205 85.834 C 103.105 85.827 103.834 85.355 104.535 84.87 C 106.29 83.656 107.57 82.022 107.846 79.871 L 107.9 79.71 L 107.834 78.309 C 107.807 78.228 107.854 78.148 107.848 78.087 C 107.475 74.955 105.801 72.525 103.368 70.621 C 100.549 68.416 97.22 67.509 93.7 67.365 C 90.832 67.248 88.012 67.675 85.308 68.657 C 84.537 68.936 83.773 69.267 82.998 69.579 C 82.894 69.391 82.783 69.21 82.691 69.024 C 81.895 67.394 80.931 65.837 80.717 63.969 C 80.566 62.642 80.381 61.317 80.696 60.005 C 80.999 58.742 81.395 57.501 81.767 56.256 C 81.958 55.615 81.823 55.256 81.212 54.967 C 80.998 54.866 80.766 54.779 80.536 54.745 C 79.032 54.527 77.549 54.651 76.092 55.075 C 75.577 55.226 75.202 55.514 75.088 56.085 C 75.022 56.412 74.889 56.726 74.796 57.049 C 74.416 58.392 74.146 59.761 73.53 61.041 C 71.989 64.251 70.229 67.339 68.427 70.406 C 68.232 70.737 68.027 71.062 67.781 71.463 C 67.149 70.139 66.474 68.952 66.269 67.559 C 66.038 65.985 65.856 64.413 66.248 62.851 C 66.539 61.686 66.92 60.542 67.271 59.392 C 67.436 58.845 67.36 58.558 66.865 58.27 C 66.615 58.125 66.332 57.996 66.05 57.954 C 64.49 57.723 62.954 57.844 61.449 58.33 C 60.982 58.482 60.737 58.783 60.595 59.265 C 60.175 60.684 59.818 62.138 59.229 63.489 C 56.845 68.954 54.393 74.392 51.942 79.828 C 51.431 80.963 50.832 82.059 50.255 83.164 C 50.109 83.444 49.896 83.691 49.714 83.954 C 49.568 83.781 49.511 83.663 49.512 83.544 C 49.516 82.845 49.433 82.126 49.566 81.451 C 49.969 79.407 50.433 77.375 50.922 75.35 C 51.326 73.678 51.796 72.021 52.244 70.359 C 52.395 69.803 52.397 69.283 51.997 68.816 C 51.326 68.033 49.924 67.861 49.092 68.464 L 48.724 68.672 L 48.795 68.079 C 48.971 66.808 49.006 65.542 48.657 64.29 C 48.222 62.729 47.108 61.831 45.489 61.881 C 44.735 61.904 43.942 62.033 43.244 62.308 C 40.305 63.459 38.046 65.499 36.123 67.952 C 35.948 68.175 35.718 68.378 35.472 68.514 C 32.986 69.893 30.492 71.254 27.999 72.62 L 25.224 74.141 C 24.48 73.431 23.803 72.694 23.036 72.07 C 20.692 70.158 18.311 68.294 15.951 66.404 C 13.859 64.73 11.833 62.985 10.283 60.767 C 9.129 59.117 8.386 57.311 8.315 55.271 C 8.224 52.671 8.962 50.296 10.285 48.085 C 11.978 45.256 14.287 42.985 16.826 40.929 C 19.512 38.754 22.416 36.908 25.427 35.223 C 29.639 32.866 33.971 30.779 38.616 29.402 C 43.379 27.989 48.211 27.18 53.195 27.744 C 55.155 27.966 57.058 28.414 58.805 29.372 C 60.143 30.106 61.24 31.065 61.751 32.566 C 62.254 34.042 62.239 35.539 61.89 37.038 C 61.181 40.075 59.518 42.579 57.425 44.816 C 53.993 48.483 49.806 50.979 45.092 52.628 C 42.372 53.58 39.574 54.177 36.7 54.419 C 34.355 54.615 32.059 54.407 29.838 53.592 C 28.368 53.051 27.087 52.225 26.058 51.025 C 25.874 50.81 25.638 50.577 25.295 50.778 C 24.959 50.976 24.9 51.296 25.013 51.62 C 25.201 52.157 25.374 52.718 25.667 53.199 C 26.404 54.407 27.478 55.282 28.661 56.033 C 30.932 57.478 33.471 57.964 36.103 58.076 C 40.097 58.249 43.995 57.652 47.837 56.581 C 53.323 55.051 58.092 52.349 61.917 48.087 C 65.102 44.537 67.377 40.532 67.864 35.695 C 68.102 33.334 67.849 31.022 66.744 28.868 C 65.545 26.535 63.639 24.8 61.36 23.604 C 58.041 21.864 54.459 20.851 50.762 20.851 L 47.058 20.851 C 42.58 20.851 38.252 22.134 34.044 23.664 C 30.859 24.824 27.736 26.192 24.704 27.706 C 18.101 31.005 11.952 34.983 6.902 40.453 C 4.385 43.179 2.255 46.186 1.03 49.726 C 0.671 50.763 0.331 51.874 0.075 52.946 M 23.999 83.895 C 23.713 87.727 21.976 90.834 19.138 93.35 C 17.541 94.764 15.71 95.772 13.577 96.126 C 12.803 96.254 12.012 96.285 11.261 95.964 C 10.192 95.507 9.952 94.557 9.931 93.546 C 9.899 91.934 10.464 90.476 11.238 89.089 C 12.249 87.281 13.73 85.902 15.313 84.615 C 17.805 82.586 20.509 80.869 23.277 79.248 L 23.486 79.162 C 23.914 80.743 24.118 82.305 23.999 83.895 Z  M 45.62 67.241 C 45.418 68.464 45.165 69.689 44.808 70.875 C 43.572 74.98 41.985 78.958 40.268 82.883 C 39.951 83.609 39.49 84.272 39.089 84.96 C 39.027 85.067 38.935 85.159 38.845 85.247 C 38.349 85.738 37.878 85.712 37.627 85.07 C 37.335 84.324 37.155 83.526 37 82.736 C 36.896 82.206 36.921 81.649 36.889 81.106 C 36.922 77.244 38.1 73.734 40.099 70.467 C 40.923 69.119 41.821 67.835 43.191 66.983 C 43.612 66.721 44.085 66.51 44.562 66.376 C 45.292 66.171 45.741 66.508 45.62 67.241 Z  M 60.371 86.034 L 65.672 79.844 C 65.893 82.143 61.985 86.732 60.371 86.034 Z  M 77.303 81.868 C 76.928 82.083 76.52 82.238 76.136 82.436 C 75.785 82.619 75.669 82.435 75.658 82.132 C 75.651 81.927 75.681 81.712 75.738 81.513 C 76.454 78.988 77.771 76.832 79.732 75.079 L 79.869 75.009 C 80.802 77.617 79.724 80.481 77.303 81.868 Z " fill-rule="evenodd" fill="rgb(203,102,153)"/></g></svg>