<?xml version="1.0" encoding="UTF-8" standalone="no"?><!-- Generator: Gravit.io --><svg xmlns="http://www.w3.org/2000/svg" xmlns:xlink="http://www.w3.org/1999/xlink" style="isolation:isolate" viewBox="0 0 122.2 122.2" width="122.2pt" height="122.2pt"><defs><clipPath id="_clipPath_hIcEQhNzlOroPQeu0WjLmWOcEvBlFD85"><rect width="122.2" height="122.2"/></clipPath></defs><g clip-path="url(#_clipPath_hIcEQhNzlOroPQeu0WjLmWOcEvBlFD85)"><path d=" M 61.025 41.02 L 61.025 102.971 C 71.99 102.988 73.543 103.005 83.288 102.971 C 118.701 103.187 130.85 64.688 110.925 10.981 C 101.441 28.042 84.418 38.741 61.025 41.02 Z " fill="rgb(240,240,240)"/><g><g><path d=" M 61.021 122.2 C 46.084 122.2 32.399 116.794 21.782 107.843 L 20.873 107.037 C 23.108 108.845 26.394 108.507 28.2 106.265 C 30.012 104.025 29.671 100.736 27.433 98.92 C 25.2 97.108 21.92 97.454 20.101 99.692 C 18.292 101.928 18.635 105.209 20.867 107.031 L 19.53 105.846 C 7.528 94.682 0 78.756 0 61.097 C 0 27.41 27.372 0 61.021 0 L 61.021 41.772 C 53.834 42.143 46.899 42.292 39.774 45.036 C 13.157 55.281 13.58 87.063 28.235 94.202 C 28.247 94.212 29.116 94.679 29.106 94.664 C 29.109 94.662 48.939 90.719 61.021 86.511 L 61.021 94.765 L 61.021 94.765 C 55.208 96.88 48.885 98.434 38.999 101.857 C 37.228 102.469 35.839 103.062 35.839 103.062 C 39.512 102.457 43.158 102.254 43.158 102.254 C 48.485 102.002 54.584 102.268 61.021 102.441 L 61.021 122.2 L 61.021 122.2 Z " fill="rgb(95,184,50)"/><path d=" M 61.021 122.2 C 93.184 122.2 119.595 97.138 121.856 65.506 C 123.53 50.018 118.961 30.351 111.186 6.963 C 109.395 11.222 107.21 15.06 104.691 18.493 C 93.603 7.099 78.127 0 61.021 0 C 61.021 0 61.021 0 61.021 0 L 61.021 41.772 C 65.615 41.514 70.309 41.174 75.223 40.003 C 88.678 36.8 104.262 26.701 110.596 13.498 C 117.697 34.587 126.228 67.582 110.924 87.987 L 110.924 87.987 C 99.774 102.863 79.232 102.988 61.021 102.441 L 61.021 122.2 L 61.021 122.2 Z " fill="rgb(78,168,34)"/><path d=" M 61.021 94.765 C 63.722 93.831 66.31 92.752 69.093 91.32 C 85.61 82.849 102.048 64.396 105.392 45.227 C 99.106 63.663 79.985 79.531 62.575 85.974 C 62.09 86.154 61.589 86.333 61.021 86.511 L 61.021 94.765 L 61.021 94.765 Z " fill="rgb(78,168,34)"/></g></g></g></svg>