<?xml version="1.0" encoding="UTF-8" standalone="no"?><!-- Generator: Gravit.io --><svg xmlns="http://www.w3.org/2000/svg" xmlns:xlink="http://www.w3.org/1999/xlink" style="isolation:isolate" viewBox="0 0 122.2 122.2" width="122.2pt" height="122.2pt"><defs><clipPath id="_clipPath_exZwG2ypsn4ut7YmiIlyNnqOs5DwBuVA"><rect width="122.2" height="122.2"/></clipPath></defs><g clip-path="url(#_clipPath_exZwG2ypsn4ut7YmiIlyNnqOs5DwBuVA)"><g><path d=" M 18.833 81.943 C 22.003 78.151 22.376 74.236 19.921 66.965 C 18.367 62.366 15.788 58.823 17.684 55.964 C 19.703 52.919 23.992 55.871 20.418 59.942 L 21.133 60.439 C 25.421 60.936 27.534 55.063 24.333 53.385 C 15.881 48.973 8.486 57.456 11.748 67.275 C 13.147 71.439 15.104 75.852 13.52 79.363 C 12.152 82.378 9.511 84.149 7.74 84.211 C 4.042 84.397 6.497 75.914 10.754 73.801 C 11.127 73.615 11.655 73.366 11.158 72.744 C 5.906 72.154 2.83 74.578 1.059 77.965 C -4.1 87.816 10.847 91.451 18.833 81.943 Z " fill="rgb(51,51,51)"/><path d=" M 111.124 52.981 C 112.336 55.964 114.17 58.916 113.082 61.527 C 112.181 63.764 111 64.696 109.695 64.914 C 107.861 65.224 108.359 59.476 111.497 57.767 C 111.777 57.611 112.181 56.865 111.808 56.43 C 107.83 56.213 105.593 58.108 104.381 60.625 C 100.87 67.99 112.336 70.01 117.961 62.77 C 120.198 59.88 120.291 57.021 118.147 51.831 C 116.78 48.538 114.698 46.083 116.003 43.907 C 117.401 41.608 120.757 43.597 118.24 46.673 L 118.8 46.984 C 122.062 47.17 123.399 42.82 120.913 41.732 C 114.356 38.936 108.234 45.989 111.124 52.981 Z " fill="rgb(51,51,51)"/><path d=" M 69.609 45.119 C 67.34 43.317 60.97 46.331 59.168 50.806 C 56.899 56.493 53.543 64.789 50.25 68.425 C 46.769 72.247 46.427 69.295 46.769 67.089 C 47.577 61.9 52.642 49.874 55.408 46.487 C 54.382 44.964 47.67 45.182 43.009 52.422 C 41.269 55.156 37.291 64.261 32.879 71.439 C 31.916 72.993 30.704 71.905 31.636 68.27 C 32.692 64.075 35.8 52.546 39.809 43.472 C 50.312 41.39 61.467 39.93 70.013 39.899 C 71.163 39.588 71.939 38.563 70.013 38.501 C 62.648 38.252 51.586 39.122 41.238 40.427 C 43.227 36.45 45.371 33.28 47.546 31.944 C 45.184 30.452 40.399 31.043 37.664 35.082 C 36.452 36.885 35.241 39.06 34.091 41.422 C 26.509 42.602 20.014 43.939 16.72 45.182 C 13.302 46.487 13.675 50.62 15.757 49.843 C 20.076 48.227 25.918 46.549 32.413 45.057 C 28.28 54.38 25.048 65.38 24.271 69.855 C 22.345 80.731 29.088 80.668 32.382 76.38 C 35.955 71.688 43.413 55.187 44.563 53.447 C 44.905 52.857 45.371 53.168 45.122 53.696 C 36.794 70.321 37.509 76.753 44.252 75.324 C 47.297 74.671 52.549 69.451 53.916 66.747 C 54.196 66.095 54.786 66.157 54.662 66.436 C 49.379 80.14 42.667 91.234 38.162 94.714 C 34.06 97.853 31.014 91.047 45.526 81.29 C 47.67 79.829 46.676 77.841 44.252 78.524 C 44.252 78.524 44.252 78.524 44.252 78.524 C 36.763 79.705 15.322 86.51 5.906 93.036 C 5.192 93.533 4.539 93.937 4.57 94.963 C 4.601 95.553 5.627 95.336 6.124 95.025 C 18.305 87.722 28.28 84.864 39.715 82.471 C 39.871 82.533 40.057 82.564 40.212 82.502 C 40.741 82.378 40.71 82.657 40.368 82.875 C 39.591 83.31 38.814 83.714 38.628 83.776 C 30.921 86.79 26.26 93.44 27.907 96.827 C 29.305 99.748 36.856 98.692 40.43 96.765 C 49.193 92.011 55.563 82.688 59.914 69.824 C 63.705 58.419 68.49 45.492 69.609 45.119 Z " fill="rgb(51,51,51)"/><path d=" M 120.54 71.439 C 106.277 69.575 75.513 72.061 61.933 75.665 C 57.894 76.722 59.012 78.866 61.063 78.462 C 61.094 78.462 61.965 78.245 61.996 78.245 C 73.151 76.069 100.217 74.174 116.003 77.188 C 117.898 77.53 123.585 71.843 120.54 71.439 Z " fill="rgb(51,51,51)"/><path d=" M 73.586 69.761 C 77.564 67.773 83.468 55.467 87.352 48.724 C 87.632 48.227 88.129 48.631 87.85 48.973 C 78.03 65.877 82.194 67.835 86.078 67.586 C 91.268 67.275 96.053 59.818 97.11 58.14 C 97.545 57.487 97.793 58.015 97.545 58.481 C 97.296 59.258 96.395 60.625 95.556 62.49 C 94.375 65.131 95.618 66.157 96.644 66.623 C 98.259 67.4 102.672 66.903 103.356 64.199 C 98.943 64.106 109.508 43.286 110.596 42.012 C 107.644 40.303 103.076 42.167 100.994 46.269 C 96.55 55.063 92.821 62.148 90.491 62.272 C 85.954 62.521 95.711 42.664 97.296 42.043 C 96.333 40.645 90.149 41.235 86.7 46.58 C 85.457 48.506 77.875 61.931 76.01 64.137 C 72.716 68.052 72.468 64.696 73.4 60.781 C 73.711 59.445 74.239 57.736 74.923 55.84 C 77.098 50.93 79.428 49.377 80.858 47.792 C 90.46 37.133 95.96 28.495 93.785 25.107 C 91.858 22.093 85.426 23.429 81.293 29.644 C 73.68 41.049 66.657 56.679 65.756 63.826 C 64.886 70.973 70.075 71.502 73.586 69.761 Z  M 77.626 48.848 C 77.968 48.071 78.185 47.854 78.776 46.549 C 78.776 46.549 78.776 46.549 78.776 46.549 C 82.194 39.029 86.482 31.105 89.434 27.407 C 91.268 25.48 93.847 28.091 89.186 35.238 C 86.451 39.464 83.344 43.348 79.957 46.766 C 79.957 46.766 79.957 46.766 79.957 46.797 C 79.087 47.761 78.31 48.569 77.968 49.035 C 77.719 49.345 77.44 49.283 77.626 48.848 Z " fill="rgb(51,51,51)"/></g></g></svg>