<svg xmlns="http://www.w3.org/2000/svg" xmlns:xlink="http://www.w3.org/1999/xlink" style="isolation:isolate" viewBox="11 30 100 62" width="100pt" height="62pt"><defs><clipPath id="_clipPath_3qslyx67m2Rc2i11mTTYgLiBISCxM3zV"><rect width="122" height="122"/></clipPath></defs><g clip-path="url(#_clipPath_3qslyx67m2Rc2i11mTTYgLiBISCxM3zV)"><clipPath id="_clipPath_22bR6ANJs02hAgc53DJtE8cLYXeUChPR"><rect x="0" y="0" width="122" height="122" transform="matrix(1,0,0,1,0,0)" fill="rgb(255,255,255)"/></clipPath><g clip-path="url(#_clipPath_22bR6ANJs02hAgc53DJtE8cLYXeUChPR)"><clipPath id="_clipPath_r7fuL6e8HCHkl9walmHbaRnMfsmpDv1L"><path d=" M 10.833 30.9 L 111.167 30.9 L 111.167 91.1 L 10.833 91.1 L 10.833 30.9 Z " fill="rgb(255,255,255)"/></clipPath><g clip-path="url(#_clipPath_r7fuL6e8HCHkl9walmHbaRnMfsmpDv1L)"><g><path d=" M 61 30.9 C 47.622 30.9 39.261 37.589 35.917 50.967 C 40.933 44.278 46.786 41.769 53.475 43.442 C 57.291 44.395 60.019 47.165 63.038 50.229 C 67.956 55.222 73.649 61 86.083 61 C 99.461 61 107.822 54.311 111.167 40.933 C 106.15 47.622 100.297 50.131 93.608 48.458 C 89.792 47.505 87.064 44.735 84.045 41.671 C 79.127 36.678 73.434 30.9 61 30.9 Z  M 35.917 61 C 22.539 61 14.178 67.689 10.833 81.067 C 15.85 74.378 21.703 71.869 28.392 73.542 C 32.208 74.497 34.936 77.265 37.955 80.329 C 42.873 85.322 48.566 91.1 61 91.1 C 74.378 91.1 82.739 84.411 86.083 71.033 C 81.067 77.722 75.214 80.231 68.525 78.558 C 64.709 77.605 61.981 74.835 58.962 71.771 C 54.044 66.778 48.351 61 35.917 61 Z " fill-rule="evenodd" fill="rgb(56,189,248)"/></g></g></g></g></svg>
