<?xml version="1.0" encoding="UTF-8" standalone="no"?><!-- Generator: Gravit.io --><svg xmlns="http://www.w3.org/2000/svg" xmlns:xlink="http://www.w3.org/1999/xlink" style="isolation:isolate" viewBox="0 0 1286 1286" width="1286pt" height="1286pt"><defs><clipPath id="_clipPath_YhOSFfTFhR0ZPsWvShaBpMyhOn0wGjbM"><rect width="1286" height="1286"/></clipPath></defs><g clip-path="url(#_clipPath_YhOSFfTFhR0ZPsWvShaBpMyhOn0wGjbM)"><rect width="1286" height="1286" style="fill:rgb(15,15,15)" fill-opacity="0"/><path d=" M 643.1 1286 L 185.1 1286 C 82.996 1286 0.1 1203.104 0.1 1101 L 0.1 185 C 0.1 82.896 82.996 0 185.1 0 L 643.1 0 L 643.1 1286 L 643.1 1286 Z " fill="rgb(50,50,50)"/><path d=" M 642.8 1286 L 1100.8 1286 C 1202.904 1286 1285.8 1203.104 1285.8 1101 L 1285.8 185 C 1285.8 82.896 1202.904 0 1100.8 0 L 642.8 0 L 642.8 1286 L 642.8 1286 Z " fill="rgb(15,15,15)"/><rect x="183.806" y="353.294" width="240" height="240" transform="matrix(0.707,-0.707,0.707,0.707,-245.687,353.448)" fill="rgb(250,250,250)"/><path d=" M 643.317 642.906 L 643.223 643 L 473.517 473.294 L 643.223 303.589 L 643.317 303.683 L 643.317 642.906 L 643.317 642.906 Z " fill="rgb(250,250,250)"/><path d=" M 642.8 642.906 L 812.411 473.294 L 642.8 303.683 L 642.8 642.906 L 642.8 642.906 Z " fill="rgb(230,230,230)"/><rect x="862.117" y="353.294" width="240" height="240" transform="matrix(0.707,-0.707,0.707,0.707,-47.014,833.086)" fill="rgb(220,220,220)"/><path d=" M 643.317 982.317 L 643.223 982.411 L 473.517 812.706 L 643.223 643 L 643.317 643.094 L 643.317 982.317 L 643.317 982.317 Z " fill="rgb(250,250,250)"/><path d=" M 642.8 982.317 L 812.411 812.706 L 642.8 643.094 L 642.8 982.317 L 642.8 982.317 Z " fill="rgb(220,220,220)"/></g></svg>