<?xml version="1.0" encoding="UTF-8" standalone="no"?><!-- Generator: Gravit.io --><svg xmlns="http://www.w3.org/2000/svg" xmlns:xlink="http://www.w3.org/1999/xlink" style="isolation:isolate" viewBox="0 0 107.9 122.4" width="107.9pt" height="122.4pt"><defs><clipPath id="_clipPath_OO7aUc07MpILXPLtO9ZpnPYywKM87J62"><rect width="107.9" height="122.4"/></clipPath></defs><g clip-path="url(#_clipPath_OO7aUc07MpILXPLtO9ZpnPYywKM87J62)"><path d=" M 0 61.2 L 0 115.15 L 107.9 115.15 L 107.9 7.25 L 0 7.25 L 0 61.2 Z  M 86.95 56.884 C 89.534 57.484 91.883 58.835 93.7 60.768 C 94.701 61.81 95.57 62.969 96.29 64.221 C 96.29 64.359 91.629 67.51 88.789 69.271 C 88.685 69.34 88.271 68.891 87.813 68.209 C 86.76 66.391 84.846 65.24 82.746 65.162 C 79.475 64.938 77.369 66.655 77.386 69.478 C 77.359 70.181 77.52 70.878 77.852 71.498 C 78.568 72.991 79.906 73.88 84.102 75.693 C 91.827 79.016 95.133 81.209 97.188 84.325 C 99.484 87.778 99.993 93.354 98.439 97.48 C 96.713 101.969 92.483 105.016 86.501 106.026 C 83.769 106.339 81.009 106.31 78.284 105.94 C 74.125 105.265 70.289 103.285 67.33 100.286 C 66.337 99.189 64.403 96.332 64.524 96.125 C 64.839 95.891 65.171 95.681 65.517 95.495 L 69.488 93.216 L 72.586 91.421 L 73.234 92.379 C 74.326 93.942 75.717 95.273 77.325 96.298 C 80.778 98.11 85.491 97.86 87.822 95.763 C 89.437 94.176 89.687 91.663 88.418 89.789 C 87.554 88.589 85.828 87.579 81.003 85.473 C 75.435 83.073 73.035 81.589 70.843 79.224 C 69.474 77.663 68.464 75.821 67.882 73.829 C 67.448 71.552 67.384 69.22 67.692 66.923 C 68.84 61.545 72.871 57.79 78.758 56.677 C 81.485 56.339 84.246 56.415 86.95 56.901 L 86.95 56.884 Z  M 61.624 61.407 L 61.624 65.827 L 47.614 65.827 L 47.614 105.732 L 37.679 105.732 L 37.679 65.818 L 23.634 65.818 L 23.634 61.502 C 23.597 60.016 23.637 58.53 23.755 57.048 C 23.807 56.979 32.387 56.944 42.746 56.962 L 61.572 56.962 L 61.624 61.407 Z " fill="rgb(71,163,218)"/></g></svg>