<?xml version="1.0" encoding="UTF-8" standalone="no"?><!-- Generator: Gravit.io --><svg xmlns="http://www.w3.org/2000/svg" xmlns:xlink="http://www.w3.org/1999/xlink" style="isolation:isolate" viewBox="0 0 65.3 65.3" width="65.3pt" height="65.3pt"><defs><clipPath id="_clipPath_p9LCuYeZCysOsrRdk4T6rJ9qxtBYOM3g"><rect width="65.3" height="65.3"/></clipPath></defs><g clip-path="url(#_clipPath_p9LCuYeZCysOsrRdk4T6rJ9qxtBYOM3g)"><rect width="65.3" height="65.3" style="fill:rgb(0,0,0)" fill-opacity="0"/><g><path d=" M 32.65 65.3 L 6.377 65.3 C 2.857 65.3 0 62.443 0 58.923 L 0 6.377 C 0 2.857 2.857 0 6.377 0 L 32.65 0 L 32.65 65.3 L 32.65 65.3 Z " fill="rgb(57,144,236)"/><path d=" M 32.65 65.3 L 58.923 65.3 C 62.443 65.3 65.3 62.443 65.3 58.923 L 65.3 6.377 C 65.3 2.857 62.443 0 58.923 0 L 32.65 0 L 32.65 65.3 L 32.65 65.3 Z " fill="rgb(49,120,198)"/><path d=" M 32.65 36.221 L 29.717 36.221 L 29.717 59.561 L 23.212 59.561 L 23.212 36.221 L 15.05 36.221 L 15.05 30.992 L 32.65 30.992 L 32.65 36.221 L 32.65 36.221 Z " fill="rgb(255,255,255)"/><path d=" M 32.65 36.221 L 37.879 36.221 L 37.879 30.992 L 32.65 30.992 L 32.65 36.221 L 32.65 36.221 Z  M 40.43 51.908 L 40.43 58.285 C 41.463 58.821 42.726 59.216 44.129 59.484 C 45.531 59.752 47.062 59.88 48.592 59.88 C 50.123 59.88 51.526 59.739 52.929 59.446 C 54.332 59.153 55.479 58.668 56.5 58.043 C 57.533 57.367 58.413 56.513 58.923 55.365 C 59.433 54.217 59.829 52.941 59.829 51.283 C 59.829 50.123 59.65 49.115 59.306 48.223 C 58.961 47.33 58.464 46.565 57.775 45.927 C 57.125 45.251 56.372 44.651 55.479 44.141 C 54.587 43.631 53.566 43.095 52.419 42.611 C 51.577 42.266 50.888 41.935 50.123 41.603 C 49.46 41.272 48.886 40.94 48.465 40.608 C 47.993 40.264 47.636 39.907 47.381 39.537 C 47.126 39.154 46.998 38.734 46.998 38.262 C 46.998 37.828 47.112 37.433 47.343 37.076 C 47.573 36.718 47.891 36.425 48.299 36.17 C 48.707 35.915 49.217 35.724 49.83 35.583 C 50.429 35.443 51.092 35.379 51.87 35.379 C 52.406 35.379 52.967 35.419 53.528 35.499 C 54.115 35.58 54.714 35.703 55.314 35.869 C 55.913 36.035 56.5 36.239 57.099 36.494 C 57.66 36.749 58.183 37.042 58.63 37.374 L 58.63 31.38 C 57.66 31.01 56.589 30.729 55.441 30.551 C 54.293 30.372 53.018 30.283 51.488 30.283 C 49.957 30.283 48.554 30.449 47.151 30.768 C 45.748 31.086 44.6 31.597 43.58 32.298 C 42.547 32.987 41.795 33.828 41.157 34.976 C 40.557 36.048 40.264 37.272 40.264 38.802 C 40.264 40.716 40.813 42.374 41.922 43.649 C 43.019 45.052 44.728 46.072 46.896 47.093 C 47.776 47.45 48.554 47.807 49.319 48.151 C 50.085 48.495 50.722 48.853 51.232 49.222 C 51.781 49.592 52.214 50 52.508 50.434 C 52.827 50.868 52.992 51.378 52.992 51.965 C 52.992 52.373 52.893 52.755 52.699 53.112 C 52.505 53.469 52.202 53.776 51.794 54.031 C 51.385 54.286 50.888 54.49 50.263 54.643 C 49.664 54.783 48.988 54.86 48.095 54.86 C 46.692 54.86 45.289 54.617 44.014 54.133 C 42.611 53.648 41.335 52.921 40.188 51.965 L 40.43 51.908 Z " fill-rule="evenodd" fill="rgb(245,245,245)"/></g></g></svg>