<?xml version="1.0" encoding="UTF-8" standalone="no"?><!-- Generator: Gravit.io --><svg xmlns="http://www.w3.org/2000/svg" xmlns:xlink="http://www.w3.org/1999/xlink" style="isolation:isolate" viewBox="0 0 107.9 122.4" width="107.9pt" height="122.4pt"><defs><clipPath id="_clipPath_yRNMxmHiPLImVvqxCxDgtPzbCRbq9p3v"><rect width="107.9" height="122.4"/></clipPath></defs><g clip-path="url(#_clipPath_yRNMxmHiPLImVvqxCxDgtPzbCRbq9p3v)"><path d=" M 53.95 7.251 C 24.153 7.251 0 31.404 0 61.2 C 0 90.994 24.153 115.149 53.95 115.149 C 83.746 115.149 107.9 90.994 107.9 61.2 C 107.9 31.404 83.747 7.251 53.95 7.251 Z  M 66.054 25.829 C 68.045 22.383 72.448 21.203 75.893 23.19 C 79.339 25.181 80.518 29.584 78.527 33.029 C 76.54 36.475 72.136 37.654 68.691 35.664 C 65.248 33.676 64.068 29.272 66.054 25.829 Z  M 53.95 29.91 C 56.847 29.91 59.648 30.312 62.31 31.047 C 62.779 33.941 64.497 36.608 67.236 38.189 C 69.97 39.765 73.134 39.923 75.872 38.889 C 81.198 44.127 84.664 51.249 85.169 59.183 L 74.906 59.334 C 73.958 48.587 64.941 40.16 53.95 40.16 C 50.784 40.16 47.78 40.863 45.088 42.116 L 40.082 33.148 C 44.263 31.079 48.971 29.91 53.95 29.91 L 53.95 29.91 Z  M 17.266 68.403 C 13.286 68.403 10.062 65.178 10.062 61.2 C 10.062 57.221 13.285 53.996 17.266 53.996 C 21.243 53.996 24.469 57.22 24.469 61.2 C 24.469 65.177 21.243 68.403 17.266 68.403 Z  M 23.652 69.045 C 25.926 67.189 27.381 64.364 27.381 61.2 C 27.381 58.034 25.926 55.209 23.652 53.354 C 25.6 45.816 30.289 39.378 36.591 35.165 L 41.857 43.986 C 36.448 47.793 32.912 54.082 32.912 61.2 C 32.912 68.318 36.447 74.607 41.857 78.412 L 36.591 87.236 C 30.287 83.023 25.597 76.584 23.652 69.045 L 23.652 69.045 Z  M 75.893 99.204 C 72.449 101.194 68.045 100.014 66.057 96.568 C 64.067 93.125 65.248 88.722 68.693 86.732 C 72.136 84.744 76.541 85.926 78.53 89.369 C 80.519 92.814 79.338 97.218 75.893 99.204 L 75.893 99.204 Z  M 75.872 83.511 C 73.134 82.475 69.971 82.631 67.236 84.211 C 64.498 85.794 62.779 88.457 62.31 91.352 C 59.648 92.089 56.847 92.492 53.95 92.492 C 48.971 92.492 44.263 91.322 40.083 89.252 L 45.088 80.283 C 47.78 81.536 50.784 82.24 53.95 82.24 C 64.942 82.24 73.958 73.815 74.903 63.067 L 85.169 63.217 C 84.664 71.151 81.198 78.273 75.872 83.511 L 75.872 83.511 Z " fill="rgb(221,72,20)"/></g></svg>