<?xml version="1.0" encoding="UTF-8" standalone="no"?><!-- Generator: Gravit.io --><svg xmlns="http://www.w3.org/2000/svg" xmlns:xlink="http://www.w3.org/1999/xlink" style="isolation:isolate" viewBox="0 0 107.9 122.4" width="107.9pt" height="122.4pt"><defs><clipPath id="_clipPath_y0EuiBMQnqESJ7moqgEpzKQnaweuyrXT"><rect width="107.9" height="122.4"/></clipPath></defs><g clip-path="url(#_clipPath_y0EuiBMQnqESJ7moqgEpzKQnaweuyrXT)"><g><path d=" M 0 14.777 L 42.025 14.911 L 53.968 35.538 L 66.133 14.911 L 107.9 14.778 L 54.09 107.623 L 0 14.777 Z  M 107.04 15.315 L 86.505 15.332 L 54.071 71.012 L 21.657 15.332 L 0.794 15.316 L 54.079 106.264 L 107.04 15.315 Z  M 85.84 15.308 L 66.667 15.449 L 53.978 36.226 L 41.488 15.449 L 22.273 15.308 L 54.079 69.659 L 85.84 15.308 Z  M 21.915 15.164 L 41.305 15.172 M 21.915 15.164 L 41.305 15.172" fill="none"/><path d=" M 21.915 15.164 L 41.305 15.172 L 53.98 36.211 L 66.61 15.173 L 85.983 15.169 L 54.076 70.514 L 21.915 15.164 Z " fill="rgb(53,73,94)"/><path d=" M 0.768 15.313 L 21.898 15.168 L 54.058 70.516 L 85.966 15.172 L 107.133 15.194 L 54.054 106.285 L 0.768 15.313 Z " fill="rgb(65,184,131)"/></g></g></svg>