<?xml version="1.0" encoding="UTF-8" standalone="no"?>
<!-- Generator: Gravit.io -->
<svg xmlns="http://www.w3.org/2000/svg" xmlns:xlink="http://www.w3.org/1999/xlink" style="isolation:isolate" viewBox="790.296 0 234.488 275.528" width="234.488pt" height="275.528pt"><defs><clipPath id="_clipPath_o6X11nQoKfsaab8c9lVWymMW4zucL5jh"><rect x="790.296" y="0" width="234.488" height="275.528"/></clipPath></defs><g clip-path="url(#_clipPath_o6X11nQoKfsaab8c9lVWymMW4zucL5jh)"><g><path d=" M 811.649 54.414 C 809.256 54.414 807.242 55.254 806.23 56.898 C 805.183 58.595 805.345 60.781 806.456 62.994 L 833.324 109.505 C 833.369 109.595 833.369 109.65 833.324 109.731 L 791.103 184.24 C 790.001 186.434 790.055 188.638 791.103 190.336 C 792.114 191.97 793.902 193.045 796.296 193.045 L 836.034 193.045 C 841.976 193.045 844.839 189.035 846.871 185.368 C 846.871 185.368 888.163 112.341 889.77 109.505 C 889.608 109.243 862.45 61.865 862.45 61.865 C 860.472 58.343 857.483 54.414 851.387 54.414 L 811.649 54.414 Z " fill="rgb(0,90,95)"/><path d=" M 978.591 0 C 972.658 0 970.084 3.739 967.952 7.568 C 967.952 7.568 882.344 159.385 879.526 164.371 C 879.671 164.642 935.99 267.96 935.99 267.96 C 937.959 271.482 941.003 275.528 947.09 275.528 L 986.783 275.528 C 989.176 275.528 991.045 274.625 992.057 272.991 C 993.114 271.293 993.087 269.053 991.976 266.849 L 935.954 164.497 C 935.9 164.416 935.9 164.316 935.954 164.235 L 1023.938 8.67 C 1025.039 6.475 1025.067 4.236 1024.019 2.538 C 1023.007 0.903 1021.129 0 1018.736 0 L 978.591 0 Z " fill="rgb(212,214,0)"/></g></g></svg>