<?xml version="1.0" encoding="UTF-8" standalone="no"?><!-- Generator: Gravit.io --><svg xmlns="http://www.w3.org/2000/svg" xmlns:xlink="http://www.w3.org/1999/xlink" style="isolation:isolate" viewBox="0 0 176.5 176.5" width="176.5pt" height="176.5pt"><defs><clipPath id="_clipPath_xRszr9wRZG0kvoAdSddm9tgAj9hPkwNV"><rect width="176.5" height="176.5"/></clipPath></defs><g clip-path="url(#_clipPath_xRszr9wRZG0kvoAdSddm9tgAj9hPkwNV)"><g><g><g><path d=" M 131.141 160.256 L 103.737 155.431 L 103.737 115.108 L 72.72 115.108 L 72.72 155.431 L 45.368 160.256 L 32.437 176.454 L 144.072 176.454 L 131.141 160.256 Z " fill="rgb(245,218,195)"/><path d=" M 131.15 160.256 L 103.737 155.431 L 103.737 115.108 L 88.229 115.108 L 88.229 176.454 L 144.081 176.454 L 131.15 160.256 Z " fill="rgb(238,191,151)"/><g opacity="0.5"><path d=" M 103.756 133.54 L 88.228 147.398 L 72.7 132.552 L 72.7 114.931 L 103.756 114.931 L 103.756 133.54 Z " fill="rgb(231,164,107)"/></g></g><g><g><path d=" M 131.913 160.253 L 118.937 157.28 L 118.065 154.385 L 113.479 151.49 L 110.537 144.471 L 103.756 141.37 L 103.706 154.756 L 88.242 173.431 L 72.725 154.487 L 72.725 141.37 L 65.924 144.471 L 62.98 151.49 L 58.393 154.385 L 57.52 157.28 L 44.543 160.253 L 31.763 176.451 L 144.694 176.451 L 131.913 160.253 Z " fill="rgb(255,255,255)"/><g opacity="0.8"><path d=" M 92.442 176.451 L 96.271 176.451 L 117.942 158.142 L 92.442 176.451 Z  M 108.701 146.262 L 105.876 147.396 L 103.756 145.779 L 103.766 154.815 L 108.701 146.262 Z  M 72.7 146.262 L 69.952 147.689 L 67.482 146.642 L 72.71 154.487 L 72.7 146.262 Z  M 80.242 176.451 L 84.071 176.451 L 58.571 158.142 L 80.242 176.451 Z " fill="rgb(204,204,204)"/></g><g opacity="0.4"><path d=" M 31.763 176.451 L 49.085 176.451 L 44.543 160.253 L 31.763 176.451 Z  M 131.913 160.253 L 127.788 176.452 L 144.694 176.452 L 131.913 160.253 Z " fill="rgb(230,230,230)"/></g></g></g></g><g><g><g><g><path d=" M 59.499 60.846 L 59.499 83.797 L 53.238 86.647 L 47.817 83.666 L 39.84 64.79 L 48.803 53.671 L 59.499 60.846 Z " fill="rgb(245,218,195)"/><path d=" M 49.505 58.292 L 43.817 65.347 L 50.526 81.223 L 53.383 82.794 L 59.499 79.905 L 59.499 64.797 L 49.505 58.292 Z " fill="rgb(238,191,151)"/></g><g><path d=" M 117.048 83.797 L 117.048 60.846 L 127.462 53.671 L 136.425 64.79 L 128.742 82.97 L 123.027 86.647 L 117.048 83.797 Z " fill="rgb(238,191,151)"/><path d=" M 126.785 58.323 L 117.048 64.923 L 117.048 80.28 L 122.777 82.709 L 125.981 80.648 L 132.447 65.347 L 126.785 58.323 Z " fill="rgb(231,164,107)"/></g></g></g><g><g><path d=" M 88.23 2.47 L 52.939 24.591 L 52.939 111.054 L 83.572 133.046 L 93.171 133.046 L 123.521 110.956 L 123.521 24.591 L 88.23 2.47 Z " fill="rgb(245,218,195)"/><path d=" M 88.231 2.47 L 88.23 133.046 L 93.172 133.046 L 123.521 110.956 L 123.521 24.591 L 88.231 2.47 Z " fill="rgb(238,191,151)"/></g></g><g><g><path d=" M 75.953 106.988 L 100.737 106.988 L 95.049 111.07 L 81.642 111.07 L 75.953 106.988 Z " fill="rgb(223,144,129)"/><path d=" M 88.304 104.586 L 84.648 102.564 L 72.788 107.005 L 103.903 107.005 L 91.926 102.526 L 88.304 104.586 Z " fill="rgb(213,108,88)"/></g></g><g><g><path d=" M 90.538 65.382 L 90.538 59.813 L 85.92 59.813 L 85.92 65.382 L 82.019 85.716 L 80.588 87.252 L 81.039 89.617 L 88.229 91.08 L 95.176 89.617 L 95.869 87.252 L 94.439 85.716 L 90.538 65.382 Z " fill="rgb(238,191,151)"/><path d=" M 90.538 65.382 L 90.538 59.813 L 88.229 59.813 L 88.229 91.08 L 95.176 89.617 L 95.869 87.252 L 94.439 85.716 L 90.538 65.382 Z " fill="rgb(231,164,107)"/></g></g><g><g><g><g><path d=" M 78.694 68.725 C 78.694 68.725 78.921 68.953 79.236 68.823 C 79.551 68.694 79.454 68.263 78.996 67.664 C 78.538 67.066 76.289 64.933 76.289 64.933 L 68.498 64.933 L 64.727 67.025 C 64.727 67.025 66.199 70.629 71.908 70.214 C 77.617 69.798 78.694 68.725 78.694 68.725 Z " fill="rgb(255,255,255)"/><g opacity="0.3"><path d=" M 76.021 65.972 C 75.98 65.604 75.883 65.255 75.74 64.933 L 69.281 64.933 C 69.034 65.488 68.923 66.113 68.996 66.761 C 69.214 68.701 70.963 70.097 72.903 69.879 C 74.843 69.661 76.239 67.912 76.021 65.972 Z " fill="rgb(0,0,0)"/></g><circle vector-effect="non-scaling-stroke" cx="72.50835062904608" cy="66.36690470381387" r="1.8293375404675913" fill="rgb(17,17,17)"/><circle vector-effect="non-scaling-stroke" cx="71.22767649559137" cy="67.49076862986232" r="1.137649438787406" fill="rgb(255,255,255)"/><path d=" M 76.23 65.35 C 77.413 66.187 78.497 67.222 79.458 68.454 C 79.09 67.147 76.674 65.054 76.551 64.98 C 74.309 64.216 71.55 64.167 68.225 64.783 C 67.042 65.399 65.761 66.212 64.357 67.222 L 68.618 65.325 C 68.865 65.276 76.034 65.3 76.23 65.35 Z " fill="rgb(37,4,31)"/><path d=" M 65.343 69.808 C 67.24 71.641 74.341 73.667 78.793 70.424 C 75.974 72.07 68.56 72.138 65.343 69.808 Z  M 78.694 68.725 C 75.897 69.943 70.146 70.227 69.776 70.252 C 70.491 70.473 76.88 70.213 78.694 68.725 Z " fill="rgb(231,164,107)"/></g><g><path d=" M 98.337 68.725 C 98.337 68.725 98.11 68.953 97.795 68.823 C 97.48 68.694 97.577 68.263 98.035 67.664 C 98.493 67.066 100.742 64.933 100.742 64.933 L 108.533 64.933 L 112.304 67.025 C 112.304 67.025 110.832 70.629 105.123 70.214 C 99.415 69.798 98.337 68.725 98.337 68.725 Z " fill="rgb(255,255,255)"/><g opacity="0.3"><path d=" M 101.01 65.972 C 101.052 65.604 101.149 65.255 101.292 64.933 L 107.75 64.933 C 107.998 65.488 108.108 66.113 108.036 66.761 C 107.818 68.701 106.068 70.097 104.129 69.879 C 102.188 69.661 100.792 67.912 101.01 65.972 Z " fill="rgb(0,0,0)"/></g><circle vector-effect="non-scaling-stroke" cx="104.52279150068438" cy="66.36690470381387" r="1.8293375404675913" fill="rgb(17,17,17)"/><circle vector-effect="non-scaling-stroke" cx="105.80346563413907" cy="67.49076862986232" r="1.137649438787406" fill="rgb(255,255,255)"/><path d=" M 108.412 65.325 L 112.674 67.222 C 111.27 66.212 109.989 65.399 108.806 64.783 C 105.481 64.167 102.722 64.216 100.48 64.98 C 100.357 65.054 97.941 67.146 97.573 68.454 C 98.534 67.222 99.618 66.187 100.8 65.35 C 100.997 65.3 108.166 65.276 108.412 65.325 Z " fill="rgb(0,0,0)"/><path d=" M 107.255 70.252 C 106.885 70.227 101.134 69.943 98.337 68.725 C 100.151 70.213 106.54 70.473 107.255 70.252 Z  M 98.239 70.424 C 102.691 73.667 109.792 71.641 111.689 69.808 C 108.472 72.138 101.057 72.07 98.239 70.424 Z " fill="rgb(224,137,63)"/></g></g></g><g><g><g><path d=" M 61.4 61.064 L 65.492 59.168 L 79.935 60.362 L 80.587 57.193 L 65.971 55.903 L 61.4 61.064 Z " fill="rgb(37,4,31)"/></g><g><path d=" M 115.32 61.064 L 111.228 59.168 L 96.785 60.362 L 96.133 57.193 L 110.75 55.903 L 115.32 61.064 Z " fill="rgb(37,4,31)"/><g opacity="0.4"><path d=" M 115.32 61.064 L 111.228 59.168 L 96.785 60.362 L 96.133 57.193 L 110.75 55.903 L 115.32 61.064 Z " fill="rgb(0,0,0)"/></g></g></g></g></g><g><g><path d=" M 88.301 2.377 L 52.938 24.463 L 52.938 60.414 L 59.48 60.414 L 59.48 27.708 L 106.55 36.631 L 117.002 25.233 L 117.002 60.414 L 123.521 60.414 L 123.521 24.463 L 88.301 2.377 Z " fill="rgb(37,4,31)"/><path d=" M 48.208 13.703 L 53.237 25.1 L 88.301 2.377 L 48.208 13.703 Z " fill="rgb(37,4,31)"/><g opacity="0.4"><path d=" M 88.301 2.377 L 88.301 33.171 L 106.55 36.631 L 117.002 25.233 L 117.002 60.414 L 123.521 60.414 L 123.521 24.463 L 88.301 2.377 Z " fill="rgb(0,0,0)"/></g></g></g></g></g></g></svg>